<?xml version="1.0" encoding="UTF-8"?>
<svg xmlns="http://www.w3.org/2000/svg" xmlns:xlink="http://www.w3.org/1999/xlink" width="236pt" height="138pt" viewBox="0 0 236 138" version="1.1">
<g id="surface1">
<path style="fill:none;stroke-width:1;stroke-linecap:round;stroke-linejoin:round;stroke:rgb(0%,0%,0%);stroke-opacity:1;stroke-miterlimit:10;" d="M 243 63 L 333 63 L 333 99 L 243 99 Z M 243 63 " transform="matrix(1.25,0,0,1.25,-215,-77.5)"/>
<path style="fill:none;stroke-width:1;stroke-linecap:round;stroke-linejoin:round;stroke:rgb(0%,0%,0%);stroke-opacity:1;stroke-miterlimit:10;" d="M 261 72 L 351 72 L 351 108 L 261 108 Z M 261 72 " transform="matrix(1.25,0,0,1.25,-215,-77.5)"/>
<path style=" stroke:none;fill-rule:nonzero;fill:rgb(40%,74.901961%,100%);fill-opacity:1;" d="M 111.25 46.25 L 201.25 46.25 L 201.25 12.5 L 111.25 12.5 Z M 111.25 46.25 "/>
<path style="fill:none;stroke-width:1;stroke-linecap:round;stroke-linejoin:round;stroke:rgb(0%,0%,0%);stroke-opacity:1;stroke-miterlimit:10;" d="M 261 72 L 333 72 L 333 99 L 261 99 Z M 261 72 " transform="matrix(1.25,0,0,1.25,-215,-77.5)"/>
<path style=" stroke:none;fill-rule:nonzero;fill:rgb(0%,0%,0%);fill-opacity:1;" d="M 144.003906 25.214844 L 138.75 25.214844 L 138.75 34.882812 L 139.53125 34.882812 L 139.53125 34.179688 L 143.222656 34.179688 L 143.222656 34.882812 L 144.003906 34.882812 Z M 139.53125 33.417969 L 139.53125 31.425781 L 143.222656 31.425781 L 143.222656 33.417969 Z M 139.53125 30.664062 L 139.53125 28.671875 L 143.222656 28.671875 L 143.222656 30.664062 Z M 139.53125 27.929688 L 139.53125 25.996094 L 143.222656 25.996094 L 143.222656 27.929688 Z M 136.777344 28.984375 C 137.089844 29.414062 137.460938 29.941406 137.890625 30.605469 L 138.320312 29.941406 C 137.8125 29.277344 137.285156 28.671875 136.777344 28.144531 L 136.777344 27.539062 L 138.222656 27.539062 L 138.222656 26.757812 L 136.777344 26.757812 L 136.777344 24.570312 L 135.976562 24.570312 L 135.976562 26.757812 L 134.394531 26.757812 L 134.394531 27.539062 L 135.957031 27.539062 C 135.585938 28.945312 135.019531 30.195312 134.179688 31.289062 L 134.511719 32.089844 C 135.117188 31.210938 135.585938 30.234375 135.976562 29.160156 L 135.976562 34.863281 L 136.777344 34.863281 Z M 136.777344 28.984375 "/>
<path style=" stroke:none;fill-rule:nonzero;fill:rgb(0%,0%,0%);fill-opacity:1;" d="M 145.644531 25.898438 L 145.644531 26.679688 L 155.605469 26.679688 L 155.605469 25.898438 L 151.171875 25.898438 C 150.976562 25.371094 150.742188 24.902344 150.527344 24.472656 L 149.628906 24.628906 C 149.863281 25.019531 150.097656 25.429688 150.292969 25.898438 Z M 152.402344 27.011719 L 151.855469 27.539062 C 153.164062 28.613281 154.199219 29.628906 154.941406 30.566406 L 155.546875 29.960938 C 154.707031 28.984375 153.652344 28.007812 152.402344 27.011719 Z M 152.519531 29.121094 C 152.03125 30.058594 151.40625 30.878906 150.644531 31.601562 C 149.84375 30.917969 149.179688 30.117188 148.691406 29.199219 L 147.988281 29.589844 C 148.515625 30.527344 149.199219 31.386719 150.019531 32.128906 C 148.828125 33.027344 147.363281 33.710938 145.585938 34.160156 L 146.074219 34.902344 C 147.871094 34.433594 149.414062 33.691406 150.664062 32.675781 C 151.894531 33.613281 153.398438 34.335938 155.234375 34.84375 L 155.742188 34.101562 C 153.984375 33.652344 152.5 32.988281 151.289062 32.109375 C 152.070312 31.367188 152.714844 30.46875 153.261719 29.433594 Z M 148.789062 27.03125 C 147.929688 28.085938 146.894531 28.984375 145.683594 29.785156 L 146.191406 30.46875 C 147.460938 29.628906 148.515625 28.652344 149.355469 27.539062 Z M 148.789062 27.03125 "/>
<path style=" stroke:none;fill-rule:nonzero;fill:rgb(0%,0%,0%);fill-opacity:1;" d="M 156.875 25 L 156.875 25.800781 L 161.542969 25.800781 C 161.464844 26.289062 161.308594 26.757812 161.132812 27.226562 L 157.519531 27.226562 L 157.519531 34.902344 L 158.28125 34.902344 L 158.28125 34.355469 L 165.488281 34.355469 L 165.488281 34.902344 L 166.269531 34.902344 L 166.269531 27.226562 L 161.953125 27.226562 C 162.128906 26.777344 162.285156 26.289062 162.363281 25.800781 L 166.875 25.800781 L 166.875 25 Z M 158.28125 33.613281 L 158.28125 27.96875 L 159.84375 27.96875 L 159.84375 33.613281 Z M 160.585938 33.613281 L 160.585938 32.167969 L 163.164062 32.167969 L 163.164062 33.613281 Z M 163.90625 33.613281 L 163.90625 27.96875 L 165.488281 27.96875 L 165.488281 33.613281 Z M 160.585938 31.445312 L 160.585938 30.078125 L 163.164062 30.078125 L 163.164062 31.445312 Z M 160.585938 29.355469 L 160.585938 27.96875 L 163.164062 27.96875 L 163.164062 29.355469 Z M 160.585938 29.355469 "/>
<path style=" stroke:none;fill-rule:nonzero;fill:rgb(0%,0%,0%);fill-opacity:1;" d="M 168.359375 26.289062 C 168.90625 26.230469 169.414062 26.132812 169.902344 26.035156 L 169.902344 27.636719 L 168.242188 27.636719 L 168.242188 28.417969 L 169.863281 28.417969 C 169.472656 29.726562 168.808594 30.878906 167.910156 31.894531 L 168.242188 32.734375 C 168.925781 31.855469 169.472656 30.839844 169.902344 29.746094 L 169.902344 34.824219 L 170.664062 34.824219 L 170.664062 29.6875 C 170.996094 30.136719 171.386719 30.761719 171.855469 31.542969 L 172.304688 30.878906 C 171.738281 30.175781 171.210938 29.550781 170.664062 28.984375 L 170.664062 28.417969 L 172.050781 28.417969 L 172.050781 27.636719 L 170.664062 27.636719 L 170.664062 25.859375 C 171.132812 25.742188 171.582031 25.625 171.992188 25.46875 L 171.699219 24.707031 C 170.703125 25.117188 169.53125 25.371094 168.203125 25.507812 Z M 172.714844 25.234375 L 172.714844 30.46875 L 177.578125 30.46875 L 177.578125 25.234375 Z M 176.777344 29.707031 L 173.535156 29.707031 L 173.535156 26.015625 L 176.777344 26.015625 Z M 173.691406 31.191406 C 173.183594 32.441406 172.558594 33.515625 171.835938 34.414062 L 172.519531 34.902344 C 173.242188 33.945312 173.886719 32.832031 174.414062 31.542969 Z M 176.445312 31.132812 L 175.800781 31.542969 C 176.582031 32.753906 177.226562 33.867188 177.695312 34.882812 L 178.378906 34.394531 C 177.929688 33.476562 177.285156 32.382812 176.445312 31.132812 Z M 176.445312 31.132812 "/>
<path style=" stroke:none;fill-rule:nonzero;fill:rgb(0%,0%,0%);fill-opacity:1;" d="M 9.414062 65.78125 L 9.414062 66.816406 L 22.675781 66.816406 L 22.675781 65.78125 L 16.777344 65.78125 C 16.503906 65.097656 16.191406 64.453125 15.898438 63.886719 L 14.707031 64.101562 C 15.039062 64.609375 15.332031 65.15625 15.605469 65.78125 Z M 18.398438 67.265625 L 17.675781 67.96875 C 19.433594 69.414062 20.800781 70.742188 21.796875 72.011719 L 22.597656 71.210938 C 21.464844 69.882812 20.078125 68.59375 18.398438 67.265625 Z M 18.554688 70.078125 C 17.910156 71.328125 17.070312 72.421875 16.054688 73.378906 C 14.980469 72.460938 14.121094 71.40625 13.457031 70.175781 L 12.519531 70.703125 C 13.222656 71.953125 14.121094 73.105469 15.234375 74.082031 C 13.652344 75.292969 11.679688 76.191406 9.316406 76.796875 L 9.980469 77.773438 C 12.382812 77.148438 14.414062 76.152344 16.09375 74.804688 C 17.714844 76.074219 19.746094 77.03125 22.167969 77.714844 L 22.851562 76.71875 C 20.507812 76.113281 18.535156 75.253906 16.914062 74.082031 C 17.949219 73.066406 18.828125 71.894531 19.550781 70.507812 Z M 13.574219 67.285156 C 12.441406 68.691406 11.074219 69.902344 9.433594 70.957031 L 10.117188 71.875 C 11.796875 70.761719 13.222656 69.453125 14.355469 67.96875 Z M 13.574219 67.285156 "/>
<path style=" stroke:none;fill-rule:nonzero;fill:rgb(0%,0%,0%);fill-opacity:1;" d="M 28.085938 63.828125 L 27.089844 64.316406 C 27.597656 65.039062 28.085938 65.859375 28.535156 66.777344 L 29.511719 66.308594 C 29.0625 65.410156 28.574219 64.570312 28.085938 63.828125 Z M 33.085938 67.871094 L 33.085938 71.386719 L 29.101562 71.386719 C 29.179688 70.761719 29.21875 70.078125 29.238281 69.316406 L 29.238281 67.871094 Z M 33.085938 72.421875 L 33.085938 77.675781 L 34.199219 77.675781 L 34.199219 72.421875 L 37.734375 72.421875 L 37.734375 71.386719 L 34.199219 71.386719 L 34.199219 67.871094 L 37.148438 67.871094 L 37.148438 66.835938 L 33.789062 66.835938 C 34.296875 66.074219 34.746094 65.214844 35.175781 64.257812 L 34.023438 63.828125 C 33.59375 64.902344 33.125 65.898438 32.558594 66.835938 L 24.980469 66.835938 L 24.980469 67.871094 L 28.144531 67.871094 L 28.144531 69.316406 C 28.125 70.058594 28.085938 70.742188 27.988281 71.386719 L 24.355469 71.386719 L 24.355469 72.421875 L 27.832031 72.421875 C 27.714844 73.007812 27.539062 73.535156 27.34375 74.023438 C 26.796875 75.175781 25.839844 76.113281 24.492188 76.796875 L 25.117188 77.792969 C 26.542969 77.089844 27.578125 76.09375 28.203125 74.824219 C 28.515625 74.140625 28.769531 73.359375 28.945312 72.421875 Z M 33.085938 72.421875 "/>
<path style=" stroke:none;fill-rule:nonzero;fill:rgb(0%,0%,0%);fill-opacity:1;" d="M 47.558594 69.941406 C 49.101562 69.53125 50.761719 68.90625 52.480469 68.046875 L 51.835938 67.167969 C 50.449219 67.929688 49.023438 68.515625 47.558594 68.925781 L 47.558594 64.179688 L 46.464844 64.179688 L 46.464844 75.820312 C 46.464844 76.816406 46.933594 77.324219 47.890625 77.324219 L 50.722656 77.324219 C 51.269531 77.324219 51.699219 77.148438 51.992188 76.855469 C 52.304688 76.484375 52.539062 75.429688 52.65625 73.691406 L 51.621094 73.359375 C 51.5625 74.882812 51.40625 75.761719 51.171875 76.015625 C 50.976562 76.210938 50.742188 76.289062 50.46875 76.289062 L 48.203125 76.289062 C 47.753906 76.289062 47.558594 76.074219 47.558594 75.644531 Z M 40.371094 77.519531 C 42.246094 77.109375 44.042969 76.640625 45.683594 76.113281 L 45.410156 75.097656 C 44.101562 75.527344 42.792969 75.898438 41.484375 76.210938 L 41.484375 69.492188 L 45.332031 69.492188 L 45.332031 68.4375 L 41.484375 68.4375 L 41.484375 64.257812 L 40.390625 64.257812 L 40.390625 75.878906 C 40.390625 76.152344 40.273438 76.367188 40.039062 76.523438 Z M 40.371094 77.519531 "/>
<path style=" stroke:none;fill-rule:nonzero;fill:rgb(0%,0%,0%);fill-opacity:1;" d="M 65.632812 69.941406 L 58.542969 69.941406 L 58.542969 68.710938 L 65.632812 68.710938 Z M 65.632812 73.203125 L 58.542969 73.203125 L 58.542969 71.972656 L 65.632812 71.972656 Z M 65.632812 73.203125 "/>
<path style="fill-rule:nonzero;fill:rgb(40%,74.901961%,100%);fill-opacity:1;stroke-width:1;stroke-linecap:round;stroke-linejoin:round;stroke:rgb(0%,0%,0%);stroke-opacity:1;stroke-miterlimit:10;" d="M 261 162 L 261 171 L 351 171 L 351 135 L 333 135 L 333 126 L 243 126 L 243 162 Z M 261 162 " transform="matrix(1.25,0,0,1.25,-215,-77.5)"/>
<path style=" stroke:none;fill-rule:nonzero;fill:rgb(0%,0%,0%);fill-opacity:1;" d="M 144.003906 103.964844 L 138.75 103.964844 L 138.75 113.632812 L 139.53125 113.632812 L 139.53125 112.929688 L 143.222656 112.929688 L 143.222656 113.632812 L 144.003906 113.632812 Z M 139.53125 112.167969 L 139.53125 110.175781 L 143.222656 110.175781 L 143.222656 112.167969 Z M 139.53125 109.414062 L 139.53125 107.421875 L 143.222656 107.421875 L 143.222656 109.414062 Z M 139.53125 106.679688 L 139.53125 104.746094 L 143.222656 104.746094 L 143.222656 106.679688 Z M 136.777344 107.734375 C 137.089844 108.164062 137.460938 108.691406 137.890625 109.355469 L 138.320312 108.691406 C 137.8125 108.027344 137.285156 107.421875 136.777344 106.894531 L 136.777344 106.289062 L 138.222656 106.289062 L 138.222656 105.507812 L 136.777344 105.507812 L 136.777344 103.320312 L 135.976562 103.320312 L 135.976562 105.507812 L 134.394531 105.507812 L 134.394531 106.289062 L 135.957031 106.289062 C 135.585938 107.695312 135.019531 108.945312 134.179688 110.039062 L 134.511719 110.839844 C 135.117188 109.960938 135.585938 108.984375 135.976562 107.910156 L 135.976562 113.613281 L 136.777344 113.613281 Z M 136.777344 107.734375 "/>
<path style=" stroke:none;fill-rule:nonzero;fill:rgb(0%,0%,0%);fill-opacity:1;" d="M 148.417969 103.183594 L 147.675781 103.554688 C 148.046875 104.082031 148.417969 104.707031 148.75 105.410156 L 149.472656 105.039062 C 149.140625 104.375 148.789062 103.75 148.417969 103.183594 Z M 152.167969 106.210938 L 152.167969 108.847656 L 149.179688 108.847656 C 149.238281 108.378906 149.257812 107.871094 149.277344 107.304688 L 149.277344 106.210938 Z M 152.167969 109.628906 L 152.167969 113.574219 L 153.007812 113.574219 L 153.007812 109.628906 L 155.644531 109.628906 L 155.644531 108.847656 L 153.007812 108.847656 L 153.007812 106.210938 L 155.195312 106.210938 L 155.195312 105.429688 L 152.675781 105.429688 C 153.066406 104.863281 153.417969 104.21875 153.730469 103.496094 L 152.871094 103.183594 C 152.539062 103.984375 152.1875 104.746094 151.757812 105.429688 L 146.074219 105.429688 L 146.074219 106.210938 L 148.457031 106.210938 L 148.457031 107.304688 C 148.4375 107.851562 148.417969 108.378906 148.339844 108.847656 L 145.625 108.847656 L 145.625 109.628906 L 148.222656 109.628906 C 148.125 110.078125 148.007812 110.46875 147.851562 110.820312 C 147.460938 111.699219 146.738281 112.402344 145.722656 112.910156 L 146.191406 113.652344 C 147.265625 113.125 148.027344 112.382812 148.496094 111.425781 C 148.730469 110.917969 148.925781 110.332031 149.0625 109.628906 Z M 152.167969 109.628906 "/>
<path style=" stroke:none;fill-rule:nonzero;fill:rgb(0%,0%,0%);fill-opacity:1;" d="M 156.875 103.75 L 156.875 104.550781 L 161.542969 104.550781 C 161.464844 105.039062 161.308594 105.507812 161.132812 105.976562 L 157.519531 105.976562 L 157.519531 113.652344 L 158.28125 113.652344 L 158.28125 113.105469 L 165.488281 113.105469 L 165.488281 113.652344 L 166.269531 113.652344 L 166.269531 105.976562 L 161.953125 105.976562 C 162.128906 105.527344 162.285156 105.039062 162.363281 104.550781 L 166.875 104.550781 L 166.875 103.75 Z M 158.28125 112.363281 L 158.28125 106.71875 L 159.84375 106.71875 L 159.84375 112.363281 Z M 160.585938 112.363281 L 160.585938 110.917969 L 163.164062 110.917969 L 163.164062 112.363281 Z M 163.90625 112.363281 L 163.90625 106.71875 L 165.488281 106.71875 L 165.488281 112.363281 Z M 160.585938 110.195312 L 160.585938 108.828125 L 163.164062 108.828125 L 163.164062 110.195312 Z M 160.585938 108.105469 L 160.585938 106.71875 L 163.164062 106.71875 L 163.164062 108.105469 Z M 160.585938 108.105469 "/>
<path style=" stroke:none;fill-rule:nonzero;fill:rgb(0%,0%,0%);fill-opacity:1;" d="M 168.359375 105.039062 C 168.90625 104.980469 169.414062 104.882812 169.902344 104.785156 L 169.902344 106.386719 L 168.242188 106.386719 L 168.242188 107.167969 L 169.863281 107.167969 C 169.472656 108.476562 168.808594 109.628906 167.910156 110.644531 L 168.242188 111.484375 C 168.925781 110.605469 169.472656 109.589844 169.902344 108.496094 L 169.902344 113.574219 L 170.664062 113.574219 L 170.664062 108.4375 C 170.996094 108.886719 171.386719 109.511719 171.855469 110.292969 L 172.304688 109.628906 C 171.738281 108.925781 171.210938 108.300781 170.664062 107.734375 L 170.664062 107.167969 L 172.050781 107.167969 L 172.050781 106.386719 L 170.664062 106.386719 L 170.664062 104.609375 C 171.132812 104.492188 171.582031 104.375 171.992188 104.21875 L 171.699219 103.457031 C 170.703125 103.867188 169.53125 104.121094 168.203125 104.257812 Z M 172.714844 103.984375 L 172.714844 109.21875 L 177.578125 109.21875 L 177.578125 103.984375 Z M 176.777344 108.457031 L 173.535156 108.457031 L 173.535156 104.765625 L 176.777344 104.765625 Z M 173.691406 109.941406 C 173.183594 111.191406 172.558594 112.265625 171.835938 113.164062 L 172.519531 113.652344 C 173.242188 112.695312 173.886719 111.582031 174.414062 110.292969 Z M 176.445312 109.882812 L 175.800781 110.292969 C 176.582031 111.503906 177.226562 112.617188 177.695312 113.632812 L 178.378906 113.144531 C 177.929688 112.226562 177.285156 111.132812 176.445312 109.882812 Z M 176.445312 109.882812 "/>
<path style="fill:none;stroke-width:1;stroke-linecap:round;stroke-linejoin:round;stroke:rgb(0%,0%,0%);stroke-opacity:1;stroke-miterlimit:10;" d="M 234 117 L 360 117 " transform="matrix(1.25,0,0,1.25,-215,-77.5)"/>
</g>
</svg>
