<?xml version="1.0" encoding="UTF-8"?>
<svg xmlns="http://www.w3.org/2000/svg" xmlns:xlink="http://www.w3.org/1999/xlink" width="380pt" height="184pt" viewBox="0 0 380 184" version="1.1">
<defs>
<clipPath id="clip1">
  <path d="M 15 88.28125 L 20.9375 88.28125 L 20.9375 94 L 15 94 Z M 15 88.28125 "/>
</clipPath>
<clipPath id="clip2">
  <path d="M 358.125 88.28125 L 364 88.28125 L 364 94 L 358.125 94 Z M 358.125 88.28125 "/>
</clipPath>
</defs>
<g id="surface1">
<path style="fill:none;stroke-width:1;stroke-linecap:round;stroke-linejoin:round;stroke:rgb(0%,0%,0%);stroke-opacity:1;stroke-miterlimit:10;" d="M 471.4 271.253125 L 549 271.253125 L 549 289.253125 L 471.4 289.253125 Z M 471.4 271.253125 " transform="matrix(1.25,0,0,1.25,-556.25,-215)"/>
<path style=" stroke:none;fill-rule:nonzero;fill:rgb(0%,0%,0%);fill-opacity:1;" d="M 65.367188 134.558594 L 65.367188 135.28125 L 66.226562 135.28125 L 66.226562 140.710938 L 67.007812 140.710938 L 67.007812 140.105469 L 69.527344 140.105469 L 69.527344 135.28125 L 70.367188 135.28125 L 70.367188 134.558594 L 69.527344 134.558594 L 69.527344 133.445312 L 68.746094 133.445312 L 68.746094 134.558594 L 67.007812 134.558594 L 67.007812 133.425781 L 66.226562 133.425781 L 66.226562 134.558594 Z M 67.007812 139.363281 L 67.007812 137.644531 L 68.746094 137.644531 L 68.746094 139.363281 Z M 68.746094 136.921875 L 67.007812 136.921875 L 67.007812 135.28125 L 68.746094 135.28125 Z M 69.859375 130.554688 L 69.859375 132.136719 L 66.929688 132.136719 L 66.929688 130.925781 L 66.109375 130.925781 L 66.109375 132.859375 L 74.351562 132.859375 L 74.351562 130.90625 L 73.53125 130.90625 L 73.53125 132.136719 L 70.679688 132.136719 L 70.679688 130.554688 Z M 71.363281 133.171875 C 71.1875 134.65625 70.757812 135.828125 70.113281 136.648438 L 70.738281 137.078125 C 71.148438 136.570312 71.480469 135.90625 71.714844 135.105469 L 74.097656 135.105469 C 73.960938 135.730469 73.765625 136.296875 73.550781 136.804688 L 74.253906 137 C 74.507812 136.316406 74.722656 135.59375 74.898438 134.871094 L 74.898438 134.382812 L 71.910156 134.382812 C 71.988281 134.050781 72.066406 133.679688 72.125 133.289062 Z M 72.183594 135.671875 C 72.183594 136.707031 72.066406 137.566406 71.832031 138.230469 C 71.519531 139.011719 70.875 139.675781 69.898438 140.203125 L 70.386719 140.828125 C 71.519531 140.183594 72.261719 139.382812 72.574219 138.40625 L 72.59375 138.328125 C 73.121094 139.324219 73.921875 140.164062 74.957031 140.828125 L 75.464844 140.222656 C 74.214844 139.5 73.335938 138.523438 72.808594 137.292969 C 72.886719 136.785156 72.925781 136.257812 72.925781 135.671875 Z M 72.183594 135.671875 "/>
<path style=" stroke:none;fill-rule:nonzero;fill:rgb(0%,0%,0%);fill-opacity:1;" d="M 81.011719 133.113281 C 80.289062 136.101562 78.726562 138.40625 76.304688 139.96875 L 76.792969 140.671875 C 79.15625 139.128906 80.71875 136.921875 81.460938 134.050781 C 81.519531 134.1875 81.558594 134.34375 81.636719 134.539062 C 82.789062 137.507812 84.273438 139.558594 86.109375 140.652344 L 86.617188 140.007812 C 84.820312 138.894531 83.414062 136.980469 82.359375 134.304688 C 81.675781 132.46875 80.816406 131.199219 79.820312 130.496094 L 79.15625 130.925781 C 79.859375 131.453125 80.484375 132.175781 81.011719 133.113281 Z M 81.011719 133.113281 "/>
<path style=" stroke:none;fill-rule:nonzero;fill:rgb(0%,0%,0%);fill-opacity:1;" d="M 90.777344 134.8125 L 90.777344 135.535156 L 96.871094 135.535156 L 96.871094 134.8125 Z M 89.976562 136.648438 L 89.976562 137.390625 L 92.4375 137.390625 C 91.65625 138.660156 90.992188 139.441406 90.503906 139.734375 C 90.445312 139.753906 90.40625 139.792969 90.328125 139.8125 L 90.503906 140.496094 C 92.632812 140.359375 94.585938 140.164062 96.363281 139.929688 C 96.597656 140.203125 96.792969 140.496094 96.988281 140.789062 L 97.632812 140.339844 C 97.144531 139.617188 96.421875 138.757812 95.503906 137.78125 L 94.898438 138.152344 C 95.230469 138.542969 95.5625 138.914062 95.875 139.285156 C 94.429688 139.5 92.964844 139.65625 91.480469 139.753906 C 92.007812 139.285156 92.613281 138.484375 93.296875 137.390625 L 97.613281 137.390625 L 97.613281 136.648438 Z M 96.246094 131.707031 L 96.246094 133.015625 L 89.625 133.015625 L 89.625 131.707031 Z M 89.625 133.738281 L 97.027344 133.738281 L 97.027344 130.945312 L 88.84375 130.945312 L 88.84375 134.675781 C 88.824219 136.941406 88.433594 138.777344 87.652344 140.203125 L 88.238281 140.75 C 89.15625 139.050781 89.625 137.019531 89.625 134.675781 Z M 89.625 133.738281 "/>
<path style=" stroke:none;fill-rule:nonzero;fill:rgb(0%,0%,0%);fill-opacity:1;" d="M 77.164062 168.035156 L 76.617188 168.5625 C 77.476562 169.1875 78.140625 169.773438 78.648438 170.300781 L 79.195312 169.753906 C 78.648438 169.1875 77.964844 168.621094 77.164062 168.035156 Z M 76.96875 170.789062 L 76.421875 171.316406 C 77.222656 171.921875 77.847656 172.46875 78.296875 173.015625 L 78.84375 172.449219 C 78.335938 171.902344 77.710938 171.355469 76.96875 170.789062 Z M 78.277344 173.835938 C 77.789062 175.164062 77.222656 176.472656 76.539062 177.761719 L 77.300781 178.09375 C 77.90625 176.84375 78.472656 175.515625 78.960938 174.089844 Z M 81.285156 170.046875 L 81.285156 173.992188 L 83.21875 173.992188 L 83.21875 176.980469 C 83.21875 177.273438 83.082031 177.410156 82.828125 177.410156 C 82.554688 177.410156 82.28125 177.390625 81.988281 177.351562 L 82.144531 178.09375 L 83.101562 178.09375 C 83.6875 178.09375 83.980469 177.78125 83.980469 177.175781 L 83.980469 173.992188 L 85.855469 173.992188 L 85.855469 170.046875 L 83.667969 170.046875 C 83.785156 169.714844 83.882812 169.363281 83.960938 168.992188 L 86.441406 168.992188 L 86.441406 168.25 L 79.703125 168.25 L 79.703125 172.273438 C 79.664062 174.539062 79.292969 176.296875 78.589844 177.566406 L 79.195312 178.113281 C 80.015625 176.648438 80.445312 174.695312 80.484375 172.273438 L 80.484375 168.992188 L 83.199219 168.992188 C 83.121094 169.34375 83.023438 169.695312 82.886719 170.046875 Z M 85.132812 173.347656 L 82.007812 173.347656 L 82.007812 172.332031 L 85.132812 172.332031 Z M 82.007812 171.726562 L 82.007812 170.691406 L 85.132812 170.691406 L 85.132812 171.726562 Z M 81.558594 174.792969 C 81.324219 175.652344 80.953125 176.433594 80.425781 177.136719 L 81.070312 177.546875 C 81.597656 176.804688 81.988281 175.945312 82.28125 174.949219 Z M 85.386719 174.734375 L 84.722656 174.96875 C 85.152344 175.710938 85.542969 176.570312 85.914062 177.527344 L 86.597656 177.234375 C 86.265625 176.355469 85.855469 175.515625 85.386719 174.734375 Z M 85.386719 174.734375 "/>
<path style="fill:none;stroke-width:1;stroke-linecap:round;stroke-linejoin:round;stroke:rgb(0%,0%,0%);stroke-opacity:1;stroke-miterlimit:10;" d="M 510.2 301.6 L 510.2 295.15625 " transform="matrix(1.25,0,0,1.25,-556.25,-215)"/>
<path style="fill:none;stroke-width:1;stroke-linecap:butt;stroke-linejoin:miter;stroke:rgb(0%,0%,0%);stroke-opacity:1;stroke-miterlimit:10;" d="M 510.2 291.15625 L 510.2 295.15625 M 508.7 295.15625 L 510.2 291.15625 L 511.7 295.15625 " transform="matrix(1.25,0,0,1.25,-556.25,-215)"/>
<path style=" stroke:none;fill-rule:nonzero;fill:rgb(0%,0%,0%);fill-opacity:1;" d="M 287.304688 16.394531 L 288.632812 16.394531 L 288.632812 17.761719 L 286.191406 17.761719 L 286.191406 18.484375 L 288.632812 18.484375 L 288.632812 20.691406 L 289.414062 20.691406 L 289.414062 18.484375 L 291.328125 18.484375 L 291.328125 17.761719 L 289.414062 17.761719 L 289.414062 16.394531 L 291.09375 16.394531 L 291.09375 15.652344 L 289.414062 15.652344 L 289.414062 14.617188 L 288.632812 14.617188 L 288.632812 15.652344 L 287.597656 15.652344 C 287.675781 15.398438 287.734375 15.125 287.792969 14.8125 L 287.128906 14.695312 C 286.953125 15.59375 286.640625 16.296875 286.132812 16.84375 L 286.601562 17.410156 C 286.875 17.117188 287.109375 16.785156 287.304688 16.394531 Z M 287.773438 11.746094 C 287.695312 12.117188 287.558594 12.449219 287.402344 12.742188 C 287.148438 13.132812 286.757812 13.503906 286.269531 13.796875 L 286.738281 14.402344 C 287.304688 14.03125 287.753906 13.582031 288.046875 13.113281 C 288.261719 12.722656 288.417969 12.253906 288.535156 11.746094 L 290.195312 11.746094 C 290.15625 12.546875 290.117188 13.054688 290.058594 13.25 C 289.980469 13.445312 289.785156 13.542969 289.472656 13.5625 C 289.199219 13.542969 288.886719 13.523438 288.496094 13.503906 L 288.691406 14.167969 C 289.042969 14.1875 289.375 14.226562 289.628906 14.226562 C 290.117188 14.226562 290.449219 14.050781 290.664062 13.777344 C 290.859375 13.464844 290.957031 12.546875 290.957031 11.023438 L 286.269531 11.023438 L 286.269531 11.746094 Z M 282.460938 15.808594 L 283.476562 15.808594 L 283.476562 17.273438 L 282.441406 17.273438 C 282.441406 17.195312 282.460938 17.117188 282.460938 17.019531 Z M 282.421875 17.957031 L 283.476562 17.957031 L 283.476562 20.515625 L 284.140625 20.515625 L 284.140625 17.957031 L 285.175781 17.957031 L 285.175781 19.519531 C 285.175781 19.792969 285.058594 19.949219 284.804688 19.949219 C 284.628906 19.949219 284.433594 19.929688 284.21875 19.890625 L 284.414062 20.574219 L 285.039062 20.574219 C 285.585938 20.574219 285.859375 20.300781 285.859375 19.773438 L 285.859375 13.015625 L 284.511719 13.015625 C 284.765625 12.683594 285.019531 12.253906 285.273438 11.746094 L 285.273438 11.199219 L 283.261719 11.199219 C 283.359375 10.964844 283.457031 10.710938 283.554688 10.476562 L 282.8125 10.300781 C 282.382812 11.472656 281.835938 12.410156 281.152344 13.132812 L 281.640625 13.738281 C 281.679688 13.679688 281.71875 13.660156 281.757812 13.601562 L 281.757812 17.058594 C 281.757812 18.347656 281.523438 19.421875 281.09375 20.242188 L 281.640625 20.75 C 282.050781 20.007812 282.304688 19.070312 282.421875 17.957031 Z M 283.691406 13.015625 L 282.226562 13.015625 C 282.480469 12.664062 282.734375 12.273438 282.949219 11.863281 L 284.414062 11.863281 C 284.160156 12.292969 283.925781 12.683594 283.691406 13.015625 Z M 285.175781 17.273438 L 284.140625 17.273438 L 284.140625 15.808594 L 285.175781 15.808594 Z M 285.175781 15.125 L 284.140625 15.125 L 284.140625 13.71875 L 285.175781 13.71875 Z M 283.476562 13.71875 L 283.476562 15.125 L 282.460938 15.125 L 282.460938 13.71875 Z M 283.476562 13.71875 "/>
<path style=" stroke:none;fill-rule:nonzero;fill:rgb(0%,0%,0%);fill-opacity:1;" d="M 296.132812 14.304688 L 294.0625 14.304688 C 294.355469 13.503906 294.570312 12.664062 294.726562 11.765625 L 296.425781 11.765625 L 296.425781 10.984375 L 292.578125 10.984375 L 292.578125 11.765625 L 293.964844 11.765625 C 293.691406 13.445312 293.125 14.929688 292.265625 16.238281 L 292.675781 16.902344 C 292.949219 16.511719 293.183594 16.121094 293.417969 15.710938 L 293.417969 20.300781 L 294.179688 20.300781 L 294.179688 19.441406 L 295.390625 19.441406 L 295.390625 20.085938 L 296.132812 20.085938 Z M 294.179688 18.699219 L 294.179688 15.046875 L 295.390625 15.046875 L 295.390625 18.699219 Z M 297.636719 12.371094 L 297.03125 16.023438 L 301.582031 16.023438 C 301.582031 17.820312 301.484375 18.914062 301.308594 19.285156 C 301.152344 19.65625 300.625 19.851562 299.765625 19.851562 C 299.550781 19.851562 299.21875 19.8125 298.710938 19.773438 L 298.945312 20.554688 C 299.296875 20.59375 299.628906 20.59375 299.960938 20.59375 C 300.9375 20.59375 301.582031 20.378906 301.894531 19.96875 C 302.1875 19.558594 302.34375 17.996094 302.34375 15.261719 L 301.152344 15.261719 L 301.777344 10.828125 L 296.933594 10.828125 L 296.933594 11.589844 L 300.898438 11.589844 L 300.332031 15.261719 L 297.949219 15.261719 L 298.4375 12.429688 Z M 296.699219 17.449219 L 296.699219 18.210938 L 300.800781 18.210938 L 300.800781 17.449219 Z M 296.699219 17.449219 "/>
<path style=" stroke:none;fill-rule:nonzero;fill:rgb(0%,0%,0%);fill-opacity:1;" d="M 304.707031 10.769531 L 304.707031 13.503906 L 308.125 13.503906 L 308.125 10.769531 Z M 307.382812 12.820312 L 305.429688 12.820312 L 305.429688 11.472656 L 307.382812 11.472656 Z M 309.375 10.769531 L 309.375 13.503906 L 312.871094 13.503906 L 312.871094 10.769531 Z M 312.148438 12.820312 L 310.117188 12.820312 L 310.117188 11.472656 L 312.148438 11.472656 Z M 303.789062 14.636719 L 303.789062 15.359375 L 306.894531 15.359375 C 306.113281 16.023438 305 16.589844 303.554688 17 L 303.925781 17.664062 C 304.257812 17.566406 304.550781 17.46875 304.863281 17.351562 L 304.863281 20.671875 L 305.566406 20.671875 L 305.566406 20.183594 L 307.480469 20.183594 L 307.480469 20.671875 L 308.203125 20.671875 L 308.203125 17.136719 L 305.390625 17.136719 C 306.445312 16.667969 307.285156 16.082031 307.910156 15.359375 L 309.824219 15.359375 C 310.390625 16.042969 311.210938 16.628906 312.285156 17.136719 L 309.296875 17.136719 L 309.296875 20.671875 L 310.019531 20.671875 L 310.019531 20.183594 L 312.109375 20.183594 L 312.109375 20.671875 L 312.832031 20.671875 L 312.832031 17.371094 C 313.085938 17.449219 313.339844 17.566406 313.613281 17.644531 L 313.945312 16.960938 C 312.5 16.570312 311.40625 16.023438 310.664062 15.359375 L 313.710938 15.359375 L 313.710938 14.636719 L 312.167969 14.636719 C 311.972656 14.285156 311.777344 13.953125 311.542969 13.640625 L 310.859375 13.875 C 311.035156 14.089844 311.210938 14.34375 311.367188 14.636719 L 308.457031 14.636719 C 308.613281 14.363281 308.769531 14.089844 308.867188 13.796875 L 308.105469 13.71875 C 307.96875 14.03125 307.792969 14.34375 307.578125 14.636719 Z M 305.566406 19.5 L 305.566406 17.800781 L 307.480469 17.800781 L 307.480469 19.5 Z M 310.019531 19.5 L 310.019531 17.800781 L 312.109375 17.800781 L 312.109375 19.5 Z M 310.019531 19.5 "/>
<path style=" stroke:none;fill-rule:nonzero;fill:rgb(0%,0%,0%);fill-opacity:1;" d="M 11.425781 93.066406 C 11.347656 93.164062 11.269531 93.261719 11.191406 93.359375 C 10.859375 93.769531 10.664062 93.945312 10.507812 93.945312 C 10.371094 93.945312 10.332031 93.847656 10.332031 93.75 C 10.332031 93.652344 10.371094 93.457031 10.488281 93.066406 L 11.113281 90.78125 C 11.171875 90.546875 11.230469 90.292969 11.230469 90.097656 C 11.230469 89.6875 10.976562 89.414062 10.488281 89.414062 C 9.765625 89.414062 9.023438 90.097656 7.890625 91.894531 L 8.652344 89.433594 L 8.59375 89.414062 C 8.007812 89.53125 7.695312 89.589844 6.777344 89.765625 L 6.777344 89.941406 C 7.34375 89.960938 7.519531 90.019531 7.519531 90.253906 C 7.519531 90.3125 7.5 90.390625 7.480469 90.429688 L 6.40625 94.375 L 7.246094 94.375 C 7.773438 92.597656 7.871094 92.34375 8.378906 91.582031 C 9.082031 90.546875 9.589844 89.980469 10.039062 89.980469 C 10.214844 89.980469 10.3125 90.117188 10.3125 90.3125 C 10.3125 90.449219 10.234375 90.859375 10.15625 91.210938 L 9.667969 93.027344 C 9.492188 93.613281 9.472656 93.75 9.472656 93.867188 C 9.472656 94.296875 9.726562 94.472656 10 94.472656 C 10.527344 94.472656 10.820312 94.257812 11.582031 93.203125 Z M 11.425781 93.066406 "/>
<g clip-path="url(#clip1)" clip-rule="nonzero">
<path style=" stroke:none;fill-rule:nonzero;fill:rgb(0%,0%,0%);fill-opacity:1;" d="M 18.265625 91.234375 L 20.492188 89.007812 C 20.609375 88.871094 20.648438 88.851562 20.648438 88.773438 C 20.648438 88.636719 20.53125 88.539062 20.414062 88.539062 C 20.335938 88.539062 20.277344 88.578125 20.179688 88.695312 L 17.933594 90.921875 L 15.6875 88.695312 C 15.570312 88.558594 15.53125 88.539062 15.453125 88.539062 C 15.335938 88.539062 15.21875 88.636719 15.21875 88.773438 C 15.21875 88.851562 15.277344 88.910156 15.375 89.007812 L 17.601562 91.234375 L 15.375 93.480469 C 15.257812 93.578125 15.21875 93.65625 15.21875 93.714844 C 15.21875 93.851562 15.335938 93.949219 15.453125 93.949219 C 15.53125 93.949219 15.570312 93.929688 15.6875 93.792969 L 17.933594 91.566406 L 20.179688 93.792969 C 20.277344 93.910156 20.355469 93.949219 20.414062 93.949219 C 20.550781 93.949219 20.648438 93.851562 20.648438 93.714844 C 20.648438 93.636719 20.609375 93.617188 20.492188 93.480469 Z M 18.265625 91.234375 "/>
<path style=" stroke:none;fill-rule:nonzero;fill:rgb(0%,0%,0%);fill-opacity:1;" d="M 18.265625 91.234375 L 20.492188 89.007812 C 20.609375 88.871094 20.648438 88.851562 20.648438 88.773438 C 20.648438 88.636719 20.53125 88.539062 20.414062 88.539062 C 20.335938 88.539062 20.277344 88.578125 20.179688 88.695312 L 17.933594 90.921875 L 15.6875 88.695312 C 15.570312 88.558594 15.53125 88.539062 15.453125 88.539062 C 15.335938 88.539062 15.21875 88.636719 15.21875 88.773438 C 15.21875 88.851562 15.277344 88.910156 15.375 89.007812 L 17.601562 91.234375 L 15.375 93.480469 C 15.257812 93.578125 15.21875 93.65625 15.21875 93.714844 C 15.21875 93.851562 15.335938 93.949219 15.453125 93.949219 C 15.53125 93.949219 15.570312 93.929688 15.6875 93.792969 L 17.933594 91.566406 L 20.179688 93.792969 C 20.277344 93.910156 20.355469 93.949219 20.414062 93.949219 C 20.550781 93.949219 20.648438 93.851562 20.648438 93.714844 C 20.648438 93.636719 20.609375 93.617188 20.492188 93.480469 Z M 18.265625 91.234375 "/>
</g>
<path style="fill:none;stroke-width:1;stroke-linecap:round;stroke-linejoin:round;stroke:rgb(0%,0%,0%);stroke-opacity:1;stroke-miterlimit:10;" d="M 644.2 271.253125 L 721.8 271.253125 L 721.8 289.253125 L 644.2 289.253125 Z M 644.2 271.253125 " transform="matrix(1.25,0,0,1.25,-556.25,-215)"/>
<path style=" stroke:none;fill-rule:nonzero;fill:rgb(0%,0%,0%);fill-opacity:1;" d="M 281.367188 134.558594 L 281.367188 135.28125 L 282.226562 135.28125 L 282.226562 140.710938 L 283.007812 140.710938 L 283.007812 140.105469 L 285.527344 140.105469 L 285.527344 135.28125 L 286.367188 135.28125 L 286.367188 134.558594 L 285.527344 134.558594 L 285.527344 133.445312 L 284.746094 133.445312 L 284.746094 134.558594 L 283.007812 134.558594 L 283.007812 133.425781 L 282.226562 133.425781 L 282.226562 134.558594 Z M 283.007812 139.363281 L 283.007812 137.644531 L 284.746094 137.644531 L 284.746094 139.363281 Z M 284.746094 136.921875 L 283.007812 136.921875 L 283.007812 135.28125 L 284.746094 135.28125 Z M 285.859375 130.554688 L 285.859375 132.136719 L 282.929688 132.136719 L 282.929688 130.925781 L 282.109375 130.925781 L 282.109375 132.859375 L 290.351562 132.859375 L 290.351562 130.90625 L 289.53125 130.90625 L 289.53125 132.136719 L 286.679688 132.136719 L 286.679688 130.554688 Z M 287.363281 133.171875 C 287.1875 134.65625 286.757812 135.828125 286.113281 136.648438 L 286.738281 137.078125 C 287.148438 136.570312 287.480469 135.90625 287.714844 135.105469 L 290.097656 135.105469 C 289.960938 135.730469 289.765625 136.296875 289.550781 136.804688 L 290.253906 137 C 290.507812 136.316406 290.722656 135.59375 290.898438 134.871094 L 290.898438 134.382812 L 287.910156 134.382812 C 287.988281 134.050781 288.066406 133.679688 288.125 133.289062 Z M 288.183594 135.671875 C 288.183594 136.707031 288.066406 137.566406 287.832031 138.230469 C 287.519531 139.011719 286.875 139.675781 285.898438 140.203125 L 286.386719 140.828125 C 287.519531 140.183594 288.261719 139.382812 288.574219 138.40625 L 288.59375 138.328125 C 289.121094 139.324219 289.921875 140.164062 290.957031 140.828125 L 291.464844 140.222656 C 290.214844 139.5 289.335938 138.523438 288.808594 137.292969 C 288.886719 136.785156 288.925781 136.257812 288.925781 135.671875 Z M 288.183594 135.671875 "/>
<path style=" stroke:none;fill-rule:nonzero;fill:rgb(0%,0%,0%);fill-opacity:1;" d="M 297.011719 133.113281 C 296.289062 136.101562 294.726562 138.40625 292.304688 139.96875 L 292.792969 140.671875 C 295.15625 139.128906 296.71875 136.921875 297.460938 134.050781 C 297.519531 134.1875 297.558594 134.34375 297.636719 134.539062 C 298.789062 137.507812 300.273438 139.558594 302.109375 140.652344 L 302.617188 140.007812 C 300.820312 138.894531 299.414062 136.980469 298.359375 134.304688 C 297.675781 132.46875 296.816406 131.199219 295.820312 130.496094 L 295.15625 130.925781 C 295.859375 131.453125 296.484375 132.175781 297.011719 133.113281 Z M 297.011719 133.113281 "/>
<path style=" stroke:none;fill-rule:nonzero;fill:rgb(0%,0%,0%);fill-opacity:1;" d="M 306.777344 134.8125 L 306.777344 135.535156 L 312.871094 135.535156 L 312.871094 134.8125 Z M 305.976562 136.648438 L 305.976562 137.390625 L 308.4375 137.390625 C 307.65625 138.660156 306.992188 139.441406 306.503906 139.734375 C 306.445312 139.753906 306.40625 139.792969 306.328125 139.8125 L 306.503906 140.496094 C 308.632812 140.359375 310.585938 140.164062 312.363281 139.929688 C 312.597656 140.203125 312.792969 140.496094 312.988281 140.789062 L 313.632812 140.339844 C 313.144531 139.617188 312.421875 138.757812 311.503906 137.78125 L 310.898438 138.152344 C 311.230469 138.542969 311.5625 138.914062 311.875 139.285156 C 310.429688 139.5 308.964844 139.65625 307.480469 139.753906 C 308.007812 139.285156 308.613281 138.484375 309.296875 137.390625 L 313.613281 137.390625 L 313.613281 136.648438 Z M 312.246094 131.707031 L 312.246094 133.015625 L 305.625 133.015625 L 305.625 131.707031 Z M 305.625 133.738281 L 313.027344 133.738281 L 313.027344 130.945312 L 304.84375 130.945312 L 304.84375 134.675781 C 304.824219 136.941406 304.433594 138.777344 303.652344 140.203125 L 304.238281 140.75 C 305.15625 139.050781 305.625 137.019531 305.625 134.675781 Z M 305.625 133.738281 "/>
<path style=" stroke:none;fill-rule:nonzero;fill:rgb(0%,0%,0%);fill-opacity:1;" d="M 295.664062 168.367188 L 288.105469 168.367188 L 288.105469 178.132812 L 288.925781 178.132812 L 288.925781 177.390625 L 294.84375 177.390625 L 294.84375 178.113281 L 295.664062 178.113281 Z M 288.925781 176.589844 L 288.925781 174.480469 L 294.84375 174.480469 L 294.84375 176.589844 Z M 288.925781 173.738281 L 288.925781 171.765625 L 294.84375 171.765625 L 294.84375 173.738281 Z M 288.925781 171.023438 L 288.925781 169.148438 L 294.84375 169.148438 L 294.84375 171.023438 Z M 288.925781 171.023438 "/>
<path style=" stroke:none;fill-rule:nonzero;fill:rgb(0%,0%,0%);fill-opacity:1;" d="M 299.648438 167.839844 L 299.648438 169.96875 L 298.28125 169.96875 L 298.28125 170.75 L 299.648438 170.75 C 299.296875 172.15625 298.730469 173.425781 297.910156 174.539062 L 298.261719 175.417969 C 298.828125 174.539062 299.296875 173.5625 299.648438 172.507812 L 299.648438 178.113281 L 300.449219 178.113281 L 300.449219 172.46875 C 300.78125 172.898438 301.171875 173.464844 301.640625 174.167969 L 302.109375 173.484375 C 301.542969 172.800781 300.996094 172.175781 300.449219 171.609375 L 300.449219 170.75 L 301.757812 170.75 L 301.757812 169.96875 L 300.449219 169.96875 L 300.449219 167.839844 Z M 302.96875 172.917969 C 302.65625 174.324219 302.148438 175.574219 301.445312 176.726562 L 302.148438 177.175781 C 302.8125 176.023438 303.359375 174.675781 303.710938 173.09375 Z M 307.03125 172.878906 L 306.308594 173.113281 C 306.738281 174.324219 307.148438 175.710938 307.519531 177.273438 L 308.261719 176.941406 C 307.910156 175.496094 307.519531 174.148438 307.03125 172.878906 Z M 304.511719 177.996094 C 305.175781 177.996094 305.507812 177.664062 305.507812 177 L 305.507812 172 L 308.261719 172 L 308.261719 171.21875 L 301.953125 171.21875 L 301.953125 172 L 304.707031 172 L 304.707031 176.804688 C 304.707031 177.117188 304.550781 177.292969 304.238281 177.292969 C 303.90625 177.292969 303.574219 177.273438 303.222656 177.253906 L 303.378906 177.996094 Z M 302.558594 168.484375 L 302.558594 169.246094 L 307.675781 169.246094 L 307.675781 168.484375 Z M 302.558594 168.484375 "/>
<path style="fill:none;stroke-width:1;stroke-linecap:round;stroke-linejoin:round;stroke:rgb(0%,0%,0%);stroke-opacity:1;stroke-miterlimit:10;" d="M 683 301.6 L 683 295.15625 " transform="matrix(1.25,0,0,1.25,-556.25,-215)"/>
<path style="fill:none;stroke-width:1;stroke-linecap:butt;stroke-linejoin:miter;stroke:rgb(0%,0%,0%);stroke-opacity:1;stroke-miterlimit:10;" d="M 683 291.15625 L 683 295.15625 M 681.5 295.15625 L 683 291.15625 L 684.5 295.15625 " transform="matrix(1.25,0,0,1.25,-556.25,-215)"/>
<path style="fill:none;stroke-width:1;stroke-linecap:round;stroke-linejoin:round;stroke:rgb(0%,0%,0%);stroke-opacity:1;stroke-miterlimit:10;" d="M 644.2 200.4 L 721.8 200.4 L 721.8 218.4 L 644.2 218.4 Z M 644.2 200.4 " transform="matrix(1.25,0,0,1.25,-556.25,-215)"/>
<path style=" stroke:none;fill-rule:nonzero;fill:rgb(0%,0%,0%);fill-opacity:1;" d="M 280.332031 41.964844 C 279.023438 43.390625 277.382812 44.582031 275.410156 45.539062 L 275.800781 46.242188 C 277.792969 45.246094 279.394531 44.054688 280.625 42.707031 C 281.953125 44.132812 283.535156 45.285156 285.410156 46.183594 L 285.820312 45.460938 C 283.964844 44.601562 282.34375 43.449219 280.917969 41.964844 Z M 277.480469 45.519531 L 277.480469 46.300781 L 280.214844 46.300781 L 280.214844 48.253906 L 276.953125 48.253906 L 276.953125 49.035156 L 280.214844 49.035156 L 280.214844 51.105469 L 275.9375 51.105469 L 275.9375 51.90625 L 285.3125 51.90625 L 285.3125 51.105469 L 281.035156 51.105469 L 281.035156 49.035156 L 284.296875 49.035156 L 284.296875 48.253906 L 281.035156 48.253906 L 281.035156 46.300781 L 283.769531 46.300781 L 283.769531 45.519531 Z M 277.480469 45.519531 "/>
<path style=" stroke:none;fill-rule:nonzero;fill:rgb(0%,0%,0%);fill-opacity:1;" d="M 287.695312 42.121094 L 287.148438 42.648438 C 287.929688 43.292969 288.574219 43.878906 289.023438 44.425781 L 289.609375 43.859375 C 289.082031 43.273438 288.4375 42.707031 287.695312 42.121094 Z M 294.21875 52.042969 L 296.796875 52.042969 L 296.992188 51.242188 C 296.699219 51.261719 296.269531 51.261719 295.742188 51.28125 C 295.175781 51.300781 294.648438 51.300781 294.121094 51.300781 C 293.242188 51.300781 292.519531 51.300781 291.933594 51.28125 C 291.269531 51.261719 290.78125 51.164062 290.429688 51.007812 C 290.117188 50.871094 289.84375 50.636719 289.570312 50.304688 C 289.472656 50.207031 289.394531 50.109375 289.296875 50.050781 L 289.296875 45.832031 L 286.933594 45.832031 L 286.933594 46.574219 L 288.554688 46.574219 L 288.554688 49.992188 C 288.085938 50.207031 287.558594 50.773438 286.953125 51.730469 L 287.558594 52.277344 C 288.183594 51.242188 288.632812 50.714844 288.886719 50.714844 C 289.023438 50.714844 289.179688 50.8125 289.316406 51.007812 C 289.667969 51.398438 290.058594 51.691406 290.507812 51.828125 C 290.957031 51.945312 291.523438 52.023438 292.246094 52.023438 C 292.949219 52.042969 293.613281 52.042969 294.21875 52.042969 Z M 290.078125 43.097656 L 290.078125 43.839844 L 291.5625 43.839844 C 291.191406 44.640625 290.78125 45.324219 290.332031 45.851562 L 290.507812 46.59375 L 293.105469 46.59375 L 293.105469 47.941406 L 289.980469 47.941406 L 289.980469 48.703125 L 293.105469 48.703125 L 293.105469 50.792969 L 293.886719 50.792969 L 293.886719 48.703125 L 296.816406 48.703125 L 296.816406 47.941406 L 293.886719 47.941406 L 293.886719 46.59375 L 296.328125 46.59375 L 296.328125 45.851562 L 293.886719 45.851562 L 293.886719 44.523438 L 293.105469 44.523438 L 293.105469 45.851562 L 291.289062 45.851562 C 291.699219 45.265625 292.070312 44.601562 292.421875 43.839844 L 296.679688 43.839844 L 296.679688 43.097656 L 292.734375 43.097656 C 292.871094 42.746094 292.988281 42.414062 293.105469 42.042969 L 292.34375 41.847656 C 292.207031 42.277344 292.050781 42.707031 291.894531 43.097656 Z M 290.078125 43.097656 "/>
<path style=" stroke:none;fill-rule:nonzero;fill:rgb(0%,0%,0%);fill-opacity:1;" d="M 303.457031 43.839844 L 302.792969 44.152344 C 303.027344 44.5625 303.242188 45.011719 303.476562 45.5 L 301.757812 45.5 L 301.757812 46.28125 L 308.027344 46.28125 L 308.027344 45.5 L 306.210938 45.5 C 306.464844 45.050781 306.699219 44.542969 306.914062 43.976562 L 306.152344 43.703125 C 305.917969 44.347656 305.664062 44.933594 305.351562 45.5 L 304.257812 45.5 C 304.003906 44.894531 303.75 44.347656 303.457031 43.839844 Z M 304.941406 41.867188 L 304.101562 42.003906 C 304.21875 42.277344 304.355469 42.589844 304.492188 42.941406 L 302.011719 42.941406 L 302.011719 43.683594 L 307.832031 43.683594 L 307.832031 42.941406 L 305.3125 42.941406 C 305.175781 42.550781 305.058594 42.179688 304.941406 41.867188 Z M 299.316406 52.140625 C 299.980469 52.140625 300.332031 51.828125 300.332031 51.164062 L 300.332031 47.84375 C 300.644531 47.6875 300.957031 47.53125 301.269531 47.375 L 301.269531 46.554688 C 300.957031 46.710938 300.644531 46.867188 300.332031 47.023438 L 300.332031 44.875 L 301.25 44.875 L 301.25 44.09375 L 300.332031 44.09375 L 300.332031 41.964844 L 299.492188 41.964844 L 299.492188 44.09375 L 298.125 44.09375 L 298.125 44.875 L 299.492188 44.875 L 299.492188 47.375 C 298.964844 47.589844 298.4375 47.746094 297.910156 47.882812 L 298.125 48.703125 C 298.574219 48.546875 299.042969 48.371094 299.492188 48.195312 L 299.492188 50.96875 C 299.492188 51.261719 299.335938 51.398438 299.042969 51.398438 C 298.769531 51.398438 298.476562 51.378906 298.183594 51.359375 L 298.339844 52.140625 Z M 303.945312 46.59375 C 303.828125 46.90625 303.691406 47.21875 303.535156 47.550781 L 301.601562 47.550781 L 301.601562 48.351562 L 303.105469 48.351562 C 302.871094 48.78125 302.617188 49.210938 302.304688 49.679688 C 303.085938 49.992188 303.828125 50.285156 304.511719 50.617188 C 303.808594 51.007812 302.792969 51.320312 301.484375 51.554688 L 301.816406 52.296875 C 303.4375 51.984375 304.609375 51.535156 305.351562 51.007812 C 306.25 51.4375 307.03125 51.847656 307.695312 52.257812 L 308.144531 51.613281 C 307.441406 51.203125 306.699219 50.8125 305.917969 50.460938 C 306.445312 49.894531 306.796875 49.171875 306.972656 48.351562 L 308.203125 48.351562 L 308.203125 47.550781 L 304.355469 47.550781 C 304.492188 47.277344 304.609375 46.984375 304.726562 46.671875 Z M 306.210938 48.351562 C 306.035156 49.074219 305.683594 49.660156 305.175781 50.128906 C 304.570312 49.855469 303.945312 49.601562 303.300781 49.347656 C 303.515625 49.035156 303.730469 48.703125 303.925781 48.351562 Z M 306.210938 48.351562 "/>
<path style=" stroke:none;fill-rule:nonzero;fill:rgb(0%,0%,0%);fill-opacity:1;" d="M 312.402344 46.242188 L 312.402344 46.964844 L 318.496094 46.964844 L 318.496094 46.242188 Z M 311.601562 48.078125 L 311.601562 48.820312 L 314.0625 48.820312 C 313.28125 50.089844 312.617188 50.871094 312.128906 51.164062 C 312.070312 51.183594 312.03125 51.222656 311.953125 51.242188 L 312.128906 51.925781 C 314.257812 51.789062 316.210938 51.59375 317.988281 51.359375 C 318.222656 51.632812 318.417969 51.925781 318.613281 52.21875 L 319.257812 51.769531 C 318.769531 51.046875 318.046875 50.1875 317.128906 49.210938 L 316.523438 49.582031 C 316.855469 49.972656 317.1875 50.34375 317.5 50.714844 C 316.054688 50.929688 314.589844 51.085938 313.105469 51.183594 C 313.632812 50.714844 314.238281 49.914062 314.921875 48.820312 L 319.238281 48.820312 L 319.238281 48.078125 Z M 317.871094 43.136719 L 317.871094 44.445312 L 311.25 44.445312 L 311.25 43.136719 Z M 311.25 45.167969 L 318.652344 45.167969 L 318.652344 42.375 L 310.46875 42.375 L 310.46875 46.105469 C 310.449219 48.371094 310.058594 50.207031 309.277344 51.632812 L 309.863281 52.179688 C 310.78125 50.480469 311.25 48.449219 311.25 46.105469 Z M 311.25 45.167969 "/>
<path style=" stroke:none;fill-rule:nonzero;fill:rgb(0%,0%,0%);fill-opacity:1;" d="M 68.023438 18.269531 C 67.222656 18.679688 66.285156 18.992188 65.230469 19.226562 L 65.328125 20.027344 C 66.34375 19.773438 67.242188 19.441406 68.023438 19.03125 Z M 66.871094 10.320312 C 66.460938 11.628906 65.972656 12.78125 65.40625 13.796875 C 65.328125 13.933594 65.210938 14.03125 65.09375 14.089844 L 65.289062 14.8125 C 65.894531 14.714844 66.480469 14.617188 67.085938 14.5 C 66.5 15.535156 66.011719 16.257812 65.621094 16.6875 C 65.523438 16.785156 65.386719 16.863281 65.25 16.921875 L 65.464844 17.644531 C 66.382812 17.507812 67.339844 17.273438 68.355469 16.941406 L 68.355469 16.21875 C 67.710938 16.453125 67.066406 16.628906 66.421875 16.765625 C 67.027344 16.003906 67.808594 14.714844 68.746094 12.898438 L 68.042969 12.625 C 67.847656 13.035156 67.632812 13.425781 67.457031 13.777344 C 66.988281 13.875 66.5 13.953125 66.011719 14.03125 C 66.558594 13.191406 67.105469 12.039062 67.632812 10.613281 Z M 74.234375 20.632812 C 74.742188 20.632812 74.996094 20.359375 74.996094 19.851562 L 74.996094 15.320312 L 69.859375 15.320312 L 69.859375 20.671875 L 70.523438 20.671875 L 70.523438 18.171875 L 71.402344 18.171875 L 71.402344 20.476562 L 72.007812 20.476562 L 72.007812 18.171875 L 72.828125 18.171875 L 72.828125 20.476562 L 73.414062 20.476562 L 73.414062 18.171875 L 74.332031 18.171875 L 74.332031 19.675781 C 74.332031 19.910156 74.214844 20.027344 74.019531 20.027344 L 73.570312 20.007812 L 73.746094 20.632812 Z M 70.523438 17.488281 L 70.523438 16.023438 L 71.402344 16.023438 L 71.402344 17.488281 Z M 72.007812 16.023438 L 72.828125 16.023438 L 72.828125 17.488281 L 72.007812 17.488281 Z M 73.414062 16.023438 L 74.332031 16.023438 L 74.332031 17.488281 L 73.414062 17.488281 Z M 74.214844 12.195312 L 74.214844 13.640625 L 69.820312 13.640625 L 69.820312 12.195312 Z M 69.820312 14.34375 L 74.957031 14.34375 L 74.957031 11.492188 L 72.417969 11.492188 C 72.28125 11.042969 72.144531 10.632812 71.988281 10.300781 L 71.148438 10.417969 C 71.324219 10.75 71.480469 11.101562 71.636719 11.492188 L 69.078125 11.492188 L 69.078125 14.226562 C 69.058594 16.628906 68.609375 18.601562 67.710938 20.144531 L 68.296875 20.652344 C 69.273438 18.894531 69.78125 16.785156 69.820312 14.34375 Z M 69.820312 14.34375 "/>
<path style=" stroke:none;fill-rule:nonzero;fill:rgb(0%,0%,0%);fill-opacity:1;" d="M 80.132812 14.304688 L 78.0625 14.304688 C 78.355469 13.503906 78.570312 12.664062 78.726562 11.765625 L 80.425781 11.765625 L 80.425781 10.984375 L 76.578125 10.984375 L 76.578125 11.765625 L 77.964844 11.765625 C 77.691406 13.445312 77.125 14.929688 76.265625 16.238281 L 76.675781 16.902344 C 76.949219 16.511719 77.183594 16.121094 77.417969 15.710938 L 77.417969 20.300781 L 78.179688 20.300781 L 78.179688 19.441406 L 79.390625 19.441406 L 79.390625 20.085938 L 80.132812 20.085938 Z M 78.179688 18.699219 L 78.179688 15.046875 L 79.390625 15.046875 L 79.390625 18.699219 Z M 81.636719 12.371094 L 81.03125 16.023438 L 85.582031 16.023438 C 85.582031 17.820312 85.484375 18.914062 85.308594 19.285156 C 85.152344 19.65625 84.625 19.851562 83.765625 19.851562 C 83.550781 19.851562 83.21875 19.8125 82.710938 19.773438 L 82.945312 20.554688 C 83.296875 20.59375 83.628906 20.59375 83.960938 20.59375 C 84.9375 20.59375 85.582031 20.378906 85.894531 19.96875 C 86.1875 19.558594 86.34375 17.996094 86.34375 15.261719 L 85.152344 15.261719 L 85.777344 10.828125 L 80.933594 10.828125 L 80.933594 11.589844 L 84.898438 11.589844 L 84.332031 15.261719 L 81.949219 15.261719 L 82.4375 12.429688 Z M 80.699219 17.449219 L 80.699219 18.210938 L 84.800781 18.210938 L 84.800781 17.449219 Z M 80.699219 17.449219 "/>
<path style=" stroke:none;fill-rule:nonzero;fill:rgb(0%,0%,0%);fill-opacity:1;" d="M 88.707031 10.769531 L 88.707031 13.503906 L 92.125 13.503906 L 92.125 10.769531 Z M 91.382812 12.820312 L 89.429688 12.820312 L 89.429688 11.472656 L 91.382812 11.472656 Z M 93.375 10.769531 L 93.375 13.503906 L 96.871094 13.503906 L 96.871094 10.769531 Z M 96.148438 12.820312 L 94.117188 12.820312 L 94.117188 11.472656 L 96.148438 11.472656 Z M 87.789062 14.636719 L 87.789062 15.359375 L 90.894531 15.359375 C 90.113281 16.023438 89 16.589844 87.554688 17 L 87.925781 17.664062 C 88.257812 17.566406 88.550781 17.46875 88.863281 17.351562 L 88.863281 20.671875 L 89.566406 20.671875 L 89.566406 20.183594 L 91.480469 20.183594 L 91.480469 20.671875 L 92.203125 20.671875 L 92.203125 17.136719 L 89.390625 17.136719 C 90.445312 16.667969 91.285156 16.082031 91.910156 15.359375 L 93.824219 15.359375 C 94.390625 16.042969 95.210938 16.628906 96.285156 17.136719 L 93.296875 17.136719 L 93.296875 20.671875 L 94.019531 20.671875 L 94.019531 20.183594 L 96.109375 20.183594 L 96.109375 20.671875 L 96.832031 20.671875 L 96.832031 17.371094 C 97.085938 17.449219 97.339844 17.566406 97.613281 17.644531 L 97.945312 16.960938 C 96.5 16.570312 95.40625 16.023438 94.664062 15.359375 L 97.710938 15.359375 L 97.710938 14.636719 L 96.167969 14.636719 C 95.972656 14.285156 95.777344 13.953125 95.542969 13.640625 L 94.859375 13.875 C 95.035156 14.089844 95.210938 14.34375 95.367188 14.636719 L 92.457031 14.636719 C 92.613281 14.363281 92.769531 14.089844 92.867188 13.796875 L 92.105469 13.71875 C 91.96875 14.03125 91.792969 14.34375 91.578125 14.636719 Z M 89.566406 19.5 L 89.566406 17.800781 L 91.480469 17.800781 L 91.480469 19.5 Z M 94.019531 19.5 L 94.019531 17.800781 L 96.109375 17.800781 L 96.109375 19.5 Z M 94.019531 19.5 "/>
<path style=" stroke:none;fill-rule:nonzero;fill:rgb(40%,74.901961%,100%);fill-opacity:1;" d="M 141 146.566406 L 238.003906 146.566406 L 238.003906 124.066406 L 141 124.066406 Z M 141 146.566406 "/>
<path style="fill:none;stroke-width:1;stroke-linecap:round;stroke-linejoin:round;stroke:rgb(0%,0%,0%);stroke-opacity:1;stroke-miterlimit:10;" d="M 557.8 271.253125 L 635.403125 271.253125 L 635.403125 289.253125 L 557.8 289.253125 Z M 557.8 271.253125 " transform="matrix(1.25,0,0,1.25,-556.25,-215)"/>
<path style=" stroke:none;fill-rule:nonzero;fill:rgb(0%,0%,0%);fill-opacity:1;" d="M 174.089844 130.671875 L 173.523438 131.238281 C 174.34375 131.824219 175.007812 132.390625 175.476562 132.917969 L 176.0625 132.332031 C 175.535156 131.785156 174.871094 131.238281 174.089844 130.671875 Z M 173.816406 133.328125 L 173.25 133.875 C 174.03125 134.480469 174.65625 135.046875 175.105469 135.574219 L 175.671875 134.988281 C 175.183594 134.421875 174.558594 133.875 173.816406 133.328125 Z M 175.242188 136.433594 C 174.734375 137.78125 174.128906 139.089844 173.464844 140.378906 L 174.265625 140.730469 C 174.890625 139.480469 175.457031 138.152344 175.945312 136.726562 Z M 176.492188 132.410156 L 176.492188 133.210938 L 179.421875 133.210938 L 179.421875 135.90625 L 176.804688 135.90625 L 176.804688 136.6875 L 179.421875 136.6875 L 179.421875 139.636719 L 176.21875 139.636719 L 176.21875 140.4375 L 183.367188 140.4375 L 183.367188 139.636719 L 180.242188 139.636719 L 180.242188 136.6875 L 182.839844 136.6875 L 182.839844 135.90625 L 180.242188 135.90625 L 180.242188 133.210938 L 183.152344 133.210938 L 183.152344 132.410156 L 179.792969 132.410156 L 180.261719 132.234375 C 180.085938 131.6875 179.832031 131.101562 179.519531 130.457031 L 178.757812 130.652344 C 179.050781 131.21875 179.304688 131.804688 179.519531 132.410156 Z M 176.492188 132.410156 "/>
<path style=" stroke:none;fill-rule:nonzero;fill:rgb(0%,0%,0%);fill-opacity:1;" d="M 186.960938 131.882812 L 187.3125 132.78125 L 184.617188 132.78125 L 184.617188 133.484375 L 194.382812 133.484375 L 194.382812 132.78125 L 191.589844 132.78125 L 192.019531 131.882812 L 193.855469 131.882812 L 193.855469 131.199219 L 189.890625 131.199219 C 189.773438 130.90625 189.65625 130.632812 189.539062 130.398438 L 188.679688 130.535156 C 188.796875 130.730469 188.894531 130.945312 189.011719 131.199219 L 185.144531 131.199219 L 185.144531 131.882812 Z M 188.152344 132.78125 L 187.800781 131.882812 L 191.179688 131.882812 L 190.730469 132.78125 Z M 185.90625 134.148438 L 185.90625 137.488281 L 193.09375 137.488281 L 193.09375 134.148438 Z M 192.3125 136.84375 L 186.6875 136.84375 L 186.6875 136.101562 L 192.3125 136.101562 Z M 186.6875 135.515625 L 186.6875 134.792969 L 192.3125 134.792969 L 192.3125 135.515625 Z M 185.457031 138.015625 C 185.242188 138.757812 184.890625 139.441406 184.441406 140.046875 L 185.144531 140.496094 C 185.613281 139.832031 185.964844 139.070312 186.238281 138.171875 Z M 191.042969 140.632812 C 191.472656 140.632812 191.765625 140.554688 191.980469 140.417969 C 192.195312 140.242188 192.351562 139.773438 192.429688 138.992188 L 191.667969 138.757812 C 191.628906 139.304688 191.53125 139.65625 191.394531 139.773438 C 191.316406 139.871094 191.140625 139.910156 190.886719 139.910156 L 188.523438 139.910156 C 188.171875 139.910156 187.996094 139.734375 187.996094 139.421875 L 187.996094 138.113281 L 187.15625 138.113281 L 187.15625 139.597656 C 187.15625 140.300781 187.527344 140.632812 188.289062 140.632812 Z M 189.617188 137.683594 L 188.933594 138.113281 C 189.402344 138.601562 189.773438 139.03125 190.046875 139.441406 L 190.710938 138.972656 C 190.476562 138.601562 190.105469 138.171875 189.617188 137.683594 Z M 193.152344 137.898438 L 192.507812 138.308594 C 193.113281 139.050781 193.582031 139.734375 193.953125 140.339844 L 194.617188 139.871094 C 194.285156 139.304688 193.777344 138.660156 193.152344 137.898438 Z M 193.152344 137.898438 "/>
<path style=" stroke:none;fill-rule:nonzero;fill:rgb(0%,0%,0%);fill-opacity:1;" d="M 199.8125 130.535156 L 199.8125 131.667969 C 199.8125 132.039062 199.792969 132.429688 199.773438 132.800781 L 196.433594 132.800781 L 196.433594 133.601562 L 199.695312 133.601562 C 199.578125 134.910156 199.324219 136.042969 198.953125 136.980469 C 198.367188 138.269531 197.332031 139.34375 195.847656 140.125 L 196.296875 140.808594 C 197.800781 140.046875 198.875 138.972656 199.558594 137.605469 C 200.046875 136.53125 200.359375 135.203125 200.535156 133.601562 L 204.089844 133.601562 C 204.03125 136.257812 203.894531 137.996094 203.679688 138.816406 C 203.484375 139.597656 203.074219 139.988281 202.429688 139.988281 C 202.019531 139.988281 201.589844 139.96875 201.140625 139.949219 L 201.355469 140.75 L 202.839844 140.75 C 203.425781 140.691406 203.835938 140.457031 204.109375 140.007812 C 204.382812 139.539062 204.578125 138.699219 204.695312 137.527344 C 204.792969 136.316406 204.871094 134.753906 204.910156 132.800781 L 200.613281 132.800781 C 200.632812 132.429688 200.632812 132.058594 200.652344 131.667969 L 200.652344 130.535156 Z M 199.8125 130.535156 "/>
<path style=" stroke:none;fill-rule:nonzero;fill:rgb(69.803922%,85.098039%,100%);fill-opacity:1;" d="M 33 102.5 L 130 102.5 L 130 80 L 33 80 Z M 33 102.5 "/>
<path style="fill:none;stroke-width:1;stroke-linecap:round;stroke-linejoin:round;stroke:rgb(0%,0%,0%);stroke-opacity:1;stroke-miterlimit:10;" d="M 471.4 236 L 549 236 L 549 254 L 471.4 254 Z M 471.4 236 " transform="matrix(1.25,0,0,1.25,-556.25,-215)"/>
<path style=" stroke:none;fill-rule:nonzero;fill:rgb(0%,0%,0%);fill-opacity:1;" d="M 74.566406 86.542969 C 72.847656 86.933594 70.914062 87.148438 68.785156 87.167969 L 68.785156 91.523438 C 68.726562 93.496094 68.394531 95.019531 67.769531 96.132812 L 68.335938 96.738281 C 69.097656 95.429688 69.488281 93.710938 69.546875 91.523438 L 69.546875 89.492188 L 72.125 89.492188 L 72.027344 90.527344 L 70.230469 90.527344 L 70.230469 96.738281 L 70.992188 96.738281 L 70.992188 96.035156 L 74 96.035156 L 74 96.757812 L 74.761719 96.757812 L 74.761719 90.527344 L 72.808594 90.527344 C 72.847656 90.195312 72.886719 89.863281 72.925781 89.492188 L 75.230469 89.492188 L 75.230469 88.769531 L 72.984375 88.769531 L 73.023438 87.96875 L 72.222656 87.851562 L 72.183594 88.769531 L 69.546875 88.769531 L 69.546875 87.832031 C 71.539062 87.792969 73.335938 87.578125 74.957031 87.226562 Z M 70.992188 95.351562 L 70.992188 94.355469 L 74 94.355469 L 74 95.351562 Z M 70.992188 93.730469 L 70.992188 92.773438 L 74 92.773438 L 74 93.730469 Z M 70.992188 92.148438 L 70.992188 91.210938 L 74 91.210938 L 74 92.148438 Z M 67.417969 86.582031 C 66.96875 87.617188 66.226562 88.535156 65.230469 89.335938 L 65.464844 90.136719 C 66.695312 89.199219 67.574219 88.125 68.121094 86.914062 Z M 67.632812 89.414062 C 67.105469 90.507812 66.265625 91.503906 65.09375 92.363281 L 65.328125 93.144531 C 65.71875 92.851562 66.089844 92.558594 66.441406 92.246094 L 66.441406 96.699219 L 67.222656 96.699219 L 67.222656 91.445312 C 67.671875 90.917969 68.042969 90.351562 68.335938 89.746094 Z M 67.632812 89.414062 "/>
<path style=" stroke:none;fill-rule:nonzero;fill:rgb(0%,0%,0%);fill-opacity:1;" d="M 84.527344 90.039062 L 83.902344 90.429688 C 84.820312 91.582031 85.542969 92.617188 86.089844 93.554688 L 86.773438 93.085938 C 86.246094 92.207031 85.484375 91.210938 84.527344 90.039062 Z M 76.65625 90.527344 L 76.65625 91.308594 L 77.90625 91.308594 L 77.90625 94.199219 C 77.378906 94.335938 76.871094 94.453125 76.34375 94.53125 L 76.539062 95.3125 C 77.847656 95.019531 79.058594 94.648438 80.191406 94.21875 L 80.191406 93.4375 C 79.703125 93.632812 79.195312 93.808594 78.6875 93.964844 L 78.6875 91.308594 L 79.976562 91.308594 L 79.976562 90.527344 L 78.6875 90.527344 L 78.6875 88.105469 L 80.132812 88.105469 L 80.132812 87.304688 L 76.480469 87.304688 L 76.480469 88.105469 L 77.90625 88.105469 L 77.90625 90.527344 Z M 80.582031 86.992188 L 80.582031 87.773438 L 83.472656 87.773438 C 82.828125 89.824219 81.695312 91.582031 80.054688 93.046875 L 80.542969 93.671875 C 81.519531 92.8125 82.320312 91.835938 82.964844 90.742188 L 82.964844 96.738281 L 83.765625 96.738281 L 83.765625 89.199219 C 83.960938 88.730469 84.117188 88.261719 84.273438 87.773438 L 86.285156 87.773438 L 86.285156 86.992188 Z M 80.582031 86.992188 "/>
<path style=" stroke:none;fill-rule:nonzero;fill:rgb(0%,0%,0%);fill-opacity:1;" d="M 90.777344 90.742188 L 90.777344 91.464844 L 96.871094 91.464844 L 96.871094 90.742188 Z M 89.976562 92.578125 L 89.976562 93.320312 L 92.4375 93.320312 C 91.65625 94.589844 90.992188 95.371094 90.503906 95.664062 C 90.445312 95.683594 90.40625 95.722656 90.328125 95.742188 L 90.503906 96.425781 C 92.632812 96.289062 94.585938 96.09375 96.363281 95.859375 C 96.597656 96.132812 96.792969 96.425781 96.988281 96.71875 L 97.632812 96.269531 C 97.144531 95.546875 96.421875 94.6875 95.503906 93.710938 L 94.898438 94.082031 C 95.230469 94.472656 95.5625 94.84375 95.875 95.214844 C 94.429688 95.429688 92.964844 95.585938 91.480469 95.683594 C 92.007812 95.214844 92.613281 94.414062 93.296875 93.320312 L 97.613281 93.320312 L 97.613281 92.578125 Z M 96.246094 87.636719 L 96.246094 88.945312 L 89.625 88.945312 L 89.625 87.636719 Z M 89.625 89.667969 L 97.027344 89.667969 L 97.027344 86.875 L 88.84375 86.875 L 88.84375 90.605469 C 88.824219 92.871094 88.433594 94.707031 87.652344 96.132812 L 88.238281 96.679688 C 89.15625 94.980469 89.625 92.949219 89.625 90.605469 Z M 89.625 89.667969 "/>
<path style=" stroke:none;fill-rule:nonzero;fill:rgb(69.803922%,85.098039%,100%);fill-opacity:1;" d="M 249 102.285156 L 346 102.285156 L 346 79.785156 L 249 79.785156 Z M 249 102.285156 "/>
<path style="fill:none;stroke-width:1;stroke-linecap:round;stroke-linejoin:round;stroke:rgb(0%,0%,0%);stroke-opacity:1;stroke-miterlimit:10;" d="M 644.2 235.828125 L 721.8 235.828125 L 721.8 253.828125 L 644.2 253.828125 Z M 644.2 235.828125 " transform="matrix(1.25,0,0,1.25,-556.25,-215)"/>
<path style=" stroke:none;fill-rule:nonzero;fill:rgb(0%,0%,0%);fill-opacity:1;" d="M 290.566406 86.328125 C 288.847656 86.71875 286.914062 86.933594 284.785156 86.953125 L 284.785156 91.308594 C 284.726562 93.28125 284.394531 94.804688 283.769531 95.917969 L 284.335938 96.523438 C 285.097656 95.214844 285.488281 93.496094 285.546875 91.308594 L 285.546875 89.277344 L 288.125 89.277344 L 288.027344 90.3125 L 286.230469 90.3125 L 286.230469 96.523438 L 286.992188 96.523438 L 286.992188 95.820312 L 290 95.820312 L 290 96.542969 L 290.761719 96.542969 L 290.761719 90.3125 L 288.808594 90.3125 C 288.847656 89.980469 288.886719 89.648438 288.925781 89.277344 L 291.230469 89.277344 L 291.230469 88.554688 L 288.984375 88.554688 L 289.023438 87.753906 L 288.222656 87.636719 L 288.183594 88.554688 L 285.546875 88.554688 L 285.546875 87.617188 C 287.539062 87.578125 289.335938 87.363281 290.957031 87.011719 Z M 286.992188 95.136719 L 286.992188 94.140625 L 290 94.140625 L 290 95.136719 Z M 286.992188 93.515625 L 286.992188 92.558594 L 290 92.558594 L 290 93.515625 Z M 286.992188 91.933594 L 286.992188 90.996094 L 290 90.996094 L 290 91.933594 Z M 283.417969 86.367188 C 282.96875 87.402344 282.226562 88.320312 281.230469 89.121094 L 281.464844 89.921875 C 282.695312 88.984375 283.574219 87.910156 284.121094 86.699219 Z M 283.632812 89.199219 C 283.105469 90.292969 282.265625 91.289062 281.09375 92.148438 L 281.328125 92.929688 C 281.71875 92.636719 282.089844 92.34375 282.441406 92.03125 L 282.441406 96.484375 L 283.222656 96.484375 L 283.222656 91.230469 C 283.671875 90.703125 284.042969 90.136719 284.335938 89.53125 Z M 283.632812 89.199219 "/>
<path style=" stroke:none;fill-rule:nonzero;fill:rgb(0%,0%,0%);fill-opacity:1;" d="M 300.527344 89.824219 L 299.902344 90.214844 C 300.820312 91.367188 301.542969 92.402344 302.089844 93.339844 L 302.773438 92.871094 C 302.246094 91.992188 301.484375 90.996094 300.527344 89.824219 Z M 292.65625 90.3125 L 292.65625 91.09375 L 293.90625 91.09375 L 293.90625 93.984375 C 293.378906 94.121094 292.871094 94.238281 292.34375 94.316406 L 292.539062 95.097656 C 293.847656 94.804688 295.058594 94.433594 296.191406 94.003906 L 296.191406 93.222656 C 295.703125 93.417969 295.195312 93.59375 294.6875 93.75 L 294.6875 91.09375 L 295.976562 91.09375 L 295.976562 90.3125 L 294.6875 90.3125 L 294.6875 87.890625 L 296.132812 87.890625 L 296.132812 87.089844 L 292.480469 87.089844 L 292.480469 87.890625 L 293.90625 87.890625 L 293.90625 90.3125 Z M 296.582031 86.777344 L 296.582031 87.558594 L 299.472656 87.558594 C 298.828125 89.609375 297.695312 91.367188 296.054688 92.832031 L 296.542969 93.457031 C 297.519531 92.597656 298.320312 91.621094 298.964844 90.527344 L 298.964844 96.523438 L 299.765625 96.523438 L 299.765625 88.984375 C 299.960938 88.515625 300.117188 88.046875 300.273438 87.558594 L 302.285156 87.558594 L 302.285156 86.777344 Z M 296.582031 86.777344 "/>
<path style=" stroke:none;fill-rule:nonzero;fill:rgb(0%,0%,0%);fill-opacity:1;" d="M 306.777344 90.527344 L 306.777344 91.25 L 312.871094 91.25 L 312.871094 90.527344 Z M 305.976562 92.363281 L 305.976562 93.105469 L 308.4375 93.105469 C 307.65625 94.375 306.992188 95.15625 306.503906 95.449219 C 306.445312 95.46875 306.40625 95.507812 306.328125 95.527344 L 306.503906 96.210938 C 308.632812 96.074219 310.585938 95.878906 312.363281 95.644531 C 312.597656 95.917969 312.792969 96.210938 312.988281 96.503906 L 313.632812 96.054688 C 313.144531 95.332031 312.421875 94.472656 311.503906 93.496094 L 310.898438 93.867188 C 311.230469 94.257812 311.5625 94.628906 311.875 95 C 310.429688 95.214844 308.964844 95.371094 307.480469 95.46875 C 308.007812 95 308.613281 94.199219 309.296875 93.105469 L 313.613281 93.105469 L 313.613281 92.363281 Z M 312.246094 87.421875 L 312.246094 88.730469 L 305.625 88.730469 L 305.625 87.421875 Z M 305.625 89.453125 L 313.027344 89.453125 L 313.027344 86.660156 L 304.84375 86.660156 L 304.84375 90.390625 C 304.824219 92.65625 304.433594 94.492188 303.652344 95.917969 L 304.238281 96.464844 C 305.15625 94.765625 305.625 92.734375 305.625 90.390625 Z M 305.625 89.453125 "/>
<path style="fill:none;stroke-width:1;stroke-linecap:round;stroke-linejoin:round;stroke:rgb(0%,0%,0%);stroke-opacity:1;stroke-miterlimit:10;" d="M 549 242.2 L 583.265625 242.39375 M 594.265625 242.4625 L 639.2 242.715625 " transform="matrix(1.25,0,0,1.25,-556.25,-215)"/>
<path style="fill:none;stroke-width:1;stroke-linecap:butt;stroke-linejoin:miter;stroke:rgb(0%,0%,0%);stroke-opacity:1;stroke-miterlimit:10;" d="M 643.2 242.7375 L 639.2 242.715625 M 639.20625 241.215625 L 643.2 242.7375 L 639.190625 244.215625 " transform="matrix(1.25,0,0,1.25,-556.25,-215)"/>
<path style="fill:none;stroke-width:1;stroke-linecap:round;stroke-linejoin:round;stroke:rgb(0%,0%,0%);stroke-opacity:1;stroke-miterlimit:10;" d="M 683.184375 235.828125 L 683.265625 231.83125 C 683.3125 229.625 681.559375 227.796875 679.346875 227.75 C 679.31875 227.75 679.29375 227.75 679.265625 227.75 L 592.828125 227.75 C 590.625 227.75 588.840625 229.528125 588.828125 231.725 L 588.63125 265.1 " transform="matrix(1.25,0,0,1.25,-556.25,-215)"/>
<path style="fill:none;stroke-width:1;stroke-linecap:butt;stroke-linejoin:miter;stroke:rgb(0%,0%,0%);stroke-opacity:1;stroke-miterlimit:10;" d="M 588.609375 269.1 L 588.63125 265.1 M 590.13125 265.109375 L 588.609375 269.1 L 587.13125 265.090625 " transform="matrix(1.25,0,0,1.25,-556.25,-215)"/>
<path style="fill:none;stroke-width:1;stroke-linecap:round;stroke-linejoin:round;stroke:rgb(0%,0%,0%);stroke-opacity:1;stroke-miterlimit:10;" d="M 683 235.828125 L 683 224.3 " transform="matrix(1.25,0,0,1.25,-556.25,-215)"/>
<path style="fill:none;stroke-width:1;stroke-linecap:butt;stroke-linejoin:miter;stroke:rgb(0%,0%,0%);stroke-opacity:1;stroke-miterlimit:10;" d="M 683 220.3 L 683 224.3 M 681.5 224.3 L 683 220.3 L 684.5 224.3 " transform="matrix(1.25,0,0,1.25,-556.25,-215)"/>
<g clip-path="url(#clip2)" clip-rule="nonzero">
<path style=" stroke:none;fill-rule:nonzero;fill:rgb(0%,0%,0%);fill-opacity:1;" d="M 361.390625 91.234375 L 363.617188 89.007812 C 363.734375 88.871094 363.773438 88.851562 363.773438 88.773438 C 363.773438 88.636719 363.65625 88.539062 363.539062 88.539062 C 363.460938 88.539062 363.402344 88.578125 363.304688 88.695312 L 361.058594 90.921875 L 358.8125 88.695312 C 358.695312 88.558594 358.65625 88.539062 358.578125 88.539062 C 358.460938 88.539062 358.34375 88.636719 358.34375 88.773438 C 358.34375 88.851562 358.402344 88.910156 358.5 89.007812 L 360.726562 91.234375 L 358.5 93.480469 C 358.382812 93.578125 358.34375 93.65625 358.34375 93.714844 C 358.34375 93.851562 358.460938 93.949219 358.578125 93.949219 C 358.65625 93.949219 358.695312 93.929688 358.8125 93.792969 L 361.058594 91.566406 L 363.304688 93.792969 C 363.402344 93.910156 363.480469 93.949219 363.539062 93.949219 C 363.675781 93.949219 363.773438 93.851562 363.773438 93.714844 C 363.773438 93.636719 363.734375 93.617188 363.617188 93.480469 Z M 361.390625 91.234375 "/>
<path style=" stroke:none;fill-rule:nonzero;fill:rgb(0%,0%,0%);fill-opacity:1;" d="M 361.390625 91.234375 L 363.617188 89.007812 C 363.734375 88.871094 363.773438 88.851562 363.773438 88.773438 C 363.773438 88.636719 363.65625 88.539062 363.539062 88.539062 C 363.460938 88.539062 363.402344 88.578125 363.304688 88.695312 L 361.058594 90.921875 L 358.8125 88.695312 C 358.695312 88.558594 358.65625 88.539062 358.578125 88.539062 C 358.460938 88.539062 358.34375 88.636719 358.34375 88.773438 C 358.34375 88.851562 358.402344 88.910156 358.5 89.007812 L 360.726562 91.234375 L 358.5 93.480469 C 358.382812 93.578125 358.34375 93.65625 358.34375 93.714844 C 358.34375 93.851562 358.460938 93.949219 358.578125 93.949219 C 358.65625 93.949219 358.695312 93.929688 358.8125 93.792969 L 361.058594 91.566406 L 363.304688 93.792969 C 363.402344 93.910156 363.480469 93.949219 363.539062 93.949219 C 363.675781 93.949219 363.773438 93.851562 363.773438 93.714844 C 363.773438 93.636719 363.734375 93.617188 363.617188 93.480469 Z M 361.390625 91.234375 "/>
</g>
<path style=" stroke:none;fill-rule:nonzero;fill:rgb(0%,0%,0%);fill-opacity:1;" d="M 372.550781 92.851562 C 372.472656 92.949219 372.394531 93.046875 372.316406 93.144531 C 371.984375 93.554688 371.789062 93.730469 371.632812 93.730469 C 371.496094 93.730469 371.457031 93.632812 371.457031 93.535156 C 371.457031 93.4375 371.496094 93.242188 371.613281 92.851562 L 372.238281 90.566406 C 372.296875 90.332031 372.355469 90.078125 372.355469 89.882812 C 372.355469 89.472656 372.101562 89.199219 371.613281 89.199219 C 370.890625 89.199219 370.148438 89.882812 369.015625 91.679688 L 369.777344 89.21875 L 369.71875 89.199219 C 369.132812 89.316406 368.820312 89.375 367.902344 89.550781 L 367.902344 89.726562 C 368.46875 89.746094 368.644531 89.804688 368.644531 90.039062 C 368.644531 90.097656 368.625 90.175781 368.605469 90.214844 L 367.53125 94.160156 L 368.371094 94.160156 C 368.898438 92.382812 368.996094 92.128906 369.503906 91.367188 C 370.207031 90.332031 370.714844 89.765625 371.164062 89.765625 C 371.339844 89.765625 371.4375 89.902344 371.4375 90.097656 C 371.4375 90.234375 371.359375 90.644531 371.28125 90.996094 L 370.792969 92.8125 C 370.617188 93.398438 370.597656 93.535156 370.597656 93.652344 C 370.597656 94.082031 370.851562 94.257812 371.125 94.257812 C 371.652344 94.257812 371.945312 94.042969 372.707031 92.988281 Z M 372.550781 92.851562 "/>
<path style="fill:none;stroke-width:1;stroke-linecap:round;stroke-linejoin:round;stroke:rgb(0%,0%,0%);stroke-opacity:1;stroke-miterlimit:10;" d="M 510.2 271.253125 L 510.2 259.9 " transform="matrix(1.25,0,0,1.25,-556.25,-215)"/>
<path style="fill:none;stroke-width:1;stroke-linecap:butt;stroke-linejoin:miter;stroke:rgb(0%,0%,0%);stroke-opacity:1;stroke-miterlimit:10;" d="M 510.2 255.9 L 510.2 259.9 M 508.7 259.9 L 510.2 255.9 L 511.7 259.9 " transform="matrix(1.25,0,0,1.25,-556.25,-215)"/>
<path style="fill:none;stroke-width:1;stroke-linecap:round;stroke-linejoin:round;stroke:rgb(0%,0%,0%);stroke-opacity:1;stroke-miterlimit:10;" d="M 683 271.253125 L 683 259.725 " transform="matrix(1.25,0,0,1.25,-556.25,-215)"/>
<path style="fill:none;stroke-width:1;stroke-linecap:butt;stroke-linejoin:miter;stroke:rgb(0%,0%,0%);stroke-opacity:1;stroke-miterlimit:10;" d="M 683 255.725 L 683 259.725 M 681.5 259.725 L 683 255.725 L 684.5 259.725 " transform="matrix(1.25,0,0,1.25,-556.25,-215)"/>
<path style="fill:none;stroke-width:1;stroke-linecap:round;stroke-linejoin:round;stroke:rgb(0%,0%,0%);stroke-opacity:1;stroke-miterlimit:10;" d="M 549 248.1 L 567.028125 248.225 C 569.225 248.24375 571 250.028125 571 252.225 L 571 265.1 " transform="matrix(1.25,0,0,1.25,-556.25,-215)"/>
<path style="fill:none;stroke-width:1;stroke-linecap:butt;stroke-linejoin:miter;stroke:rgb(0%,0%,0%);stroke-opacity:1;stroke-miterlimit:10;" d="M 571 269.1 L 571 265.1 M 572.5 265.1 L 571 269.1 L 569.5 265.1 " transform="matrix(1.25,0,0,1.25,-556.25,-215)"/>
<path style="fill:none;stroke-width:1;stroke-linecap:round;stroke-linejoin:round;stroke:rgb(0%,0%,0%);stroke-opacity:1;stroke-miterlimit:10;" d="M 557.8 248.1 L 575.828125 248.225 C 578.025 248.24375 579.8 250.028125 579.8 252.225 L 579.8 265.1 " transform="matrix(1.25,0,0,1.25,-556.25,-215)"/>
<path style="fill:none;stroke-width:1;stroke-linecap:butt;stroke-linejoin:miter;stroke:rgb(0%,0%,0%);stroke-opacity:1;stroke-miterlimit:10;" d="M 579.8 269.1 L 579.8 265.1 M 581.3 265.1 L 579.8 269.1 L 578.3 265.1 " transform="matrix(1.25,0,0,1.25,-556.25,-215)"/>
<path style="fill:none;stroke-width:1;stroke-linecap:round;stroke-linejoin:round;stroke:rgb(0%,0%,0%);stroke-opacity:1;stroke-miterlimit:10;" d="M 619.7 271 L 619.7 267.94375 C 619.7 265.75625 621.45625 263.975 623.64375 263.94375 L 669.190625 263.309375 C 671.184375 263.28125 672.8125 261.8 673.09375 259.890625 " transform="matrix(1.25,0,0,1.25,-556.25,-215)"/>
<path style="fill:none;stroke-width:1;stroke-linecap:butt;stroke-linejoin:miter;stroke:rgb(0%,0%,0%);stroke-opacity:1;stroke-miterlimit:10;" d="M 672.925 255.9 L 673.09375 259.89375 M 671.59375 259.95625 L 672.925 255.9 L 674.590625 259.83125 " transform="matrix(1.25,0,0,1.25,-556.25,-215)"/>
</g>
</svg>
