<?xml version="1.0" encoding="UTF-8"?>
<svg xmlns="http://www.w3.org/2000/svg" xmlns:xlink="http://www.w3.org/1999/xlink" width="428pt" height="228pt" viewBox="0 0 428 228" version="1.1">
<defs>
<clipPath id="clip1">
  <path d="M 229.375 56.25 L 236.625 56.25 L 236.625 63.417969 L 229.375 63.417969 Z M 229.375 56.25 "/>
</clipPath>
<clipPath id="clip2">
  <path d="M 229.375 83.75 L 236.625 83.75 L 236.625 90.761719 L 229.375 90.761719 Z M 229.375 83.75 "/>
</clipPath>
<clipPath id="clip3">
  <path d="M 229.375 111 L 236.625 111 L 236.625 118 L 229.375 118 Z M 229.375 111 "/>
</clipPath>
<clipPath id="clip4">
  <path d="M 229.375 138.195312 L 236.625 138.195312 L 236.625 145.445312 L 229.375 145.445312 Z M 229.375 138.195312 "/>
</clipPath>
<clipPath id="clip5">
  <path d="M 229.375 165.539062 L 236.625 165.539062 L 236.625 172.5 L 229.375 172.5 Z M 229.375 165.539062 "/>
</clipPath>
</defs>
<g id="surface1">
<path style="fill:none;stroke-width:1;stroke-linecap:round;stroke-linejoin:round;stroke:rgb(0%,0%,0%);stroke-opacity:1;stroke-miterlimit:10;" d="M 314.99375 458.45625 L 299.746875 458.45625 M 288.746875 458.45625 L 281.3 458.45625 " transform="matrix(1.25,0,0,1.25,-101.25,-431.25)"/>
<path style="fill:none;stroke-width:1;stroke-linecap:butt;stroke-linejoin:miter;stroke:rgb(0%,0%,0%);stroke-opacity:1;stroke-miterlimit:10;" d="M 277.3 458.45625 L 281.3 458.45625 M 281.3 459.95625 L 277.3 458.45625 L 281.3 456.95625 " transform="matrix(1.25,0,0,1.25,-101.25,-431.25)"/>
<path style="fill:none;stroke-width:1;stroke-linecap:round;stroke-linejoin:round;stroke:rgb(0%,0%,0%);stroke-opacity:1;stroke-miterlimit:10;" d="M 314.99375 414.70625 L 299.9875 414.70625 M 288.9875 414.70625 L 281.3 414.70625 " transform="matrix(1.25,0,0,1.25,-101.25,-431.25)"/>
<path style="fill:none;stroke-width:1;stroke-linecap:butt;stroke-linejoin:miter;stroke:rgb(0%,0%,0%);stroke-opacity:1;stroke-miterlimit:10;" d="M 277.3 414.70625 L 281.3 414.70625 M 281.3 416.20625 L 277.3 414.70625 L 281.3 413.20625 " transform="matrix(1.25,0,0,1.25,-101.25,-431.25)"/>
<path style=" stroke:none;fill-rule:nonzero;fill:rgb(69.803922%,85.098039%,100%);fill-opacity:1;" d="M 292.492188 69.796875 L 334.742188 69.796875 L 334.742188 49.796875 L 292.492188 49.796875 Z M 292.492188 69.796875 "/>
<path style="fill:none;stroke-width:1;stroke-linecap:round;stroke-linejoin:round;stroke:rgb(0%,0%,0%);stroke-opacity:1;stroke-miterlimit:10;" d="M 314.99375 384.8375 L 348.79375 384.8375 L 348.79375 400.8375 L 314.99375 400.8375 Z M 314.99375 384.8375 " transform="matrix(1.25,0,0,1.25,-101.25,-431.25)"/>
<path style=" stroke:none;fill-rule:nonzero;fill:rgb(69.803922%,85.098039%,100%);fill-opacity:1;" d="M 292.492188 124.476562 L 334.742188 124.476562 L 334.742188 104.476562 L 292.492188 104.476562 Z M 292.492188 124.476562 "/>
<path style="fill:none;stroke-width:1;stroke-linecap:round;stroke-linejoin:round;stroke:rgb(0%,0%,0%);stroke-opacity:1;stroke-miterlimit:10;" d="M 314.99375 428.58125 L 348.79375 428.58125 L 348.79375 444.58125 L 314.99375 444.58125 Z M 314.99375 428.58125 " transform="matrix(1.25,0,0,1.25,-101.25,-431.25)"/>
<path style=" stroke:none;fill-rule:nonzero;fill:rgb(69.803922%,85.098039%,100%);fill-opacity:1;" d="M 292.492188 179.160156 L 334.742188 179.160156 L 334.742188 159.160156 L 292.492188 159.160156 Z M 292.492188 179.160156 "/>
<path style="fill:none;stroke-width:1;stroke-linecap:round;stroke-linejoin:round;stroke:rgb(0%,0%,0%);stroke-opacity:1;stroke-miterlimit:10;" d="M 314.99375 472.328125 L 348.79375 472.328125 L 348.79375 488.328125 L 314.99375 488.328125 Z M 314.99375 472.328125 " transform="matrix(1.25,0,0,1.25,-101.25,-431.25)"/>
<path style=" stroke:none;fill-rule:nonzero;fill:rgb(69.803922%,85.098039%,100%);fill-opacity:1;" d="M 292.492188 151.820312 L 334.742188 151.820312 L 334.742188 131.820312 L 292.492188 131.820312 Z M 292.492188 151.820312 "/>
<path style="fill:none;stroke-width:1;stroke-linecap:round;stroke-linejoin:round;stroke:rgb(0%,0%,0%);stroke-opacity:1;stroke-miterlimit:10;" d="M 314.99375 450.45625 L 348.79375 450.45625 L 348.79375 466.45625 L 314.99375 466.45625 Z M 314.99375 450.45625 " transform="matrix(1.25,0,0,1.25,-101.25,-431.25)"/>
<path style=" stroke:none;fill-rule:nonzero;fill:rgb(69.803922%,85.098039%,100%);fill-opacity:1;" d="M 292.492188 97.132812 L 334.742188 97.132812 L 334.742188 77.132812 L 292.492188 77.132812 Z M 292.492188 97.132812 "/>
<path style="fill:none;stroke-width:1;stroke-linecap:round;stroke-linejoin:round;stroke:rgb(0%,0%,0%);stroke-opacity:1;stroke-miterlimit:10;" d="M 314.99375 406.70625 L 348.79375 406.70625 L 348.79375 422.70625 L 314.99375 422.70625 Z M 314.99375 406.70625 " transform="matrix(1.25,0,0,1.25,-101.25,-431.25)"/>
<path style="fill:none;stroke-width:1;stroke-linecap:round;stroke-linejoin:round;stroke:rgb(0%,0%,0%);stroke-opacity:1;stroke-miterlimit:10;" d="M 314.99375 392.8375 L 300.109375 392.8375 M 289.109375 392.8375 L 281.3 392.8375 " transform="matrix(1.25,0,0,1.25,-101.25,-431.25)"/>
<path style="fill:none;stroke-width:1;stroke-linecap:butt;stroke-linejoin:miter;stroke:rgb(0%,0%,0%);stroke-opacity:1;stroke-miterlimit:10;" d="M 277.3 392.8375 L 281.3 392.8375 M 281.3 394.3375 L 277.3 392.8375 L 281.3 391.3375 " transform="matrix(1.25,0,0,1.25,-101.25,-431.25)"/>
<path style="fill:none;stroke-width:1;stroke-linecap:round;stroke-linejoin:round;stroke:rgb(0%,0%,0%);stroke-opacity:1;stroke-miterlimit:10;" d="M 314.99375 436.58125 L 299.86875 436.58125 M 288.86875 436.58125 L 281.3 436.58125 " transform="matrix(1.25,0,0,1.25,-101.25,-431.25)"/>
<path style="fill:none;stroke-width:1;stroke-linecap:butt;stroke-linejoin:miter;stroke:rgb(0%,0%,0%);stroke-opacity:1;stroke-miterlimit:10;" d="M 277.3 436.58125 L 281.3 436.58125 M 281.3 438.08125 L 277.3 436.58125 L 281.3 435.08125 " transform="matrix(1.25,0,0,1.25,-101.25,-431.25)"/>
<path style=" stroke:none;fill-rule:nonzero;fill:rgb(40%,74.901961%,100%);fill-opacity:1;" d="M 48.910156 69.796875 L 91.164062 69.796875 L 91.164062 49.796875 L 48.910156 49.796875 Z M 48.910156 69.796875 "/>
<path style="fill:none;stroke-width:1;stroke-linecap:round;stroke-linejoin:round;stroke:rgb(0%,0%,0%);stroke-opacity:1;stroke-miterlimit:10;" d="M 120.128125 384.8375 L 153.93125 384.8375 L 153.93125 400.8375 L 120.128125 400.8375 Z M 120.128125 384.8375 " transform="matrix(1.25,0,0,1.25,-101.25,-431.25)"/>
<path style="fill:none;stroke-width:1;stroke-linecap:round;stroke-linejoin:round;stroke:rgb(0%,0%,0%);stroke-opacity:1;stroke-miterlimit:10;" d="M 153.93125 392.8375 L 174.225 392.8375 " transform="matrix(1.25,0,0,1.25,-101.25,-431.25)"/>
<path style="fill:none;stroke-width:1;stroke-linecap:butt;stroke-linejoin:miter;stroke:rgb(0%,0%,0%);stroke-opacity:1;stroke-miterlimit:10;" d="M 178.225 392.8375 L 174.225 392.8375 M 174.225 391.3375 L 178.225 392.8375 L 174.225 394.3375 " transform="matrix(1.25,0,0,1.25,-101.25,-431.25)"/>
<path style=" stroke:none;fill-rule:nonzero;fill:rgb(40%,74.901961%,100%);fill-opacity:1;" d="M 48.910156 124.476562 L 91.164062 124.476562 L 91.164062 104.476562 L 48.910156 104.476562 Z M 48.910156 124.476562 "/>
<path style="fill:none;stroke-width:1;stroke-linecap:round;stroke-linejoin:round;stroke:rgb(0%,0%,0%);stroke-opacity:1;stroke-miterlimit:10;" d="M 120.128125 428.58125 L 153.93125 428.58125 L 153.93125 444.58125 L 120.128125 444.58125 Z M 120.128125 428.58125 " transform="matrix(1.25,0,0,1.25,-101.25,-431.25)"/>
<path style=" stroke:none;fill-rule:nonzero;fill:rgb(40%,74.901961%,100%);fill-opacity:1;" d="M 48.910156 179.160156 L 91.164062 179.160156 L 91.164062 159.160156 L 48.910156 159.160156 Z M 48.910156 179.160156 "/>
<path style="fill:none;stroke-width:1;stroke-linecap:round;stroke-linejoin:round;stroke:rgb(0%,0%,0%);stroke-opacity:1;stroke-miterlimit:10;" d="M 120.128125 472.328125 L 153.93125 472.328125 L 153.93125 488.328125 L 120.128125 488.328125 Z M 120.128125 472.328125 " transform="matrix(1.25,0,0,1.25,-101.25,-431.25)"/>
<path style="fill:none;stroke-width:1;stroke-linecap:round;stroke-linejoin:round;stroke:rgb(0%,0%,0%);stroke-opacity:1;stroke-miterlimit:10;" d="M 120.128125 507.2 L 153.93125 507.2 L 153.93125 523.2 L 120.128125 523.2 Z M 120.128125 507.2 " transform="matrix(1.25,0,0,1.25,-101.25,-431.25)"/>
<path style=" stroke:none;fill-rule:nonzero;fill:rgb(0%,0%,0%);fill-opacity:1;" d="M 15.597656 113.695312 L 15.597656 113.929688 L 16.515625 113.929688 L 16.515625 115.316406 L 15.246094 115.316406 L 15.246094 116.058594 L 16.515625 116.058594 L 16.515625 118.617188 C 16.515625 118.792969 16.398438 118.890625 16.203125 118.96875 L 16.535156 119.652344 C 17.277344 119.359375 17.941406 119.007812 18.507812 118.578125 L 18.371094 117.875 C 18 118.207031 17.609375 118.441406 17.238281 118.65625 L 17.238281 116.058594 L 18.390625 116.058594 L 18.390625 115.316406 L 17.238281 115.316406 L 17.238281 113.929688 L 18.234375 113.929688 L 18.234375 113.207031 L 15.8125 113.207031 C 16.007812 112.738281 16.183594 112.25 16.339844 111.703125 L 18.253906 111.703125 L 18.253906 110.921875 L 16.554688 110.921875 C 16.632812 110.550781 16.710938 110.160156 16.808594 109.730469 L 16.046875 109.574219 C 15.792969 111 15.421875 112.289062 14.894531 113.460938 L 15.519531 113.871094 C 15.539062 113.8125 15.578125 113.753906 15.597656 113.695312 Z M 24.621094 114.378906 L 24.621094 112.816406 L 25.148438 112.816406 L 25.148438 112.171875 L 24.621094 112.171875 L 24.621094 110.550781 L 23.058594 110.550781 L 23.058594 109.730469 L 22.335938 109.730469 L 22.335938 110.550781 L 21.222656 110.550781 L 21.222656 111.214844 L 22.335938 111.214844 L 22.335938 112.171875 L 20.832031 112.171875 L 20.832031 112.816406 L 22.335938 112.816406 L 22.335938 113.734375 L 21.222656 113.734375 L 21.222656 114.378906 L 22.335938 114.378906 L 22.335938 115.257812 L 21.105469 115.257812 L 21.105469 115.902344 L 22.335938 115.902344 L 22.335938 116.78125 L 20.832031 116.78125 L 20.832031 117.464844 L 22.335938 117.464844 L 22.335938 118.558594 L 23.058594 118.558594 L 23.058594 117.464844 L 25.03125 117.464844 L 25.03125 116.78125 L 23.058594 116.78125 L 23.058594 115.902344 L 24.757812 115.902344 L 24.757812 115.257812 L 23.058594 115.257812 L 23.058594 114.378906 Z M 23.058594 111.214844 L 23.9375 111.214844 L 23.9375 112.171875 L 23.058594 112.171875 Z M 23.058594 112.816406 L 23.9375 112.816406 L 23.9375 113.734375 L 23.058594 113.734375 Z M 23.546875 119.046875 C 22.453125 119.007812 21.652344 118.871094 21.144531 118.617188 C 20.773438 118.460938 20.441406 118.207031 20.148438 117.835938 C 20.5 116.839844 20.695312 115.648438 20.714844 114.242188 L 20.714844 113.792969 L 19.5625 113.792969 C 19.933594 113.128906 20.304688 112.328125 20.675781 111.390625 L 20.675781 110.726562 L 18.644531 110.726562 L 18.644531 111.410156 L 19.953125 111.410156 C 19.582031 112.308594 19.171875 113.128906 18.722656 113.910156 L 18.722656 114.457031 L 20.070312 114.457031 C 20.011719 115.453125 19.875 116.332031 19.660156 117.09375 C 19.386719 116.585938 19.171875 116 19.035156 115.335938 L 18.410156 115.550781 C 18.644531 116.507812 18.957031 117.289062 19.347656 117.914062 C 19.113281 118.480469 18.78125 118.96875 18.390625 119.359375 L 18.957031 119.90625 C 19.289062 119.535156 19.601562 119.085938 19.855469 118.578125 C 20.050781 118.8125 20.285156 119.007812 20.558594 119.183594 C 21.144531 119.554688 22.277344 119.769531 23.9375 119.789062 L 25.167969 119.789062 L 25.324219 119.007812 C 24.875 119.027344 24.289062 119.046875 23.546875 119.046875 Z M 23.546875 119.046875 "/>
<path style=" stroke:none;fill-rule:nonzero;fill:rgb(0%,0%,0%);fill-opacity:1;" d="M 11.164062 212.144531 L 11.164062 216.285156 L 17.882812 216.285156 L 17.882812 212.144531 Z M 17.101562 215.582031 L 11.945312 215.582031 L 11.945312 214.585938 L 17.101562 214.585938 Z M 11.945312 213.902344 L 11.945312 212.867188 L 17.101562 212.867188 L 17.101562 213.902344 Z M 9.894531 208.941406 L 9.894531 209.683594 L 13.371094 209.683594 C 12.492188 210.484375 11.164062 211.148438 9.367188 211.65625 L 9.796875 212.378906 C 11.75 211.675781 13.195312 210.777344 14.074219 209.683594 L 14.132812 209.683594 L 14.132812 211.792969 L 14.914062 211.792969 L 14.914062 209.683594 L 14.992188 209.683594 C 15.8125 210.796875 17.257812 211.675781 19.269531 212.359375 L 19.621094 211.636719 C 17.84375 211.167969 16.535156 210.503906 15.695312 209.683594 L 19.152344 209.683594 L 19.152344 208.941406 L 14.914062 208.941406 L 14.914062 207.90625 L 14.132812 207.90625 L 14.132812 208.941406 Z M 9.679688 217.164062 L 9.679688 217.925781 L 19.347656 217.925781 L 19.347656 217.164062 Z M 9.679688 217.164062 "/>
<path style=" stroke:none;fill-rule:nonzero;fill:rgb(0%,0%,0%);fill-opacity:1;" d="M 24.894531 211.226562 L 24.894531 216.363281 L 28.332031 216.363281 L 28.332031 211.226562 Z M 27.570312 215.679688 L 25.675781 215.679688 L 25.675781 214.117188 L 27.570312 214.117188 Z M 25.675781 213.433594 L 25.675781 211.910156 L 27.570312 211.910156 L 27.570312 213.433594 Z M 25.636719 207.90625 C 25.304688 209.234375 24.679688 210.347656 23.722656 211.265625 L 24.230469 211.910156 C 24.835938 211.324219 25.34375 210.660156 25.734375 209.898438 L 29.71875 209.898438 C 29.699219 213.550781 29.640625 215.738281 29.5625 216.441406 C 29.484375 217.105469 29.171875 217.4375 28.664062 217.4375 C 28.332031 217.4375 27.941406 217.417969 27.492188 217.398438 L 27.6875 218.121094 C 28.195312 218.140625 28.546875 218.160156 28.761719 218.160156 C 29.699219 218.160156 30.246094 217.691406 30.363281 216.753906 C 30.460938 215.777344 30.519531 213.238281 30.519531 209.136719 L 26.085938 209.136719 C 26.222656 208.785156 26.339844 208.414062 26.4375 208.003906 Z M 21.945312 208.042969 L 21.398438 208.589844 C 22.199219 209.195312 22.824219 209.78125 23.292969 210.347656 L 23.859375 209.78125 C 23.332031 209.195312 22.6875 208.628906 21.945312 208.042969 Z M 20.597656 211.382812 L 20.597656 212.144531 L 22.257812 212.144531 L 22.257812 216.636719 C 22.257812 216.8125 22.160156 216.988281 22.003906 217.125 L 22.316406 217.847656 C 23.058594 217.339844 23.761719 216.773438 24.40625 216.109375 L 24.191406 215.25 C 23.78125 215.679688 23.390625 216.050781 23.039062 216.363281 L 23.039062 211.382812 Z M 20.597656 211.382812 "/>
<path style=" stroke:none;fill-rule:nonzero;fill:rgb(0%,0%,0%);fill-opacity:1;" d="M 365.953125 109.613281 C 365.933594 109.984375 365.894531 110.355469 365.855469 110.726562 L 362.90625 110.726562 L 362.90625 111.46875 L 365.777344 111.46875 C 365.738281 111.78125 365.679688 112.113281 365.640625 112.445312 L 363.570312 112.445312 L 363.570312 118.890625 L 362.417969 118.890625 L 362.417969 119.632812 L 369.78125 119.632812 L 369.78125 118.890625 L 368.726562 118.890625 L 368.726562 112.445312 L 366.441406 112.445312 C 366.480469 112.132812 366.539062 111.800781 366.578125 111.46875 L 369.46875 111.46875 L 369.46875 110.726562 L 366.675781 110.726562 C 366.695312 110.394531 366.734375 110.0625 366.753906 109.730469 Z M 364.351562 118.890625 L 364.351562 117.914062 L 367.945312 117.914062 L 367.945312 118.890625 Z M 364.351562 117.25 L 364.351562 116.3125 L 367.945312 116.3125 L 367.945312 117.25 Z M 364.351562 115.648438 L 364.351562 114.730469 L 367.945312 114.730469 L 367.945312 115.648438 Z M 364.351562 114.085938 L 364.351562 113.167969 L 367.945312 113.167969 L 367.945312 114.085938 Z M 361.03125 113.441406 L 361.03125 119.984375 L 361.8125 119.984375 L 361.8125 112.054688 C 362.144531 111.390625 362.4375 110.6875 362.652344 109.964844 L 361.929688 109.632812 C 361.421875 111.351562 360.621094 112.894531 359.507812 114.242188 L 359.78125 115.101562 C 360.230469 114.574219 360.660156 114.027344 361.03125 113.441406 Z M 361.03125 113.441406 "/>
<path style=" stroke:none;fill-rule:nonzero;fill:rgb(40%,74.901961%,100%);fill-opacity:1;" d="M 48.910156 151.820312 L 91.164062 151.820312 L 91.164062 131.820312 L 48.910156 131.820312 Z M 48.910156 151.820312 "/>
<path style="fill:none;stroke-width:1;stroke-linecap:round;stroke-linejoin:round;stroke:rgb(0%,0%,0%);stroke-opacity:1;stroke-miterlimit:10;" d="M 120.128125 450.45625 L 153.93125 450.45625 L 153.93125 466.45625 L 120.128125 466.45625 Z M 120.128125 450.45625 " transform="matrix(1.25,0,0,1.25,-101.25,-431.25)"/>
<path style=" stroke:none;fill-rule:nonzero;fill:rgb(40%,74.901961%,100%);fill-opacity:1;" d="M 48.910156 97.132812 L 91.164062 97.132812 L 91.164062 77.132812 L 48.910156 77.132812 Z M 48.910156 97.132812 "/>
<path style="fill:none;stroke-width:1;stroke-linecap:round;stroke-linejoin:round;stroke:rgb(0%,0%,0%);stroke-opacity:1;stroke-miterlimit:10;" d="M 120.128125 406.70625 L 153.93125 406.70625 L 153.93125 422.70625 L 120.128125 422.70625 Z M 120.128125 406.70625 " transform="matrix(1.25,0,0,1.25,-101.25,-431.25)"/>
<path style="fill:none;stroke-width:1;stroke-linecap:round;stroke-linejoin:round;stroke:rgb(0%,0%,0%);stroke-opacity:1;stroke-miterlimit:10;" d="M 193.784375 387.18125 C 196.909375 390.3 196.909375 395.36875 193.784375 398.49375 C 190.659375 401.61875 185.59375 401.61875 182.471875 398.49375 C 179.346875 395.36875 179.346875 390.3 182.471875 387.18125 C 185.59375 384.05625 190.659375 384.05625 193.784375 387.18125 " transform="matrix(1.25,0,0,1.25,-101.25,-431.25)"/>
<path style=" stroke:none;fill-rule:nonzero;fill:rgb(0%,0%,0%);fill-opacity:1;" d="M 136.308594 61.667969 L 135.996094 62 C 135.664062 62.371094 135.507812 62.449219 135.410156 62.449219 C 135.332031 62.449219 135.253906 62.390625 135.253906 62.3125 C 135.253906 62.078125 135.722656 60.144531 136.25 58.230469 C 136.289062 58.113281 136.308594 58.09375 136.328125 57.996094 L 136.25 57.957031 L 135.566406 58.035156 L 135.527344 58.074219 L 135.410156 58.601562 C 135.3125 58.191406 134.980469 57.957031 134.511719 57.957031 C 133.007812 57.957031 131.289062 59.988281 131.289062 61.746094 C 131.289062 62.585938 131.777344 63.035156 132.402344 63.035156 C 133.203125 63.035156 133.847656 62.546875 134.6875 61.277344 C 134.453125 62.195312 134.433594 62.292969 134.433594 62.566406 C 134.433594 62.898438 134.570312 63.035156 134.882812 63.035156 C 135.332031 63.035156 135.605469 62.820312 136.445312 61.785156 Z M 135.195312 58.855469 C 135.195312 59.65625 134.863281 60.613281 134.335938 61.394531 C 134.003906 61.863281 133.476562 62.488281 132.910156 62.488281 C 132.5 62.488281 132.226562 62.273438 132.226562 61.648438 C 132.226562 60.945312 132.617188 59.949219 133.105469 59.246094 C 133.574219 58.5625 134.0625 58.210938 134.570312 58.210938 C 134.960938 58.210938 135.195312 58.464844 135.195312 58.855469 Z M 135.195312 58.855469 "/>
<path style="fill:none;stroke-width:1;stroke-linecap:round;stroke-linejoin:round;stroke:rgb(0%,0%,0%);stroke-opacity:1;stroke-miterlimit:10;" d="M 193.784375 409.05 C 196.909375 412.175 196.909375 417.24375 193.784375 420.36875 C 190.659375 423.4875 185.59375 423.4875 182.471875 420.36875 C 179.346875 417.24375 179.346875 412.175 182.471875 409.05 C 185.59375 405.925 190.659375 405.925 193.784375 409.05 " transform="matrix(1.25,0,0,1.25,-101.25,-431.25)"/>
<path style=" stroke:none;fill-rule:nonzero;fill:rgb(0%,0%,0%);fill-opacity:1;" d="M 136.308594 89.011719 L 135.996094 89.34375 C 135.664062 89.714844 135.507812 89.792969 135.410156 89.792969 C 135.332031 89.792969 135.253906 89.734375 135.253906 89.65625 C 135.253906 89.421875 135.722656 87.488281 136.25 85.574219 C 136.289062 85.457031 136.308594 85.4375 136.328125 85.339844 L 136.25 85.300781 L 135.566406 85.378906 L 135.527344 85.417969 L 135.410156 85.945312 C 135.3125 85.535156 134.980469 85.300781 134.511719 85.300781 C 133.007812 85.300781 131.289062 87.332031 131.289062 89.089844 C 131.289062 89.929688 131.777344 90.378906 132.402344 90.378906 C 133.203125 90.378906 133.847656 89.890625 134.6875 88.621094 C 134.453125 89.539062 134.433594 89.636719 134.433594 89.910156 C 134.433594 90.242188 134.570312 90.378906 134.882812 90.378906 C 135.332031 90.378906 135.605469 90.164062 136.445312 89.128906 Z M 135.195312 86.199219 C 135.195312 87 134.863281 87.957031 134.335938 88.738281 C 134.003906 89.207031 133.476562 89.832031 132.910156 89.832031 C 132.5 89.832031 132.226562 89.617188 132.226562 88.992188 C 132.226562 88.289062 132.617188 87.292969 133.105469 86.589844 C 133.574219 85.90625 134.0625 85.554688 134.570312 85.554688 C 134.960938 85.554688 135.195312 85.808594 135.195312 86.199219 Z M 135.195312 86.199219 "/>
<path style="fill:none;stroke-width:1;stroke-linecap:round;stroke-linejoin:round;stroke:rgb(0%,0%,0%);stroke-opacity:1;stroke-miterlimit:10;" d="M 193.784375 430.925 C 196.909375 434.05 196.909375 439.1125 193.784375 442.2375 C 190.659375 445.3625 185.59375 445.3625 182.471875 442.2375 C 179.346875 439.1125 179.346875 434.05 182.471875 430.925 C 185.59375 427.8 190.659375 427.8 193.784375 430.925 " transform="matrix(1.25,0,0,1.25,-101.25,-431.25)"/>
<path style=" stroke:none;fill-rule:nonzero;fill:rgb(0%,0%,0%);fill-opacity:1;" d="M 136.308594 116.351562 L 135.996094 116.683594 C 135.664062 117.054688 135.507812 117.132812 135.410156 117.132812 C 135.332031 117.132812 135.253906 117.074219 135.253906 116.996094 C 135.253906 116.761719 135.722656 114.828125 136.25 112.914062 C 136.289062 112.796875 136.308594 112.777344 136.328125 112.679688 L 136.25 112.640625 L 135.566406 112.71875 L 135.527344 112.757812 L 135.410156 113.285156 C 135.3125 112.875 134.980469 112.640625 134.511719 112.640625 C 133.007812 112.640625 131.289062 114.671875 131.289062 116.429688 C 131.289062 117.269531 131.777344 117.71875 132.402344 117.71875 C 133.203125 117.71875 133.847656 117.230469 134.6875 115.960938 C 134.453125 116.878906 134.433594 116.976562 134.433594 117.25 C 134.433594 117.582031 134.570312 117.71875 134.882812 117.71875 C 135.332031 117.71875 135.605469 117.503906 136.445312 116.46875 Z M 135.195312 113.539062 C 135.195312 114.339844 134.863281 115.296875 134.335938 116.078125 C 134.003906 116.546875 133.476562 117.171875 132.910156 117.171875 C 132.5 117.171875 132.226562 116.957031 132.226562 116.332031 C 132.226562 115.628906 132.617188 114.632812 133.105469 113.929688 C 133.574219 113.246094 134.0625 112.894531 134.570312 112.894531 C 134.960938 112.894531 135.195312 113.148438 135.195312 113.539062 Z M 135.195312 113.539062 "/>
<path style="fill:none;stroke-width:1;stroke-linecap:round;stroke-linejoin:round;stroke:rgb(0%,0%,0%);stroke-opacity:1;stroke-miterlimit:10;" d="M 193.784375 452.8 C 196.909375 455.921875 196.909375 460.9875 193.784375 464.1125 C 190.659375 467.2375 185.59375 467.2375 182.471875 464.1125 C 179.346875 460.9875 179.346875 455.921875 182.471875 452.8 C 185.59375 449.675 190.659375 449.675 193.784375 452.8 " transform="matrix(1.25,0,0,1.25,-101.25,-431.25)"/>
<path style=" stroke:none;fill-rule:nonzero;fill:rgb(0%,0%,0%);fill-opacity:1;" d="M 136.308594 143.695312 L 135.996094 144.027344 C 135.664062 144.398438 135.507812 144.476562 135.410156 144.476562 C 135.332031 144.476562 135.253906 144.417969 135.253906 144.339844 C 135.253906 144.105469 135.722656 142.171875 136.25 140.257812 C 136.289062 140.140625 136.308594 140.121094 136.328125 140.023438 L 136.25 139.984375 L 135.566406 140.0625 L 135.527344 140.101562 L 135.410156 140.628906 C 135.3125 140.21875 134.980469 139.984375 134.511719 139.984375 C 133.007812 139.984375 131.289062 142.015625 131.289062 143.773438 C 131.289062 144.613281 131.777344 145.0625 132.402344 145.0625 C 133.203125 145.0625 133.847656 144.574219 134.6875 143.304688 C 134.453125 144.222656 134.433594 144.320312 134.433594 144.59375 C 134.433594 144.925781 134.570312 145.0625 134.882812 145.0625 C 135.332031 145.0625 135.605469 144.847656 136.445312 143.8125 Z M 135.195312 140.882812 C 135.195312 141.683594 134.863281 142.640625 134.335938 143.421875 C 134.003906 143.890625 133.476562 144.515625 132.910156 144.515625 C 132.5 144.515625 132.226562 144.300781 132.226562 143.675781 C 132.226562 142.972656 132.617188 141.976562 133.105469 141.273438 C 133.574219 140.589844 134.0625 140.238281 134.570312 140.238281 C 134.960938 140.238281 135.195312 140.492188 135.195312 140.882812 Z M 135.195312 140.882812 "/>
<path style="fill:none;stroke-width:1;stroke-linecap:round;stroke-linejoin:round;stroke:rgb(0%,0%,0%);stroke-opacity:1;stroke-miterlimit:10;" d="M 193.784375 474.671875 C 196.909375 477.796875 196.909375 482.8625 193.784375 485.9875 C 190.659375 489.109375 185.59375 489.109375 182.471875 485.9875 C 179.346875 482.8625 179.346875 477.796875 182.471875 474.671875 C 185.59375 471.546875 190.659375 471.546875 193.784375 474.671875 " transform="matrix(1.25,0,0,1.25,-101.25,-431.25)"/>
<path style=" stroke:none;fill-rule:nonzero;fill:rgb(0%,0%,0%);fill-opacity:1;" d="M 136.308594 171.035156 L 135.996094 171.367188 C 135.664062 171.738281 135.507812 171.816406 135.410156 171.816406 C 135.332031 171.816406 135.253906 171.757812 135.253906 171.679688 C 135.253906 171.445312 135.722656 169.511719 136.25 167.597656 C 136.289062 167.480469 136.308594 167.460938 136.328125 167.363281 L 136.25 167.324219 L 135.566406 167.402344 L 135.527344 167.441406 L 135.410156 167.96875 C 135.3125 167.558594 134.980469 167.324219 134.511719 167.324219 C 133.007812 167.324219 131.289062 169.355469 131.289062 171.113281 C 131.289062 171.953125 131.777344 172.402344 132.402344 172.402344 C 133.203125 172.402344 133.847656 171.914062 134.6875 170.644531 C 134.453125 171.5625 134.433594 171.660156 134.433594 171.933594 C 134.433594 172.265625 134.570312 172.402344 134.882812 172.402344 C 135.332031 172.402344 135.605469 172.1875 136.445312 171.152344 Z M 135.195312 168.222656 C 135.195312 169.023438 134.863281 169.980469 134.335938 170.761719 C 134.003906 171.230469 133.476562 171.855469 132.910156 171.855469 C 132.5 171.855469 132.226562 171.640625 132.226562 171.015625 C 132.226562 170.3125 132.617188 169.316406 133.105469 168.613281 C 133.574219 167.929688 134.0625 167.578125 134.570312 167.578125 C 134.960938 167.578125 135.195312 167.832031 135.195312 168.222656 Z M 135.195312 168.222656 "/>
<path style="fill:none;stroke-width:1;stroke-linecap:round;stroke-linejoin:round;stroke:rgb(0%,0%,0%);stroke-opacity:1;stroke-miterlimit:10;" d="M 153.93125 414.70625 L 160.203125 414.70625 M 171.203125 414.70625 L 174.225 414.70625 " transform="matrix(1.25,0,0,1.25,-101.25,-431.25)"/>
<path style="fill:none;stroke-width:1;stroke-linecap:butt;stroke-linejoin:miter;stroke:rgb(0%,0%,0%);stroke-opacity:1;stroke-miterlimit:10;" d="M 178.225 414.70625 L 174.225 414.70625 M 174.225 413.20625 L 178.225 414.70625 L 174.225 416.20625 " transform="matrix(1.25,0,0,1.25,-101.25,-431.25)"/>
<path style="fill:none;stroke-width:1;stroke-linecap:round;stroke-linejoin:round;stroke:rgb(0%,0%,0%);stroke-opacity:1;stroke-miterlimit:10;" d="M 153.93125 436.58125 L 160.203125 436.58125 M 171.203125 436.58125 L 174.225 436.58125 " transform="matrix(1.25,0,0,1.25,-101.25,-431.25)"/>
<path style="fill:none;stroke-width:1;stroke-linecap:butt;stroke-linejoin:miter;stroke:rgb(0%,0%,0%);stroke-opacity:1;stroke-miterlimit:10;" d="M 178.225 436.58125 L 174.225 436.58125 M 174.225 435.08125 L 178.225 436.58125 L 174.225 438.08125 " transform="matrix(1.25,0,0,1.25,-101.25,-431.25)"/>
<path style="fill:none;stroke-width:1;stroke-linecap:round;stroke-linejoin:round;stroke:rgb(0%,0%,0%);stroke-opacity:1;stroke-miterlimit:10;" d="M 153.93125 458.45625 L 160.203125 458.45625 M 171.203125 458.45625 L 174.225 458.45625 " transform="matrix(1.25,0,0,1.25,-101.25,-431.25)"/>
<path style="fill:none;stroke-width:1;stroke-linecap:butt;stroke-linejoin:miter;stroke:rgb(0%,0%,0%);stroke-opacity:1;stroke-miterlimit:10;" d="M 178.225 458.45625 L 174.225 458.45625 M 174.225 456.95625 L 178.225 458.45625 L 174.225 459.95625 " transform="matrix(1.25,0,0,1.25,-101.25,-431.25)"/>
<path style="fill:none;stroke-width:1;stroke-linecap:round;stroke-linejoin:round;stroke:rgb(0%,0%,0%);stroke-opacity:1;stroke-miterlimit:10;" d="M 153.93125 480.328125 L 160.203125 480.328125 M 171.203125 480.328125 L 174.225 480.328125 " transform="matrix(1.25,0,0,1.25,-101.25,-431.25)"/>
<path style="fill:none;stroke-width:1;stroke-linecap:butt;stroke-linejoin:miter;stroke:rgb(0%,0%,0%);stroke-opacity:1;stroke-miterlimit:10;" d="M 178.225 480.328125 L 174.225 480.328125 M 174.225 478.828125 L 178.225 480.328125 L 174.225 481.828125 " transform="matrix(1.25,0,0,1.25,-101.25,-431.25)"/>
<path style="fill:none;stroke-width:1;stroke-linecap:round;stroke-linejoin:round;stroke:rgb(0%,0%,0%);stroke-opacity:1;stroke-miterlimit:10;" d="M 219.809375 388.94375 L 219.809375 484.21875 C 219.809375 487.825 216.88125 490.75 213.278125 490.75 C 209.671875 490.75 206.746875 487.825 206.746875 484.21875 L 206.746875 388.94375 C 206.746875 385.340625 209.671875 382.4125 213.278125 382.4125 C 216.88125 382.4125 219.809375 385.340625 219.809375 388.94375 Z M 219.809375 388.94375 " transform="matrix(1.25,0,0,1.25,-101.25,-431.25)"/>
<path style=" stroke:none;fill-rule:nonzero;fill:rgb(0%,0%,0%);fill-opacity:1;" d="M 165.601562 98.054688 C 165.796875 97.742188 166.128906 97.566406 166.382812 97.566406 C 166.910156 97.566406 167.144531 97.9375 167.144531 98.40625 C 167.144531 99.089844 166.773438 99.421875 165.757812 99.675781 L 165.757812 99.851562 L 167.28125 99.792969 L 167.28125 99.675781 C 167.183594 99.578125 167.164062 99.539062 167.164062 99.5 C 167.164062 99.421875 167.203125 99.304688 167.261719 99.167969 C 167.378906 98.933594 167.378906 98.699219 167.378906 98.425781 C 167.378906 97.507812 166.890625 96.863281 166.011719 96.863281 C 165.425781 96.863281 164.898438 97.292969 164.371094 98.210938 L 164.039062 98.835938 C 163.824219 99.207031 163.53125 99.421875 163.199219 99.421875 C 162.730469 99.421875 162.359375 99.070312 162.359375 98.484375 C 162.359375 97.722656 162.847656 97.292969 163.941406 97.058594 L 163.941406 96.882812 L 162.183594 96.882812 L 162.183594 97.019531 C 162.28125 97.097656 162.320312 97.15625 162.320312 97.292969 C 162.320312 97.429688 162.300781 97.546875 162.203125 97.820312 C 162.125 98.074219 162.105469 98.40625 162.105469 98.640625 C 162.105469 99.5 162.769531 100.203125 163.511719 100.203125 C 164.15625 100.203125 164.46875 99.949219 164.898438 99.226562 Z M 165.601562 98.054688 "/>
<path style=" stroke:none;fill-rule:nonzero;fill:rgb(0%,0%,0%);fill-opacity:1;" d="M 164.820312 105.96875 C 166.382812 105.96875 167.398438 104.914062 167.398438 103.527344 C 167.398438 102.023438 166.34375 101.007812 164.78125 101.007812 C 163.21875 101.007812 162.105469 102.0625 162.105469 103.429688 C 162.105469 104.953125 163.257812 105.96875 164.820312 105.96875 Z M 164.527344 104.953125 C 163.21875 104.953125 162.417969 104.464844 162.417969 103.625 C 162.417969 103.214844 162.632812 102.863281 162.984375 102.609375 C 163.589844 102.199219 164.410156 102.023438 165.289062 102.023438 C 166.421875 102.023438 167.085938 102.550781 167.085938 103.3125 C 167.085938 103.800781 166.851562 104.113281 166.519531 104.386719 C 166.050781 104.757812 165.289062 104.953125 164.527344 104.953125 Z M 164.527344 104.953125 "/>
<path style=" stroke:none;fill-rule:nonzero;fill:rgb(0%,0%,0%);fill-opacity:1;" d="M 167.28125 106.535156 L 166.929688 106.535156 L 166.929688 107.453125 L 163.394531 107.453125 C 162.574219 107.453125 162.4375 107.335938 162.398438 106.535156 L 162.222656 106.535156 L 162.222656 109.445312 L 162.398438 109.445312 C 162.417969 108.527344 162.554688 108.410156 163.394531 108.410156 L 166.929688 108.410156 L 166.929688 109.777344 L 167.28125 109.777344 L 167.28125 108.410156 L 168.589844 108.410156 C 169.253906 108.410156 169.585938 108.605469 169.585938 109.035156 C 169.585938 109.289062 169.488281 109.425781 169.15625 109.621094 C 168.84375 109.816406 168.746094 109.953125 168.746094 110.128906 C 168.746094 110.402344 168.941406 110.617188 169.214844 110.617188 C 169.605469 110.617188 169.898438 110.109375 169.898438 109.445312 C 169.898438 108.722656 169.605469 108.136719 169.097656 107.84375 C 168.589844 107.570312 168.179688 107.472656 167.28125 107.453125 Z M 167.28125 106.535156 "/>
<path style=" stroke:none;fill-rule:nonzero;fill:rgb(0%,0%,0%);fill-opacity:1;" d="M 163.082031 113.144531 C 162.789062 112.910156 162.691406 112.714844 162.691406 112.480469 C 162.691406 112.050781 162.984375 111.894531 163.707031 111.894531 L 166.929688 111.894531 L 166.929688 113.027344 L 167.28125 113.027344 L 167.28125 111.894531 L 168.589844 111.894531 C 168.707031 111.894531 168.746094 111.875 168.746094 111.816406 C 168.628906 111.738281 168.53125 111.660156 168.414062 111.582031 C 167.808594 111.152344 167.378906 110.78125 167.222656 110.488281 C 167.144531 110.371094 167.066406 110.292969 167.007812 110.292969 C 166.96875 110.292969 166.949219 110.3125 166.929688 110.351562 L 166.929688 110.9375 L 163.53125 110.9375 C 162.59375 110.9375 162.105469 111.289062 162.105469 111.933594 C 162.105469 112.5 162.378906 112.929688 162.964844 113.300781 Z M 163.082031 113.144531 "/>
<path style=" stroke:none;fill-rule:nonzero;fill:rgb(0%,0%,0%);fill-opacity:1;" d="M 162.222656 121.996094 L 162.398438 121.996094 L 162.417969 121.703125 C 162.4375 121.371094 162.574219 121.234375 163.082031 121.234375 L 165.367188 121.234375 C 166.695312 121.234375 167.398438 120.824219 167.398438 119.925781 C 167.398438 119.261719 167.105469 118.695312 166.460938 118.089844 C 167.085938 117.894531 167.398438 117.503906 167.398438 116.898438 C 167.398438 116.390625 167.300781 115.921875 166.539062 115.179688 L 166.539062 115.160156 L 167.359375 115.160156 L 167.398438 115.0625 C 167.183594 114.496094 167.066406 114.125 166.890625 113.5 L 166.695312 113.5 C 166.734375 113.636719 166.753906 113.734375 166.753906 113.851562 C 166.753906 114.144531 166.558594 114.261719 166.011719 114.261719 L 163.21875 114.261719 C 162.554688 114.261719 162.398438 114.085938 162.398438 113.460938 L 162.222656 113.460938 L 162.222656 115.960938 L 162.398438 115.960938 C 162.417969 115.375 162.535156 115.199219 163.003906 115.199219 L 166.128906 115.199219 C 166.167969 115.199219 166.246094 115.257812 166.324219 115.335938 C 166.597656 115.570312 166.8125 116.117188 166.8125 116.527344 C 166.8125 117.015625 166.34375 117.269531 165.5625 117.269531 L 163.199219 117.269531 C 162.496094 117.269531 162.4375 117.152344 162.398438 116.507812 L 162.222656 116.507812 L 162.222656 119.027344 L 162.398438 119.027344 C 162.398438 118.382812 162.554688 118.207031 163.296875 118.207031 L 166.128906 118.207031 C 166.617188 118.558594 166.8125 118.890625 166.8125 119.417969 C 166.8125 120.0625 166.441406 120.277344 165.542969 120.277344 L 163.238281 120.277344 C 162.574219 120.277344 162.457031 120.179688 162.398438 119.554688 L 162.222656 119.554688 Z M 162.222656 121.996094 "/>
<path style=" stroke:none;fill-rule:nonzero;fill:rgb(0%,0%,0%);fill-opacity:1;" d="M 162.964844 127.019531 C 162.808594 126.824219 162.75 126.707031 162.75 126.53125 C 162.75 126.316406 162.984375 126.179688 163.492188 126.179688 L 165.640625 126.179688 C 166.324219 126.179688 166.558594 126.140625 166.890625 125.867188 C 167.222656 125.59375 167.398438 125.164062 167.398438 124.539062 C 167.398438 124.03125 167.261719 123.5625 167.066406 123.25 C 166.8125 122.839844 166.460938 122.664062 166.167969 122.664062 C 165.855469 122.664062 165.640625 122.917969 165.640625 123.152344 C 165.640625 123.445312 165.894531 123.679688 166.109375 123.679688 C 166.34375 123.679688 166.382812 123.601562 166.578125 123.601562 C 166.871094 123.601562 167.125 123.933594 167.125 124.382812 C 167.125 124.890625 166.8125 125.261719 166.109375 125.261719 L 165.503906 125.261719 C 165.035156 123.992188 164.820312 123.582031 164.605469 123.25 C 164.3125 122.800781 163.863281 122.449219 163.277344 122.449219 C 162.535156 122.449219 162.105469 122.9375 162.105469 123.640625 C 162.105469 124.128906 162.261719 124.675781 162.925781 125.261719 L 162.925781 125.28125 C 162.339844 125.339844 162.105469 125.574219 162.105469 126.003906 C 162.105469 126.375 162.222656 126.667969 162.652344 127.019531 Z M 163.648438 125.261719 C 163.316406 125.261719 163.160156 125.203125 162.945312 124.871094 C 162.828125 124.675781 162.769531 124.441406 162.769531 124.226562 C 162.769531 123.777344 163.023438 123.445312 163.628906 123.445312 C 163.980469 123.445312 164.253906 123.5625 164.488281 123.835938 C 164.761719 124.109375 164.996094 124.578125 165.230469 125.261719 Z M 163.648438 125.261719 "/>
<path style=" stroke:none;fill-rule:nonzero;fill:rgb(0%,0%,0%);fill-opacity:1;" d="M 162.222656 132.421875 L 162.398438 132.421875 C 162.398438 132.070312 162.574219 131.816406 163.0625 131.503906 L 165.269531 130.058594 L 166.617188 130.996094 C 166.929688 131.210938 167.105469 131.542969 167.125 131.894531 L 167.28125 131.894531 L 167.28125 130.117188 L 167.125 130.117188 C 167.085938 130.46875 167.027344 130.566406 166.871094 130.566406 C 166.734375 130.566406 166.539062 130.410156 166.128906 130.15625 C 165.972656 130.039062 165.796875 129.941406 165.640625 129.824219 C 165.71875 129.785156 165.796875 129.726562 165.875 129.667969 C 166.34375 129.335938 166.714844 129.140625 166.871094 129.140625 C 167.046875 129.140625 167.105469 129.296875 167.125 129.628906 L 167.28125 129.628906 L 167.28125 127.304688 L 167.125 127.304688 L 167.125 127.402344 C 167.125 127.734375 166.96875 127.929688 166.441406 128.261719 L 164.820312 129.335938 L 162.964844 128.046875 C 162.496094 127.734375 162.417969 127.597656 162.398438 127.226562 L 162.222656 127.226562 L 162.222656 128.847656 L 162.398438 128.847656 C 162.398438 128.535156 162.457031 128.398438 162.59375 128.398438 C 162.671875 128.398438 162.808594 128.476562 163.0625 128.632812 L 164.429688 129.511719 L 162.867188 130.546875 C 162.789062 130.585938 162.730469 130.605469 162.652344 130.605469 C 162.457031 130.605469 162.417969 130.527344 162.398438 130.15625 L 162.222656 130.15625 Z M 162.222656 132.421875 "/>
<path style=" stroke:none;fill-rule:nonzero;fill:rgb(0%,0%,0%);fill-opacity:1;" d="M 118.5 11.292969 L 117.933594 11.859375 C 118.753906 12.445312 119.417969 13.011719 119.886719 13.539062 L 120.472656 12.953125 C 119.945312 12.40625 119.28125 11.859375 118.5 11.292969 Z M 118.226562 13.949219 L 117.660156 14.496094 C 118.441406 15.101562 119.066406 15.667969 119.515625 16.195312 L 120.082031 15.609375 C 119.59375 15.042969 118.96875 14.496094 118.226562 13.949219 Z M 119.652344 17.054688 C 119.144531 18.402344 118.539062 19.710938 117.875 21 L 118.675781 21.351562 C 119.300781 20.101562 119.867188 18.773438 120.355469 17.347656 Z M 120.902344 13.03125 L 120.902344 13.832031 L 123.832031 13.832031 L 123.832031 16.527344 L 121.214844 16.527344 L 121.214844 17.308594 L 123.832031 17.308594 L 123.832031 20.257812 L 120.628906 20.257812 L 120.628906 21.058594 L 127.777344 21.058594 L 127.777344 20.257812 L 124.652344 20.257812 L 124.652344 17.308594 L 127.25 17.308594 L 127.25 16.527344 L 124.652344 16.527344 L 124.652344 13.832031 L 127.5625 13.832031 L 127.5625 13.03125 L 124.203125 13.03125 L 124.671875 12.855469 C 124.496094 12.308594 124.242188 11.722656 123.929688 11.078125 L 123.167969 11.273438 C 123.460938 11.839844 123.714844 12.425781 123.929688 13.03125 Z M 120.902344 13.03125 "/>
<path style=" stroke:none;fill-rule:nonzero;fill:rgb(0%,0%,0%);fill-opacity:1;" d="M 131.371094 12.503906 L 131.722656 13.402344 L 129.027344 13.402344 L 129.027344 14.105469 L 138.792969 14.105469 L 138.792969 13.402344 L 136 13.402344 L 136.429688 12.503906 L 138.265625 12.503906 L 138.265625 11.820312 L 134.300781 11.820312 C 134.183594 11.527344 134.066406 11.253906 133.949219 11.019531 L 133.089844 11.15625 C 133.207031 11.351562 133.304688 11.566406 133.421875 11.820312 L 129.554688 11.820312 L 129.554688 12.503906 Z M 132.5625 13.402344 L 132.210938 12.503906 L 135.589844 12.503906 L 135.140625 13.402344 Z M 130.316406 14.769531 L 130.316406 18.109375 L 137.503906 18.109375 L 137.503906 14.769531 Z M 136.722656 17.464844 L 131.097656 17.464844 L 131.097656 16.722656 L 136.722656 16.722656 Z M 131.097656 16.136719 L 131.097656 15.414062 L 136.722656 15.414062 L 136.722656 16.136719 Z M 129.867188 18.636719 C 129.652344 19.378906 129.300781 20.0625 128.851562 20.667969 L 129.554688 21.117188 C 130.023438 20.453125 130.375 19.691406 130.648438 18.792969 Z M 135.453125 21.253906 C 135.882812 21.253906 136.175781 21.175781 136.390625 21.039062 C 136.605469 20.863281 136.761719 20.394531 136.839844 19.613281 L 136.078125 19.378906 C 136.039062 19.925781 135.941406 20.277344 135.804688 20.394531 C 135.726562 20.492188 135.550781 20.53125 135.296875 20.53125 L 132.933594 20.53125 C 132.582031 20.53125 132.40625 20.355469 132.40625 20.042969 L 132.40625 18.734375 L 131.566406 18.734375 L 131.566406 20.21875 C 131.566406 20.921875 131.9375 21.253906 132.699219 21.253906 Z M 134.027344 18.304688 L 133.34375 18.734375 C 133.8125 19.222656 134.183594 19.652344 134.457031 20.0625 L 135.121094 19.59375 C 134.886719 19.222656 134.515625 18.792969 134.027344 18.304688 Z M 137.5625 18.519531 L 136.917969 18.929688 C 137.523438 19.671875 137.992188 20.355469 138.363281 20.960938 L 139.027344 20.492188 C 138.695312 19.925781 138.1875 19.28125 137.5625 18.519531 Z M 137.5625 18.519531 "/>
<path style=" stroke:none;fill-rule:nonzero;fill:rgb(0%,0%,0%);fill-opacity:1;" d="M 144.222656 11.15625 L 144.222656 12.289062 C 144.222656 12.660156 144.203125 13.050781 144.183594 13.421875 L 140.84375 13.421875 L 140.84375 14.222656 L 144.105469 14.222656 C 143.988281 15.53125 143.734375 16.664062 143.363281 17.601562 C 142.777344 18.890625 141.742188 19.964844 140.257812 20.746094 L 140.707031 21.429688 C 142.210938 20.667969 143.285156 19.59375 143.96875 18.226562 C 144.457031 17.152344 144.769531 15.824219 144.945312 14.222656 L 148.5 14.222656 C 148.441406 16.878906 148.304688 18.617188 148.089844 19.4375 C 147.894531 20.21875 147.484375 20.609375 146.839844 20.609375 C 146.429688 20.609375 146 20.589844 145.550781 20.570312 L 145.765625 21.371094 L 147.25 21.371094 C 147.835938 21.3125 148.246094 21.078125 148.519531 20.628906 C 148.792969 20.160156 148.988281 19.320312 149.105469 18.148438 C 149.203125 16.9375 149.28125 15.375 149.320312 13.421875 L 145.023438 13.421875 C 145.042969 13.050781 145.042969 12.679688 145.0625 12.289062 L 145.0625 11.15625 Z M 144.222656 11.15625 "/>
<path style=" stroke:none;fill-rule:nonzero;fill:rgb(0%,0%,0%);fill-opacity:1;" d="M 115.785156 27.894531 L 115.785156 28.65625 L 118.421875 28.65625 L 118.421875 32.894531 L 115.472656 32.894531 L 115.472656 33.675781 L 118.421875 33.675781 L 118.421875 37.699219 L 119.222656 37.699219 L 119.222656 33.675781 L 122.230469 33.675781 L 122.230469 32.894531 L 119.222656 32.894531 L 119.222656 28.65625 L 121.878906 28.65625 L 121.878906 27.894531 Z M 120.863281 29.222656 C 120.609375 30.355469 120.316406 31.292969 119.984375 32.035156 L 120.667969 32.289062 C 121.019531 31.449219 121.332031 30.511719 121.566406 29.417969 Z M 116.644531 29.28125 L 115.960938 29.515625 C 116.332031 30.394531 116.625 31.332031 116.859375 32.308594 L 117.542969 32.113281 C 117.289062 31.058594 116.996094 30.101562 116.644531 29.28125 Z M 113.226562 27.484375 L 112.679688 28.03125 C 113.480469 28.636719 114.125 29.222656 114.613281 29.789062 L 115.160156 29.222656 C 114.632812 28.636719 113.988281 28.070312 113.226562 27.484375 Z M 111.878906 30.824219 L 111.878906 31.585938 L 113.539062 31.585938 L 113.539062 36.078125 C 113.539062 36.253906 113.441406 36.429688 113.285156 36.585938 L 113.597656 37.289062 C 114.339844 36.800781 115.023438 36.214844 115.6875 35.570312 L 115.472656 34.710938 C 115.0625 35.121094 114.671875 35.492188 114.320312 35.804688 L 114.320312 30.824219 Z M 111.878906 30.824219 "/>
<path style=" stroke:none;fill-rule:nonzero;fill:rgb(0%,0%,0%);fill-opacity:1;" d="M 126.722656 27.621094 C 126.273438 28.460938 125.785156 29.203125 125.238281 29.828125 C 124.613281 30.53125 123.929688 31.117188 123.148438 31.546875 L 123.597656 32.25 C 124.535156 31.625 125.277344 30.980469 125.84375 30.335938 C 126.371094 29.730469 126.898438 28.96875 127.425781 28.03125 Z M 127.09375 32.621094 C 126.859375 33.695312 126.507812 34.535156 126.039062 35.199219 C 125.511719 35.863281 124.710938 36.488281 123.675781 37.054688 L 124.203125 37.71875 C 125.355469 37.074219 126.214844 36.371094 126.78125 35.550781 C 127.269531 34.828125 127.640625 33.851562 127.914062 32.621094 L 130.707031 32.621094 C 130.667969 34.378906 130.53125 35.511719 130.335938 36.058594 C 130.140625 36.585938 129.75 36.839844 129.144531 36.839844 C 128.558594 36.839844 127.933594 36.820312 127.289062 36.800781 L 127.503906 37.601562 L 129.554688 37.601562 C 130.121094 37.5625 130.53125 37.386719 130.765625 37.054688 C 131.039062 36.722656 131.214844 36.117188 131.332031 35.257812 C 131.429688 34.398438 131.507812 33.265625 131.527344 31.859375 L 124.828125 31.859375 L 124.828125 32.621094 Z M 129.886719 27.464844 L 129.203125 27.855469 C 129.886719 29.632812 131.097656 31.078125 132.835938 32.210938 L 133.382812 31.566406 C 131.703125 30.570312 130.550781 29.203125 129.886719 27.464844 Z M 129.886719 27.464844 "/>
<path style=" stroke:none;fill-rule:nonzero;fill:rgb(0%,0%,0%);fill-opacity:1;" d="M 136.292969 35.199219 C 137.367188 34.515625 138.382812 33.714844 139.339844 32.796875 L 139.339844 34.535156 C 139.339844 34.90625 139.183594 35.082031 138.871094 35.082031 C 138.539062 35.082031 138.226562 35.0625 137.933594 35.0625 L 138.148438 35.804688 L 139.164062 35.804688 C 139.769531 35.804688 140.082031 35.472656 140.082031 34.828125 L 140.082031 32.933594 C 140.765625 33.460938 141.605469 34.183594 142.582031 35.140625 L 143.050781 34.4375 C 142.035156 33.558594 141.058594 32.796875 140.082031 32.113281 L 140.082031 30.394531 C 141.195312 29.789062 142.191406 29.183594 143.089844 28.558594 L 143.089844 27.796875 L 136.117188 27.796875 L 136.117188 28.558594 L 141.878906 28.558594 C 141.3125 28.929688 140.472656 29.398438 139.339844 29.945312 L 139.339844 31.878906 C 138.265625 32.894531 137.171875 33.734375 136 34.398438 Z M 143.285156 29.847656 L 143.285156 36.332031 L 135.785156 36.332031 L 135.785156 29.847656 L 135.003906 29.847656 L 135.003906 37.699219 L 135.785156 37.699219 L 135.785156 37.074219 L 143.285156 37.074219 L 143.285156 37.71875 L 144.066406 37.71875 L 144.066406 29.847656 Z M 136.996094 30.199219 L 136.410156 30.570312 C 137.054688 31.195312 137.582031 31.742188 137.972656 32.269531 L 138.597656 31.839844 C 138.226562 31.371094 137.699219 30.824219 136.996094 30.199219 Z M 142.113281 30.121094 C 141.703125 30.804688 141.175781 31.410156 140.589844 31.898438 L 141.175781 32.308594 C 141.78125 31.78125 142.328125 31.15625 142.777344 30.433594 Z M 142.113281 30.121094 "/>
<path style=" stroke:none;fill-rule:nonzero;fill:rgb(0%,0%,0%);fill-opacity:1;" d="M 152.5625 29.867188 L 154.222656 29.867188 C 154.183594 31.390625 153.949219 32.71875 153.5 33.851562 C 153.050781 32.914062 152.699219 31.78125 152.425781 30.453125 Z M 153.128906 34.671875 C 152.621094 35.628906 151.9375 36.390625 151.058594 36.996094 L 151.46875 37.679688 C 152.308594 37.074219 153.011719 36.3125 153.558594 35.414062 C 154.105469 36.371094 154.789062 37.132812 155.570312 37.699219 L 156.019531 37.035156 C 155.199219 36.46875 154.515625 35.707031 153.929688 34.691406 C 154.574219 33.363281 154.90625 31.742188 154.964844 29.867188 L 155.707031 29.867188 L 155.707031 29.105469 L 152.738281 29.105469 C 152.816406 28.597656 152.914062 28.070312 152.972656 27.484375 L 152.191406 27.347656 C 151.957031 29.496094 151.507812 31.195312 150.84375 32.445312 L 151.351562 33.070312 C 151.585938 32.660156 151.820312 32.210938 152.015625 31.683594 C 152.328125 32.816406 152.699219 33.792969 153.128906 34.671875 Z M 147.796875 32.601562 C 147.71875 32.835938 147.640625 33.070312 147.542969 33.324219 L 145.882812 33.324219 L 145.882812 34.027344 L 147.210938 34.027344 C 146.996094 34.476562 146.742188 34.925781 146.449219 35.433594 C 146.996094 35.628906 147.503906 35.84375 148.011719 36.058594 C 147.347656 36.429688 146.546875 36.742188 145.628906 36.976562 L 146.019531 37.660156 C 147.132812 37.347656 148.070312 36.917969 148.8125 36.410156 C 149.476562 36.703125 150.0625 36.996094 150.550781 37.289062 L 150.980469 36.664062 C 150.492188 36.390625 149.984375 36.15625 149.4375 35.902344 C 150.023438 35.355469 150.433594 34.730469 150.6875 33.988281 L 150.6875 33.324219 L 148.324219 33.324219 C 148.402344 33.109375 148.480469 32.914062 148.558594 32.699219 Z M 148.695312 35.589844 C 148.285156 35.414062 147.855469 35.257812 147.40625 35.101562 C 147.640625 34.769531 147.835938 34.398438 148.011719 34.027344 L 149.945312 34.027344 C 149.691406 34.613281 149.261719 35.140625 148.695312 35.589844 Z M 146.78125 27.582031 L 146.136719 27.796875 C 146.410156 28.226562 146.664062 28.714844 146.898438 29.261719 L 147.484375 28.988281 C 147.269531 28.5 147.054688 28.03125 146.78125 27.582031 Z M 150.199219 27.5625 C 150.003906 28.03125 149.710938 28.5 149.339844 28.988281 L 149.925781 29.28125 C 150.277344 28.8125 150.550781 28.324219 150.785156 27.816406 Z M 145.921875 29.535156 L 145.921875 30.238281 L 147.503906 30.238281 C 147.171875 30.863281 146.566406 31.429688 145.707031 31.9375 L 146.097656 32.582031 C 147.054688 31.9375 147.738281 31.175781 148.109375 30.277344 L 148.109375 32.40625 L 148.871094 32.40625 L 148.871094 30.960938 C 149.261719 31.214844 149.75 31.585938 150.316406 32.035156 L 150.726562 31.410156 C 150.101562 31.019531 149.476562 30.667969 148.871094 30.375 L 148.871094 30.238281 L 150.902344 30.238281 L 150.902344 29.535156 L 148.871094 29.535156 L 148.871094 27.386719 L 148.109375 27.386719 L 148.109375 29.535156 Z M 145.921875 29.535156 "/>
<path style="fill:none;stroke-width:1;stroke-linecap:round;stroke-linejoin:round;stroke:rgb(0%,0%,0%);stroke-opacity:1;stroke-miterlimit:10;" d="M 273.059375 387.18125 C 276.18125 390.3 276.18125 395.36875 273.059375 398.49375 C 269.934375 401.61875 264.86875 401.61875 261.74375 398.49375 C 258.61875 395.36875 258.61875 390.3 261.74375 387.18125 C 264.86875 384.05625 269.934375 384.05625 273.059375 387.18125 " transform="matrix(1.25,0,0,1.25,-101.25,-431.25)"/>
<g clip-path="url(#clip1)" clip-rule="nonzero">
<path style=" stroke:none;fill-rule:nonzero;fill:rgb(0%,0%,0%);fill-opacity:1;" d="M 233.359375 59.789062 L 236.09375 57.054688 C 236.230469 56.898438 236.269531 56.859375 236.269531 56.761719 C 236.269531 56.605469 236.132812 56.488281 235.996094 56.488281 C 235.878906 56.488281 235.820312 56.546875 235.703125 56.664062 L 232.96875 59.398438 L 230.214844 56.664062 C 230.058594 56.507812 230.039062 56.488281 229.921875 56.488281 C 229.785156 56.488281 229.648438 56.605469 229.648438 56.761719 C 229.648438 56.859375 229.707031 56.917969 229.824219 57.054688 L 232.558594 59.789062 L 229.824219 62.503906 C 229.6875 62.640625 229.648438 62.71875 229.648438 62.816406 C 229.648438 62.953125 229.785156 63.089844 229.921875 63.089844 C 230.039062 63.089844 230.058594 63.050781 230.214844 62.914062 L 232.949219 60.160156 L 235.683594 62.914062 C 235.820312 63.050781 235.898438 63.089844 235.996094 63.089844 C 236.152344 63.089844 236.269531 62.953125 236.269531 62.816406 C 236.269531 62.699219 236.230469 62.679688 236.09375 62.523438 Z M 233.359375 59.789062 "/>
</g>
<path style="fill:none;stroke-width:1;stroke-linecap:round;stroke-linejoin:round;stroke:rgb(0%,0%,0%);stroke-opacity:1;stroke-miterlimit:10;" d="M 273.059375 409.05 C 276.18125 412.175 276.18125 417.24375 273.059375 420.36875 C 269.934375 423.4875 264.86875 423.4875 261.74375 420.36875 C 258.61875 417.24375 258.61875 412.175 261.74375 409.05 C 264.86875 405.925 269.934375 405.925 273.059375 409.05 " transform="matrix(1.25,0,0,1.25,-101.25,-431.25)"/>
<g clip-path="url(#clip2)" clip-rule="nonzero">
<path style=" stroke:none;fill-rule:nonzero;fill:rgb(0%,0%,0%);fill-opacity:1;" d="M 233.359375 87.132812 L 236.09375 84.398438 C 236.230469 84.242188 236.269531 84.203125 236.269531 84.105469 C 236.269531 83.949219 236.132812 83.832031 235.996094 83.832031 C 235.878906 83.832031 235.820312 83.890625 235.703125 84.007812 L 232.96875 86.742188 L 230.214844 84.007812 C 230.058594 83.851562 230.039062 83.832031 229.921875 83.832031 C 229.785156 83.832031 229.648438 83.949219 229.648438 84.105469 C 229.648438 84.203125 229.707031 84.261719 229.824219 84.398438 L 232.558594 87.132812 L 229.824219 89.847656 C 229.6875 89.984375 229.648438 90.0625 229.648438 90.160156 C 229.648438 90.296875 229.785156 90.433594 229.921875 90.433594 C 230.039062 90.433594 230.058594 90.394531 230.214844 90.257812 L 232.949219 87.503906 L 235.683594 90.257812 C 235.820312 90.394531 235.898438 90.433594 235.996094 90.433594 C 236.152344 90.433594 236.269531 90.296875 236.269531 90.160156 C 236.269531 90.042969 236.230469 90.023438 236.09375 89.867188 Z M 233.359375 87.132812 "/>
</g>
<path style="fill:none;stroke-width:1;stroke-linecap:round;stroke-linejoin:round;stroke:rgb(0%,0%,0%);stroke-opacity:1;stroke-miterlimit:10;" d="M 273.059375 430.925 C 276.18125 434.05 276.18125 439.1125 273.059375 442.2375 C 269.934375 445.3625 264.86875 445.3625 261.74375 442.2375 C 258.61875 439.1125 258.61875 434.05 261.74375 430.925 C 264.86875 427.8 269.934375 427.8 273.059375 430.925 " transform="matrix(1.25,0,0,1.25,-101.25,-431.25)"/>
<g clip-path="url(#clip3)" clip-rule="nonzero">
<path style=" stroke:none;fill-rule:nonzero;fill:rgb(0%,0%,0%);fill-opacity:1;" d="M 233.359375 114.472656 L 236.09375 111.738281 C 236.230469 111.582031 236.269531 111.542969 236.269531 111.445312 C 236.269531 111.289062 236.132812 111.171875 235.996094 111.171875 C 235.878906 111.171875 235.820312 111.230469 235.703125 111.347656 L 232.96875 114.082031 L 230.214844 111.347656 C 230.058594 111.191406 230.039062 111.171875 229.921875 111.171875 C 229.785156 111.171875 229.648438 111.289062 229.648438 111.445312 C 229.648438 111.542969 229.707031 111.601562 229.824219 111.738281 L 232.558594 114.472656 L 229.824219 117.1875 C 229.6875 117.324219 229.648438 117.402344 229.648438 117.5 C 229.648438 117.636719 229.785156 117.773438 229.921875 117.773438 C 230.039062 117.773438 230.058594 117.734375 230.214844 117.597656 L 232.949219 114.84375 L 235.683594 117.597656 C 235.820312 117.734375 235.898438 117.773438 235.996094 117.773438 C 236.152344 117.773438 236.269531 117.636719 236.269531 117.5 C 236.269531 117.382812 236.230469 117.363281 236.09375 117.207031 Z M 233.359375 114.472656 "/>
</g>
<path style="fill:none;stroke-width:1;stroke-linecap:round;stroke-linejoin:round;stroke:rgb(0%,0%,0%);stroke-opacity:1;stroke-miterlimit:10;" d="M 273.059375 452.8 C 276.18125 455.921875 276.18125 460.9875 273.059375 464.1125 C 269.934375 467.2375 264.86875 467.2375 261.74375 464.1125 C 258.61875 460.9875 258.61875 455.921875 261.74375 452.8 C 264.86875 449.675 269.934375 449.675 273.059375 452.8 " transform="matrix(1.25,0,0,1.25,-101.25,-431.25)"/>
<g clip-path="url(#clip4)" clip-rule="nonzero">
<path style=" stroke:none;fill-rule:nonzero;fill:rgb(0%,0%,0%);fill-opacity:1;" d="M 233.359375 141.816406 L 236.09375 139.082031 C 236.230469 138.925781 236.269531 138.886719 236.269531 138.789062 C 236.269531 138.632812 236.132812 138.515625 235.996094 138.515625 C 235.878906 138.515625 235.820312 138.574219 235.703125 138.691406 L 232.96875 141.425781 L 230.214844 138.691406 C 230.058594 138.535156 230.039062 138.515625 229.921875 138.515625 C 229.785156 138.515625 229.648438 138.632812 229.648438 138.789062 C 229.648438 138.886719 229.707031 138.945312 229.824219 139.082031 L 232.558594 141.816406 L 229.824219 144.53125 C 229.6875 144.667969 229.648438 144.746094 229.648438 144.84375 C 229.648438 144.980469 229.785156 145.117188 229.921875 145.117188 C 230.039062 145.117188 230.058594 145.078125 230.214844 144.941406 L 232.949219 142.1875 L 235.683594 144.941406 C 235.820312 145.078125 235.898438 145.117188 235.996094 145.117188 C 236.152344 145.117188 236.269531 144.980469 236.269531 144.84375 C 236.269531 144.726562 236.230469 144.707031 236.09375 144.550781 Z M 233.359375 141.816406 "/>
</g>
<path style="fill:none;stroke-width:1;stroke-linecap:round;stroke-linejoin:round;stroke:rgb(0%,0%,0%);stroke-opacity:1;stroke-miterlimit:10;" d="M 273.059375 474.671875 C 276.18125 477.796875 276.18125 482.8625 273.059375 485.9875 C 269.934375 489.109375 264.86875 489.109375 261.74375 485.9875 C 258.61875 482.8625 258.61875 477.796875 261.74375 474.671875 C 264.86875 471.546875 269.934375 471.546875 273.059375 474.671875 " transform="matrix(1.25,0,0,1.25,-101.25,-431.25)"/>
<g clip-path="url(#clip5)" clip-rule="nonzero">
<path style=" stroke:none;fill-rule:nonzero;fill:rgb(0%,0%,0%);fill-opacity:1;" d="M 233.359375 169.160156 L 236.09375 166.425781 C 236.230469 166.269531 236.269531 166.230469 236.269531 166.132812 C 236.269531 165.976562 236.132812 165.859375 235.996094 165.859375 C 235.878906 165.859375 235.820312 165.917969 235.703125 166.035156 L 232.96875 168.769531 L 230.214844 166.035156 C 230.058594 165.878906 230.039062 165.859375 229.921875 165.859375 C 229.785156 165.859375 229.648438 165.976562 229.648438 166.132812 C 229.648438 166.230469 229.707031 166.289062 229.824219 166.425781 L 232.558594 169.160156 L 229.824219 171.875 C 229.6875 172.011719 229.648438 172.089844 229.648438 172.1875 C 229.648438 172.324219 229.785156 172.460938 229.921875 172.460938 C 230.039062 172.460938 230.058594 172.421875 230.214844 172.285156 L 232.949219 169.53125 L 235.683594 172.285156 C 235.820312 172.421875 235.898438 172.460938 235.996094 172.460938 C 236.152344 172.460938 236.269531 172.324219 236.269531 172.1875 C 236.269531 172.070312 236.230469 172.050781 236.09375 171.894531 Z M 233.359375 169.160156 "/>
</g>
<path style="fill:none;stroke-width:1;stroke-linecap:round;stroke-linejoin:round;stroke:rgb(0%,0%,0%);stroke-opacity:1;stroke-miterlimit:10;" d="M 314.99375 480.328125 L 281.3 480.328125 " transform="matrix(1.25,0,0,1.25,-101.25,-431.25)"/>
<path style="fill:none;stroke-width:1;stroke-linecap:butt;stroke-linejoin:miter;stroke:rgb(0%,0%,0%);stroke-opacity:1;stroke-miterlimit:10;" d="M 277.3 480.328125 L 281.3 480.328125 M 281.3 481.828125 L 277.3 480.328125 L 281.3 478.828125 " transform="matrix(1.25,0,0,1.25,-101.25,-431.25)"/>
<path style="fill:none;stroke-width:1;stroke-linecap:round;stroke-linejoin:round;stroke:rgb(0%,0%,0%);stroke-opacity:1;stroke-miterlimit:10;" d="M 300.35625 349.49375 C 303.475 352.61875 303.475 357.684375 300.35625 360.80625 C 297.23125 363.93125 292.1625 363.93125 289.0375 360.80625 C 285.9125 357.684375 285.9125 352.61875 289.0375 349.49375 C 292.1625 346.36875 297.23125 346.36875 300.35625 349.49375 " transform="matrix(1.25,0,0,1.25,-101.25,-431.25)"/>
<path style=" stroke:none;fill-rule:nonzero;fill:rgb(0%,0%,0%);fill-opacity:1;" d="M 270.417969 13.332031 L 270.417969 12.589844 L 267.488281 12.589844 L 267.488281 9.660156 L 266.746094 9.660156 L 266.746094 12.589844 L 263.816406 12.589844 L 263.816406 13.332031 L 266.746094 13.332031 L 266.746094 16.28125 L 267.488281 16.28125 L 267.488281 13.332031 Z M 270.417969 13.332031 "/>
<path style=" stroke:none;fill-rule:nonzero;fill:rgb(0%,0%,0%);fill-opacity:1;" d="M 180.875 17.726562 L 180.308594 18.292969 C 181.128906 18.878906 181.792969 19.445312 182.261719 19.972656 L 182.847656 19.386719 C 182.320312 18.839844 181.65625 18.292969 180.875 17.726562 Z M 180.601562 20.382812 L 180.035156 20.929688 C 180.816406 21.535156 181.441406 22.101562 181.890625 22.628906 L 182.457031 22.042969 C 181.96875 21.476562 181.34375 20.929688 180.601562 20.382812 Z M 182.027344 23.488281 C 181.519531 24.835938 180.914062 26.144531 180.25 27.433594 L 181.050781 27.785156 C 181.675781 26.535156 182.242188 25.207031 182.730469 23.78125 Z M 183.277344 19.464844 L 183.277344 20.265625 L 186.207031 20.265625 L 186.207031 22.960938 L 183.589844 22.960938 L 183.589844 23.742188 L 186.207031 23.742188 L 186.207031 26.691406 L 183.003906 26.691406 L 183.003906 27.492188 L 190.152344 27.492188 L 190.152344 26.691406 L 187.027344 26.691406 L 187.027344 23.742188 L 189.625 23.742188 L 189.625 22.960938 L 187.027344 22.960938 L 187.027344 20.265625 L 189.9375 20.265625 L 189.9375 19.464844 L 186.578125 19.464844 L 187.046875 19.289062 C 186.871094 18.742188 186.617188 18.15625 186.304688 17.511719 L 185.542969 17.707031 C 185.835938 18.273438 186.089844 18.859375 186.304688 19.464844 Z M 183.277344 19.464844 "/>
<path style=" stroke:none;fill-rule:nonzero;fill:rgb(0%,0%,0%);fill-opacity:1;" d="M 193.746094 18.9375 L 194.097656 19.835938 L 191.402344 19.835938 L 191.402344 20.539062 L 201.167969 20.539062 L 201.167969 19.835938 L 198.375 19.835938 L 198.804688 18.9375 L 200.640625 18.9375 L 200.640625 18.253906 L 196.675781 18.253906 C 196.558594 17.960938 196.441406 17.6875 196.324219 17.453125 L 195.464844 17.589844 C 195.582031 17.785156 195.679688 18 195.796875 18.253906 L 191.929688 18.253906 L 191.929688 18.9375 Z M 194.9375 19.835938 L 194.585938 18.9375 L 197.964844 18.9375 L 197.515625 19.835938 Z M 192.691406 21.203125 L 192.691406 24.542969 L 199.878906 24.542969 L 199.878906 21.203125 Z M 199.097656 23.898438 L 193.472656 23.898438 L 193.472656 23.15625 L 199.097656 23.15625 Z M 193.472656 22.570312 L 193.472656 21.847656 L 199.097656 21.847656 L 199.097656 22.570312 Z M 192.242188 25.070312 C 192.027344 25.8125 191.675781 26.496094 191.226562 27.101562 L 191.929688 27.550781 C 192.398438 26.886719 192.75 26.125 193.023438 25.226562 Z M 197.828125 27.6875 C 198.257812 27.6875 198.550781 27.609375 198.765625 27.472656 C 198.980469 27.296875 199.136719 26.828125 199.214844 26.046875 L 198.453125 25.8125 C 198.414062 26.359375 198.316406 26.710938 198.179688 26.828125 C 198.101562 26.925781 197.925781 26.964844 197.671875 26.964844 L 195.308594 26.964844 C 194.957031 26.964844 194.78125 26.789062 194.78125 26.476562 L 194.78125 25.167969 L 193.941406 25.167969 L 193.941406 26.652344 C 193.941406 27.355469 194.3125 27.6875 195.074219 27.6875 Z M 196.402344 24.738281 L 195.71875 25.167969 C 196.1875 25.65625 196.558594 26.085938 196.832031 26.496094 L 197.496094 26.027344 C 197.261719 25.65625 196.890625 25.226562 196.402344 24.738281 Z M 199.9375 24.953125 L 199.292969 25.363281 C 199.898438 26.105469 200.367188 26.789062 200.738281 27.394531 L 201.402344 26.925781 C 201.070312 26.359375 200.5625 25.714844 199.9375 24.953125 Z M 199.9375 24.953125 "/>
<path style=" stroke:none;fill-rule:nonzero;fill:rgb(0%,0%,0%);fill-opacity:1;" d="M 206.597656 17.589844 L 206.597656 18.722656 C 206.597656 19.09375 206.578125 19.484375 206.558594 19.855469 L 203.21875 19.855469 L 203.21875 20.65625 L 206.480469 20.65625 C 206.363281 21.964844 206.109375 23.097656 205.738281 24.035156 C 205.152344 25.324219 204.117188 26.398438 202.632812 27.179688 L 203.082031 27.863281 C 204.585938 27.101562 205.660156 26.027344 206.34375 24.660156 C 206.832031 23.585938 207.144531 22.257812 207.320312 20.65625 L 210.875 20.65625 C 210.816406 23.3125 210.679688 25.050781 210.464844 25.871094 C 210.269531 26.652344 209.859375 27.042969 209.214844 27.042969 C 208.804688 27.042969 208.375 27.023438 207.925781 27.003906 L 208.140625 27.804688 L 209.625 27.804688 C 210.210938 27.746094 210.621094 27.511719 210.894531 27.0625 C 211.167969 26.59375 211.363281 25.753906 211.480469 24.582031 C 211.578125 23.371094 211.65625 21.808594 211.695312 19.855469 L 207.398438 19.855469 C 207.417969 19.484375 207.417969 19.113281 207.4375 18.722656 L 207.4375 17.589844 Z M 206.597656 17.589844 "/>
<path style=" stroke:none;fill-rule:nonzero;fill:rgb(0%,0%,0%);fill-opacity:1;" d="M 188.257812 38.273438 C 188.609375 38.683594 189.019531 39.25 189.507812 39.953125 L 189.976562 39.269531 C 189.390625 38.585938 188.824219 37.980469 188.257812 37.433594 L 188.257812 36.789062 L 189.742188 36.789062 L 189.742188 36.007812 L 188.257812 36.007812 L 188.257812 33.820312 L 187.457031 33.820312 L 187.457031 36.007812 L 185.679688 36.007812 L 185.679688 36.789062 L 187.4375 36.789062 C 187.046875 38.195312 186.382812 39.445312 185.445312 40.539062 L 185.816406 41.457031 C 186.5 40.5 187.046875 39.425781 187.457031 38.234375 L 187.457031 44.074219 L 188.257812 44.074219 Z M 194.292969 35.265625 C 194.019531 37.023438 193.492188 38.585938 192.691406 39.933594 C 191.871094 38.546875 191.382812 37.003906 191.265625 35.265625 Z M 192.203125 40.65625 C 191.441406 41.710938 190.464844 42.648438 189.292969 43.429688 L 189.800781 44.074219 C 190.933594 43.332031 191.910156 42.433594 192.691406 41.359375 C 193.394531 42.355469 194.273438 43.253906 195.347656 44.09375 L 195.894531 43.429688 C 194.78125 42.609375 193.882812 41.691406 193.160156 40.675781 C 194.117188 39.171875 194.761719 37.355469 195.074219 35.265625 L 195.074219 34.503906 L 190.015625 34.503906 L 190.015625 35.265625 L 190.464844 35.265625 C 190.621094 37.238281 191.207031 39.035156 192.203125 40.65625 Z M 192.203125 40.65625 "/>
<path style=" stroke:none;fill-rule:nonzero;fill:rgb(0%,0%,0%);fill-opacity:1;" d="M 198.023438 37.121094 L 198.023438 40.851562 L 201.5 40.851562 L 201.5 41.632812 L 197.496094 41.632812 L 197.496094 42.277344 L 201.5 42.277344 L 201.5 43.117188 L 196.929688 43.117188 L 196.929688 43.839844 L 206.890625 43.839844 L 206.890625 43.117188 L 202.300781 43.117188 L 202.300781 42.277344 L 206.324219 42.277344 L 206.324219 41.632812 L 202.300781 41.632812 L 202.300781 40.851562 L 205.796875 40.851562 L 205.796875 37.121094 L 202.300781 37.121094 L 202.300781 36.398438 L 206.734375 36.398438 L 206.734375 35.695312 L 202.300781 35.695312 L 202.300781 34.835938 C 203.550781 34.757812 204.722656 34.679688 205.796875 34.5625 L 205.5625 33.878906 C 203.316406 34.132812 200.738281 34.308594 197.808594 34.386719 L 197.945312 35.050781 C 199.175781 35.011719 200.367188 34.953125 201.5 34.894531 L 201.5 35.695312 L 197.085938 35.695312 L 197.085938 36.398438 L 201.5 36.398438 L 201.5 37.121094 Z M 204.996094 40.207031 L 202.300781 40.207031 L 202.300781 39.289062 L 204.996094 39.289062 Z M 201.5 40.207031 L 198.785156 40.207031 L 198.785156 39.289062 L 201.5 39.289062 Z M 198.785156 38.664062 L 198.785156 37.765625 L 201.5 37.765625 L 201.5 38.664062 Z M 202.300781 37.765625 L 204.996094 37.765625 L 204.996094 38.664062 L 202.300781 38.664062 Z M 202.300781 37.765625 "/>
<path style=" stroke:none;fill-rule:nonzero;fill:rgb(69.803922%,85.098039%,100%);fill-opacity:1;" d="M 343.519531 23.121094 L 385.773438 23.121094 L 385.773438 3.121094 L 343.519531 3.121094 Z M 343.519531 23.121094 "/>
<path style="fill:none;stroke-width:1;stroke-linecap:round;stroke-linejoin:round;stroke:rgb(0%,0%,0%);stroke-opacity:1;stroke-miterlimit:10;" d="M 355.815625 347.496875 L 389.61875 347.496875 L 389.61875 363.496875 L 355.815625 363.496875 Z M 355.815625 347.496875 " transform="matrix(1.25,0,0,1.25,-101.25,-431.25)"/>
<path style="fill:none;stroke-width:1;stroke-linecap:round;stroke-linejoin:round;stroke:rgb(0%,0%,0%);stroke-opacity:1;stroke-miterlimit:10;" d="M 302.69375 355.184375 L 349.9125 355.39375 " transform="matrix(1.25,0,0,1.25,-101.25,-431.25)"/>
<path style="fill:none;stroke-width:1;stroke-linecap:butt;stroke-linejoin:miter;stroke:rgb(0%,0%,0%);stroke-opacity:1;stroke-miterlimit:10;" d="M 353.9125 355.409375 L 349.9125 355.39375 M 349.921875 353.89375 L 353.9125 355.409375 L 349.909375 356.89375 " transform="matrix(1.25,0,0,1.25,-101.25,-431.25)"/>
<path style=" stroke:none;fill-rule:nonzero;fill:rgb(0%,0%,0%);fill-opacity:1;" d="M 400.234375 13.128906 L 400.234375 14.789062 L 399.121094 14.789062 C 399.394531 14.066406 399.667969 13.246094 399.902344 12.328125 L 402.070312 12.328125 L 402.070312 11.566406 L 400.097656 11.566406 C 400.195312 11.117188 400.292969 10.628906 400.410156 10.121094 L 399.667969 9.964844 C 399.550781 10.511719 399.453125 11.058594 399.335938 11.566406 L 398.222656 11.566406 L 398.222656 12.328125 L 399.160156 12.328125 C 398.90625 13.324219 398.632812 14.183594 398.300781 14.847656 L 398.476562 15.53125 L 400.234375 15.53125 L 400.234375 17.210938 C 399.570312 17.328125 398.886719 17.445312 398.144531 17.523438 L 398.242188 18.324219 C 398.925781 18.207031 399.589844 18.109375 400.234375 17.972656 L 400.234375 20.316406 L 400.976562 20.316406 L 400.976562 17.816406 L 402.050781 17.542969 L 402.050781 16.78125 C 401.71875 16.859375 401.367188 16.957031 400.976562 17.054688 L 400.976562 15.53125 L 402.011719 15.53125 L 402.011719 14.789062 L 400.976562 14.789062 L 400.976562 13.128906 Z M 403.554688 12.542969 L 403.554688 13.207031 L 406.777344 13.207031 L 406.777344 12.542969 L 403.554688 12.542969 C 404.121094 11.996094 404.667969 11.390625 405.195312 10.746094 C 406.054688 11.839844 407.011719 12.777344 408.066406 13.539062 L 408.496094 12.914062 C 407.480469 12.191406 406.484375 11.234375 405.488281 10.023438 L 404.921875 10.023438 C 404.003906 11.136719 402.96875 12.132812 401.816406 12.972656 L 402.265625 13.65625 C 402.695312 13.304688 403.125 12.933594 403.554688 12.542969 Z M 404.335938 20.238281 C 404.882812 20.238281 405.175781 19.945312 405.175781 19.359375 L 405.175781 14.105469 L 402.519531 14.105469 L 402.519531 20.316406 L 403.222656 20.316406 L 403.222656 18.207031 L 404.492188 18.207031 L 404.492188 19.222656 C 404.492188 19.457031 404.355469 19.59375 404.121094 19.59375 L 403.613281 19.574219 L 403.789062 20.238281 Z M 403.222656 17.582031 L 403.222656 16.507812 L 404.492188 16.507812 L 404.492188 17.582031 Z M 403.222656 15.882812 L 403.222656 14.769531 L 404.492188 14.769531 L 404.492188 15.882812 Z M 405.839844 14.417969 L 405.839844 18.460938 L 406.484375 18.460938 L 406.484375 14.417969 Z M 407.070312 20.257812 C 407.617188 20.257812 407.890625 19.925781 407.890625 19.28125 L 407.890625 13.910156 L 407.1875 13.910156 L 407.1875 19.105469 C 407.1875 19.417969 407.070312 19.59375 406.816406 19.59375 C 406.542969 19.59375 406.25 19.574219 405.957031 19.535156 L 406.113281 20.257812 Z M 407.070312 20.257812 "/>
<path style=" stroke:none;fill-rule:nonzero;fill:rgb(0%,0%,0%);fill-opacity:1;" d="M 417.578125 13.910156 L 414.941406 13.910156 L 414.941406 9.984375 L 414.121094 9.984375 L 414.121094 13.910156 L 411.484375 13.910156 L 411.484375 10.84375 L 410.664062 10.84375 L 410.664062 14.691406 L 414.121094 14.691406 L 414.121094 18.832031 L 410.9375 18.832031 L 410.9375 15.746094 L 410.117188 15.746094 L 410.117188 20.238281 L 410.9375 20.238281 L 410.9375 19.59375 L 418.125 19.59375 L 418.125 20.238281 L 418.945312 20.238281 L 418.945312 15.746094 L 418.125 15.746094 L 418.125 18.832031 L 414.941406 18.832031 L 414.941406 14.691406 L 418.398438 14.691406 L 418.398438 10.84375 L 417.578125 10.84375 Z M 417.578125 13.910156 "/>
<path style="fill:none;stroke-width:1;stroke-linecap:round;stroke-linejoin:round;stroke:rgb(0%,0%,0%);stroke-opacity:1;stroke-miterlimit:10;" d="M 153.93125 515.890625 C 160.15 516.028125 165.30625 511.096875 165.44375 504.875 C 165.44375 504.871875 165.44375 504.86875 165.44375 504.86875 L 165.684375 493.721875 C 165.69375 493.15 165.703125 492.575 165.703125 492.003125 L 165.703125 407.8625 " transform="matrix(1.25,0,0,1.25,-101.25,-431.25)"/>
<path style="fill:none;stroke-width:1;stroke-linecap:round;stroke-linejoin:round;stroke:rgb(0%,0%,0%);stroke-opacity:1;stroke-miterlimit:10;" d="M 165.625 496.453125 L 165.784375 492.375 C 165.88125 489.825 167.590625 487.6125 170.034375 486.871875 L 174.70625 485.453125 " transform="matrix(1.25,0,0,1.25,-101.25,-431.25)"/>
<path style="fill:none;stroke-width:1;stroke-linecap:butt;stroke-linejoin:miter;stroke:rgb(0%,0%,0%);stroke-opacity:1;stroke-miterlimit:10;" d="M 178.534375 484.2875 L 174.70625 485.453125 M 174.26875 484.015625 L 178.534375 484.2875 L 175.14375 486.8875 " transform="matrix(1.25,0,0,1.25,-101.25,-431.25)"/>
<path style="fill:none;stroke-width:1;stroke-linecap:round;stroke-linejoin:round;stroke:rgb(0%,0%,0%);stroke-opacity:1;stroke-miterlimit:10;" d="M 165.703125 473.5875 L 165.875 470.5125 C 166.015625 467.996875 167.7125 465.840625 170.121875 465.10625 L 174.8625 463.6625 " transform="matrix(1.25,0,0,1.25,-101.25,-431.25)"/>
<path style="fill:none;stroke-width:1;stroke-linecap:butt;stroke-linejoin:miter;stroke:rgb(0%,0%,0%);stroke-opacity:1;stroke-miterlimit:10;" d="M 178.690625 462.503125 L 174.8625 463.6625 M 174.43125 462.23125 L 178.690625 462.503125 L 175.3 465.1 " transform="matrix(1.25,0,0,1.25,-101.25,-431.25)"/>
<path style="fill:none;stroke-width:1;stroke-linecap:round;stroke-linejoin:round;stroke:rgb(0%,0%,0%);stroke-opacity:1;stroke-miterlimit:10;" d="M 165.703125 451.9625 L 165.875 448.8875 C 166.015625 446.371875 167.7125 444.215625 170.121875 443.48125 L 174.8625 442.0375 " transform="matrix(1.25,0,0,1.25,-101.25,-431.25)"/>
<path style="fill:none;stroke-width:1;stroke-linecap:butt;stroke-linejoin:miter;stroke:rgb(0%,0%,0%);stroke-opacity:1;stroke-miterlimit:10;" d="M 178.690625 440.878125 L 174.8625 442.0375 M 174.43125 440.60625 L 178.690625 440.878125 L 175.3 443.475 " transform="matrix(1.25,0,0,1.25,-101.25,-431.25)"/>
<path style="fill:none;stroke-width:1;stroke-linecap:round;stroke-linejoin:round;stroke:rgb(0%,0%,0%);stroke-opacity:1;stroke-miterlimit:10;" d="M 165.703125 430.0125 L 165.875 426.9375 C 166.015625 424.421875 167.7125 422.2625 170.121875 421.53125 L 174.8625 420.090625 " transform="matrix(1.25,0,0,1.25,-101.25,-431.25)"/>
<path style="fill:none;stroke-width:1;stroke-linecap:butt;stroke-linejoin:miter;stroke:rgb(0%,0%,0%);stroke-opacity:1;stroke-miterlimit:10;" d="M 178.690625 418.925 L 174.8625 420.090625 M 174.43125 418.65625 L 178.690625 418.925 L 175.3 421.528125 " transform="matrix(1.25,0,0,1.25,-101.25,-431.25)"/>
<path style="fill:none;stroke-width:1;stroke-linecap:round;stroke-linejoin:round;stroke:rgb(0%,0%,0%);stroke-opacity:1;stroke-miterlimit:10;" d="M 165.703125 407.8625 L 165.875 404.784375 C 166.015625 402.275 167.7125 400.1125 170.121875 399.38125 L 174.8625 397.940625 " transform="matrix(1.25,0,0,1.25,-101.25,-431.25)"/>
<path style="fill:none;stroke-width:1;stroke-linecap:butt;stroke-linejoin:miter;stroke:rgb(0%,0%,0%);stroke-opacity:1;stroke-miterlimit:10;" d="M 178.690625 396.778125 L 174.8625 397.940625 M 174.43125 396.503125 L 178.690625 396.778125 L 175.3 399.375 " transform="matrix(1.25,0,0,1.25,-101.25,-431.25)"/>
<path style="fill:none;stroke-width:1;stroke-linecap:round;stroke-linejoin:round;stroke:rgb(0%,0%,0%);stroke-opacity:1;stroke-miterlimit:10;" d="M 196.128125 392.8375 L 200.846875 392.8375 " transform="matrix(1.25,0,0,1.25,-101.25,-431.25)"/>
<path style="fill:none;stroke-width:1;stroke-linecap:butt;stroke-linejoin:miter;stroke:rgb(0%,0%,0%);stroke-opacity:1;stroke-miterlimit:10;" d="M 204.846875 392.8375 L 200.846875 392.8375 M 200.846875 391.3375 L 204.846875 392.8375 L 200.846875 394.3375 " transform="matrix(1.25,0,0,1.25,-101.25,-431.25)"/>
<path style="fill:none;stroke-width:1;stroke-linecap:round;stroke-linejoin:round;stroke:rgb(0%,0%,0%);stroke-opacity:1;stroke-miterlimit:10;" d="M 196.128125 414.20625 L 200.846875 414.20625 " transform="matrix(1.25,0,0,1.25,-101.25,-431.25)"/>
<path style="fill:none;stroke-width:1;stroke-linecap:butt;stroke-linejoin:miter;stroke:rgb(0%,0%,0%);stroke-opacity:1;stroke-miterlimit:10;" d="M 204.846875 414.20625 L 200.846875 414.20625 M 200.846875 412.70625 L 204.846875 414.20625 L 200.846875 415.70625 " transform="matrix(1.25,0,0,1.25,-101.25,-431.25)"/>
<path style="fill:none;stroke-width:1;stroke-linecap:round;stroke-linejoin:round;stroke:rgb(0%,0%,0%);stroke-opacity:1;stroke-miterlimit:10;" d="M 196.128125 436.08125 L 200.846875 436.08125 " transform="matrix(1.25,0,0,1.25,-101.25,-431.25)"/>
<path style="fill:none;stroke-width:1;stroke-linecap:butt;stroke-linejoin:miter;stroke:rgb(0%,0%,0%);stroke-opacity:1;stroke-miterlimit:10;" d="M 204.846875 436.08125 L 200.846875 436.08125 M 200.846875 434.58125 L 204.846875 436.08125 L 200.846875 437.58125 " transform="matrix(1.25,0,0,1.25,-101.25,-431.25)"/>
<path style="fill:none;stroke-width:1;stroke-linecap:round;stroke-linejoin:round;stroke:rgb(0%,0%,0%);stroke-opacity:1;stroke-miterlimit:10;" d="M 196.128125 457.95625 L 200.846875 457.95625 " transform="matrix(1.25,0,0,1.25,-101.25,-431.25)"/>
<path style="fill:none;stroke-width:1;stroke-linecap:butt;stroke-linejoin:miter;stroke:rgb(0%,0%,0%);stroke-opacity:1;stroke-miterlimit:10;" d="M 204.846875 457.95625 L 200.846875 457.95625 M 200.846875 456.45625 L 204.846875 457.95625 L 200.846875 459.45625 " transform="matrix(1.25,0,0,1.25,-101.25,-431.25)"/>
<path style="fill:none;stroke-width:1;stroke-linecap:round;stroke-linejoin:round;stroke:rgb(0%,0%,0%);stroke-opacity:1;stroke-miterlimit:10;" d="M 196.128125 479.828125 L 200.846875 479.828125 " transform="matrix(1.25,0,0,1.25,-101.25,-431.25)"/>
<path style="fill:none;stroke-width:1;stroke-linecap:butt;stroke-linejoin:miter;stroke:rgb(0%,0%,0%);stroke-opacity:1;stroke-miterlimit:10;" d="M 204.846875 479.828125 L 200.846875 479.828125 M 200.846875 478.328125 L 204.846875 479.828125 L 200.846875 481.328125 " transform="matrix(1.25,0,0,1.25,-101.25,-431.25)"/>
<path style="fill:none;stroke-width:1;stroke-linecap:round;stroke-linejoin:round;stroke:rgb(0%,0%,0%);stroke-opacity:1;stroke-miterlimit:10;" d="M 219.809375 392.3375 L 253.5 392.36875 " transform="matrix(1.25,0,0,1.25,-101.25,-431.25)"/>
<path style="fill:none;stroke-width:1;stroke-linecap:butt;stroke-linejoin:miter;stroke:rgb(0%,0%,0%);stroke-opacity:1;stroke-miterlimit:10;" d="M 257.5 392.375 L 253.5 392.36875 M 253.5 390.86875 L 257.5 392.375 L 253.5 393.86875 " transform="matrix(1.25,0,0,1.25,-101.25,-431.25)"/>
<path style="fill:none;stroke-width:1;stroke-linecap:round;stroke-linejoin:round;stroke:rgb(0%,0%,0%);stroke-opacity:1;stroke-miterlimit:10;" d="M 219.809375 414.20625 L 253.5 414.24375 " transform="matrix(1.25,0,0,1.25,-101.25,-431.25)"/>
<path style="fill:none;stroke-width:1;stroke-linecap:butt;stroke-linejoin:miter;stroke:rgb(0%,0%,0%);stroke-opacity:1;stroke-miterlimit:10;" d="M 257.5 414.246875 L 253.5 414.24375 M 253.5 412.74375 L 257.5 414.246875 L 253.5 415.74375 " transform="matrix(1.25,0,0,1.25,-101.25,-431.25)"/>
<path style="fill:none;stroke-width:1;stroke-linecap:round;stroke-linejoin:round;stroke:rgb(0%,0%,0%);stroke-opacity:1;stroke-miterlimit:10;" d="M 219.809375 436.08125 L 253.5 436.11875 " transform="matrix(1.25,0,0,1.25,-101.25,-431.25)"/>
<path style="fill:none;stroke-width:1;stroke-linecap:butt;stroke-linejoin:miter;stroke:rgb(0%,0%,0%);stroke-opacity:1;stroke-miterlimit:10;" d="M 257.5 436.121875 L 253.5 436.11875 M 253.5 434.61875 L 257.5 436.121875 L 253.5 437.61875 " transform="matrix(1.25,0,0,1.25,-101.25,-431.25)"/>
<path style="fill:none;stroke-width:1;stroke-linecap:round;stroke-linejoin:round;stroke:rgb(0%,0%,0%);stroke-opacity:1;stroke-miterlimit:10;" d="M 219.684375 457.95625 L 253.375 457.9875 " transform="matrix(1.25,0,0,1.25,-101.25,-431.25)"/>
<path style="fill:none;stroke-width:1;stroke-linecap:butt;stroke-linejoin:miter;stroke:rgb(0%,0%,0%);stroke-opacity:1;stroke-miterlimit:10;" d="M 257.375 457.99375 L 253.375 457.9875 M 253.375 456.4875 L 257.375 457.99375 L 253.371875 459.4875 " transform="matrix(1.25,0,0,1.25,-101.25,-431.25)"/>
<path style="fill:none;stroke-width:1;stroke-linecap:round;stroke-linejoin:round;stroke:rgb(0%,0%,0%);stroke-opacity:1;stroke-miterlimit:10;" d="M 219.809375 479.003125 L 253.5 479.0375 " transform="matrix(1.25,0,0,1.25,-101.25,-431.25)"/>
<path style="fill:none;stroke-width:1;stroke-linecap:butt;stroke-linejoin:miter;stroke:rgb(0%,0%,0%);stroke-opacity:1;stroke-miterlimit:10;" d="M 257.5 479.04375 L 253.5 479.0375 M 253.5 477.5375 L 257.5 479.04375 L 253.5 480.5375 " transform="matrix(1.25,0,0,1.25,-101.25,-431.25)"/>
<path style="fill:none;stroke-width:1;stroke-linecap:round;stroke-linejoin:round;stroke:rgb(0%,0%,0%);stroke-opacity:1;stroke-miterlimit:10;" d="M 273.059375 474.671875 L 286.325 473.878125 C 288.253125 473.765625 290.0125 472.725 291.04375 471.090625 L 292.05 469.484375 " transform="matrix(1.25,0,0,1.25,-101.25,-431.25)"/>
<path style="fill:none;stroke-width:1;stroke-linecap:butt;stroke-linejoin:miter;stroke:rgb(0%,0%,0%);stroke-opacity:1;stroke-miterlimit:10;" d="M 294.184375 466.1 L 292.05 469.484375 M 290.78125 468.6875 L 294.184375 466.1 L 293.31875 470.284375 " transform="matrix(1.25,0,0,1.25,-101.25,-431.25)"/>
<path style="fill:none;stroke-width:1;stroke-linecap:round;stroke-linejoin:round;stroke:rgb(0%,0%,0%);stroke-opacity:1;stroke-miterlimit:10;" d="M 294.19375 467.375 L 294.734375 369.775 " transform="matrix(1.25,0,0,1.25,-101.25,-431.25)"/>
<path style="fill:none;stroke-width:1;stroke-linecap:butt;stroke-linejoin:miter;stroke:rgb(0%,0%,0%);stroke-opacity:1;stroke-miterlimit:10;" d="M 294.75625 365.775 L 294.734375 369.775 M 293.234375 369.765625 L 294.75625 365.775 L 296.234375 369.78125 " transform="matrix(1.25,0,0,1.25,-101.25,-431.25)"/>
<path style="fill:none;stroke-width:1;stroke-linecap:round;stroke-linejoin:round;stroke:rgb(0%,0%,0%);stroke-opacity:1;stroke-miterlimit:10;" d="M 273.059375 451.9625 L 286.325 451.16875 C 288.253125 451.05625 290.0125 450.015625 291.04375 448.378125 L 292.05 446.775 " transform="matrix(1.25,0,0,1.25,-101.25,-431.25)"/>
<path style="fill:none;stroke-width:1;stroke-linecap:butt;stroke-linejoin:miter;stroke:rgb(0%,0%,0%);stroke-opacity:1;stroke-miterlimit:10;" d="M 294.184375 443.390625 L 292.05 446.775 M 290.78125 445.975 L 294.184375 443.390625 L 293.31875 447.575 " transform="matrix(1.25,0,0,1.25,-101.25,-431.25)"/>
<path style="fill:none;stroke-width:1;stroke-linecap:round;stroke-linejoin:round;stroke:rgb(0%,0%,0%);stroke-opacity:1;stroke-miterlimit:10;" d="M 273.059375 430.734375 L 286.325 429.940625 C 288.253125 429.828125 290.0125 428.7875 291.04375 427.153125 L 292.05 425.546875 " transform="matrix(1.25,0,0,1.25,-101.25,-431.25)"/>
<path style="fill:none;stroke-width:1;stroke-linecap:butt;stroke-linejoin:miter;stroke:rgb(0%,0%,0%);stroke-opacity:1;stroke-miterlimit:10;" d="M 294.184375 422.1625 L 292.05 425.546875 M 290.78125 424.75 L 294.184375 422.1625 L 293.31875 426.346875 " transform="matrix(1.25,0,0,1.25,-101.25,-431.25)"/>
<path style="fill:none;stroke-width:1;stroke-linecap:round;stroke-linejoin:round;stroke:rgb(0%,0%,0%);stroke-opacity:1;stroke-miterlimit:10;" d="M 272.628125 407.8625 L 285.89375 407.06875 C 287.825 406.953125 289.58125 405.9125 290.6125 404.278125 L 291.625 402.675 " transform="matrix(1.25,0,0,1.25,-101.25,-431.25)"/>
<path style="fill:none;stroke-width:1;stroke-linecap:butt;stroke-linejoin:miter;stroke:rgb(0%,0%,0%);stroke-opacity:1;stroke-miterlimit:10;" d="M 293.753125 399.2875 L 291.625 402.675 M 290.35625 401.875 L 293.753125 399.2875 L 292.89375 403.471875 " transform="matrix(1.25,0,0,1.25,-101.25,-431.25)"/>
<path style="fill:none;stroke-width:1;stroke-linecap:round;stroke-linejoin:round;stroke:rgb(0%,0%,0%);stroke-opacity:1;stroke-miterlimit:10;" d="M 273.059375 386.578125 L 286.325 385.784375 C 288.253125 385.671875 290.0125 384.63125 291.04375 382.996875 L 292.05 381.390625 " transform="matrix(1.25,0,0,1.25,-101.25,-431.25)"/>
<path style="fill:none;stroke-width:1;stroke-linecap:butt;stroke-linejoin:miter;stroke:rgb(0%,0%,0%);stroke-opacity:1;stroke-miterlimit:10;" d="M 294.184375 378.00625 L 292.05 381.390625 M 290.78125 380.59375 L 294.184375 378.00625 L 293.31875 382.190625 " transform="matrix(1.25,0,0,1.25,-101.25,-431.25)"/>
</g>
</svg>
