<?xml version="1.0" encoding="UTF-8"?>
<svg xmlns="http://www.w3.org/2000/svg" xmlns:xlink="http://www.w3.org/1999/xlink" width="380pt" height="90pt" viewBox="0 0 380 90" version="1.1">
<g id="surface1">
<path style=" stroke:none;fill-rule:nonzero;fill:rgb(69.803922%,85.098039%,100%);fill-opacity:1;" d="M 77.1875 41.5 L 141.4375 41.5 L 141.4375 1.25 L 77.1875 1.25 Z M 77.1875 41.5 "/>
<path style="fill:none;stroke-width:1;stroke-linecap:round;stroke-linejoin:round;stroke:rgb(0%,0%,0%);stroke-opacity:1;stroke-miterlimit:10;" d="M 123.75 59 L 175.15 59 L 175.15 91.2 L 123.75 91.2 Z M 123.75 59 " transform="matrix(1.25,0,0,1.25,-77.5,-72.5)"/>
<path style=" stroke:none;fill-rule:nonzero;fill:rgb(0%,0%,0%);fill-opacity:1;" d="M 95.835938 24.480469 C 95.035156 24.890625 94.097656 25.203125 93.042969 25.4375 L 93.140625 26.238281 C 94.15625 25.984375 95.054688 25.652344 95.835938 25.242188 Z M 94.683594 16.53125 C 94.273438 17.839844 93.785156 18.992188 93.21875 20.007812 C 93.140625 20.144531 93.023438 20.242188 92.90625 20.300781 L 93.101562 21.023438 C 93.707031 20.925781 94.292969 20.828125 94.898438 20.710938 C 94.3125 21.746094 93.824219 22.46875 93.433594 22.898438 C 93.335938 22.996094 93.199219 23.074219 93.0625 23.132812 L 93.277344 23.855469 C 94.195312 23.71875 95.152344 23.484375 96.167969 23.152344 L 96.167969 22.429688 C 95.523438 22.664062 94.878906 22.839844 94.234375 22.976562 C 94.839844 22.214844 95.621094 20.925781 96.558594 19.109375 L 95.855469 18.835938 C 95.660156 19.246094 95.445312 19.636719 95.269531 19.988281 C 94.800781 20.085938 94.3125 20.164062 93.824219 20.242188 C 94.371094 19.402344 94.917969 18.25 95.445312 16.824219 Z M 102.046875 26.84375 C 102.554688 26.84375 102.808594 26.570312 102.808594 26.0625 L 102.808594 21.53125 L 97.671875 21.53125 L 97.671875 26.882812 L 98.335938 26.882812 L 98.335938 24.382812 L 99.214844 24.382812 L 99.214844 26.6875 L 99.820312 26.6875 L 99.820312 24.382812 L 100.640625 24.382812 L 100.640625 26.6875 L 101.226562 26.6875 L 101.226562 24.382812 L 102.144531 24.382812 L 102.144531 25.886719 C 102.144531 26.121094 102.027344 26.238281 101.832031 26.238281 L 101.382812 26.21875 L 101.558594 26.84375 Z M 98.335938 23.699219 L 98.335938 22.234375 L 99.214844 22.234375 L 99.214844 23.699219 Z M 99.820312 22.234375 L 100.640625 22.234375 L 100.640625 23.699219 L 99.820312 23.699219 Z M 101.226562 22.234375 L 102.144531 22.234375 L 102.144531 23.699219 L 101.226562 23.699219 Z M 102.027344 18.40625 L 102.027344 19.851562 L 97.632812 19.851562 L 97.632812 18.40625 Z M 97.632812 20.554688 L 102.769531 20.554688 L 102.769531 17.703125 L 100.230469 17.703125 C 100.09375 17.253906 99.957031 16.84375 99.800781 16.511719 L 98.960938 16.628906 C 99.136719 16.960938 99.292969 17.3125 99.449219 17.703125 L 96.890625 17.703125 L 96.890625 20.4375 C 96.871094 22.839844 96.421875 24.8125 95.523438 26.355469 L 96.109375 26.863281 C 97.085938 25.105469 97.59375 22.996094 97.632812 20.554688 Z M 97.632812 20.554688 "/>
<path style=" stroke:none;fill-rule:nonzero;fill:rgb(0%,0%,0%);fill-opacity:1;" d="M 107.945312 20.515625 L 105.875 20.515625 C 106.167969 19.714844 106.382812 18.875 106.539062 17.976562 L 108.238281 17.976562 L 108.238281 17.195312 L 104.390625 17.195312 L 104.390625 17.976562 L 105.777344 17.976562 C 105.503906 19.65625 104.9375 21.140625 104.078125 22.449219 L 104.488281 23.113281 C 104.761719 22.722656 104.996094 22.332031 105.230469 21.921875 L 105.230469 26.511719 L 105.992188 26.511719 L 105.992188 25.652344 L 107.203125 25.652344 L 107.203125 26.296875 L 107.945312 26.296875 Z M 105.992188 24.910156 L 105.992188 21.257812 L 107.203125 21.257812 L 107.203125 24.910156 Z M 109.449219 18.582031 L 108.84375 22.234375 L 113.394531 22.234375 C 113.394531 24.03125 113.296875 25.125 113.121094 25.496094 C 112.964844 25.867188 112.4375 26.0625 111.578125 26.0625 C 111.363281 26.0625 111.03125 26.023438 110.523438 25.984375 L 110.757812 26.765625 C 111.109375 26.804688 111.441406 26.804688 111.773438 26.804688 C 112.75 26.804688 113.394531 26.589844 113.707031 26.179688 C 114 25.769531 114.15625 24.207031 114.15625 21.472656 L 112.964844 21.472656 L 113.589844 17.039062 L 108.746094 17.039062 L 108.746094 17.800781 L 112.710938 17.800781 L 112.144531 21.472656 L 109.761719 21.472656 L 110.25 18.640625 Z M 108.511719 23.660156 L 108.511719 24.421875 L 112.613281 24.421875 L 112.613281 23.660156 Z M 108.511719 23.660156 "/>
<path style=" stroke:none;fill-rule:nonzero;fill:rgb(0%,0%,0%);fill-opacity:1;" d="M 116.519531 16.980469 L 116.519531 19.714844 L 119.9375 19.714844 L 119.9375 16.980469 Z M 119.195312 19.03125 L 117.242188 19.03125 L 117.242188 17.683594 L 119.195312 17.683594 Z M 121.1875 16.980469 L 121.1875 19.714844 L 124.683594 19.714844 L 124.683594 16.980469 Z M 123.960938 19.03125 L 121.929688 19.03125 L 121.929688 17.683594 L 123.960938 17.683594 Z M 115.601562 20.847656 L 115.601562 21.570312 L 118.707031 21.570312 C 117.925781 22.234375 116.8125 22.800781 115.367188 23.210938 L 115.738281 23.875 C 116.070312 23.777344 116.363281 23.679688 116.675781 23.5625 L 116.675781 26.882812 L 117.378906 26.882812 L 117.378906 26.394531 L 119.292969 26.394531 L 119.292969 26.882812 L 120.015625 26.882812 L 120.015625 23.347656 L 117.203125 23.347656 C 118.257812 22.878906 119.097656 22.292969 119.722656 21.570312 L 121.636719 21.570312 C 122.203125 22.253906 123.023438 22.839844 124.097656 23.347656 L 121.109375 23.347656 L 121.109375 26.882812 L 121.832031 26.882812 L 121.832031 26.394531 L 123.921875 26.394531 L 123.921875 26.882812 L 124.644531 26.882812 L 124.644531 23.582031 C 124.898438 23.660156 125.152344 23.777344 125.425781 23.855469 L 125.757812 23.171875 C 124.3125 22.78125 123.21875 22.234375 122.476562 21.570312 L 125.523438 21.570312 L 125.523438 20.847656 L 123.980469 20.847656 C 123.785156 20.496094 123.589844 20.164062 123.355469 19.851562 L 122.671875 20.085938 C 122.847656 20.300781 123.023438 20.554688 123.179688 20.847656 L 120.269531 20.847656 C 120.425781 20.574219 120.582031 20.300781 120.679688 20.007812 L 119.917969 19.929688 C 119.78125 20.242188 119.605469 20.554688 119.390625 20.847656 Z M 117.378906 25.710938 L 117.378906 24.011719 L 119.292969 24.011719 L 119.292969 25.710938 Z M 121.832031 25.710938 L 121.832031 24.011719 L 123.921875 24.011719 L 123.921875 25.710938 Z M 121.832031 25.710938 "/>
<path style=" stroke:none;fill-rule:nonzero;fill:rgb(69.803922%,85.098039%,100%);fill-opacity:1;" d="M 238.8125 41.5 L 303.0625 41.5 L 303.0625 1.25 L 238.8125 1.25 Z M 238.8125 41.5 "/>
<path style="fill:none;stroke-width:1;stroke-linecap:round;stroke-linejoin:round;stroke:rgb(0%,0%,0%);stroke-opacity:1;stroke-miterlimit:10;" d="M 253.05 59 L 304.45 59 L 304.45 91.2 L 253.05 91.2 Z M 253.05 59 " transform="matrix(1.25,0,0,1.25,-77.5,-72.5)"/>
<path style=" stroke:none;fill-rule:nonzero;fill:rgb(0%,0%,0%);fill-opacity:1;" d="M 260.742188 22.605469 L 262.070312 22.605469 L 262.070312 23.972656 L 259.628906 23.972656 L 259.628906 24.695312 L 262.070312 24.695312 L 262.070312 26.902344 L 262.851562 26.902344 L 262.851562 24.695312 L 264.765625 24.695312 L 264.765625 23.972656 L 262.851562 23.972656 L 262.851562 22.605469 L 264.53125 22.605469 L 264.53125 21.863281 L 262.851562 21.863281 L 262.851562 20.828125 L 262.070312 20.828125 L 262.070312 21.863281 L 261.035156 21.863281 C 261.113281 21.609375 261.171875 21.335938 261.230469 21.023438 L 260.566406 20.90625 C 260.390625 21.804688 260.078125 22.507812 259.570312 23.054688 L 260.039062 23.621094 C 260.3125 23.328125 260.546875 22.996094 260.742188 22.605469 Z M 261.210938 17.957031 C 261.132812 18.328125 260.996094 18.660156 260.839844 18.953125 C 260.585938 19.34375 260.195312 19.714844 259.707031 20.007812 L 260.175781 20.613281 C 260.742188 20.242188 261.191406 19.792969 261.484375 19.324219 C 261.699219 18.933594 261.855469 18.464844 261.972656 17.957031 L 263.632812 17.957031 C 263.59375 18.757812 263.554688 19.265625 263.496094 19.460938 C 263.417969 19.65625 263.222656 19.753906 262.910156 19.773438 C 262.636719 19.753906 262.324219 19.734375 261.933594 19.714844 L 262.128906 20.378906 C 262.480469 20.398438 262.8125 20.4375 263.066406 20.4375 C 263.554688 20.4375 263.886719 20.261719 264.101562 19.988281 C 264.296875 19.675781 264.394531 18.757812 264.394531 17.234375 L 259.707031 17.234375 L 259.707031 17.957031 Z M 255.898438 22.019531 L 256.914062 22.019531 L 256.914062 23.484375 L 255.878906 23.484375 C 255.878906 23.40625 255.898438 23.328125 255.898438 23.230469 Z M 255.859375 24.167969 L 256.914062 24.167969 L 256.914062 26.726562 L 257.578125 26.726562 L 257.578125 24.167969 L 258.613281 24.167969 L 258.613281 25.730469 C 258.613281 26.003906 258.496094 26.160156 258.242188 26.160156 C 258.066406 26.160156 257.871094 26.140625 257.65625 26.101562 L 257.851562 26.785156 L 258.476562 26.785156 C 259.023438 26.785156 259.296875 26.511719 259.296875 25.984375 L 259.296875 19.226562 L 257.949219 19.226562 C 258.203125 18.894531 258.457031 18.464844 258.710938 17.957031 L 258.710938 17.410156 L 256.699219 17.410156 C 256.796875 17.175781 256.894531 16.921875 256.992188 16.6875 L 256.25 16.511719 C 255.820312 17.683594 255.273438 18.621094 254.589844 19.34375 L 255.078125 19.949219 C 255.117188 19.890625 255.15625 19.871094 255.195312 19.8125 L 255.195312 23.269531 C 255.195312 24.558594 254.960938 25.632812 254.53125 26.453125 L 255.078125 26.960938 C 255.488281 26.21875 255.742188 25.28125 255.859375 24.167969 Z M 257.128906 19.226562 L 255.664062 19.226562 C 255.917969 18.875 256.171875 18.484375 256.386719 18.074219 L 257.851562 18.074219 C 257.597656 18.503906 257.363281 18.894531 257.128906 19.226562 Z M 258.613281 23.484375 L 257.578125 23.484375 L 257.578125 22.019531 L 258.613281 22.019531 Z M 258.613281 21.335938 L 257.578125 21.335938 L 257.578125 19.929688 L 258.613281 19.929688 Z M 256.914062 19.929688 L 256.914062 21.335938 L 255.898438 21.335938 L 255.898438 19.929688 Z M 256.914062 19.929688 "/>
<path style=" stroke:none;fill-rule:nonzero;fill:rgb(0%,0%,0%);fill-opacity:1;" d="M 269.570312 20.515625 L 267.5 20.515625 C 267.792969 19.714844 268.007812 18.875 268.164062 17.976562 L 269.863281 17.976562 L 269.863281 17.195312 L 266.015625 17.195312 L 266.015625 17.976562 L 267.402344 17.976562 C 267.128906 19.65625 266.5625 21.140625 265.703125 22.449219 L 266.113281 23.113281 C 266.386719 22.722656 266.621094 22.332031 266.855469 21.921875 L 266.855469 26.511719 L 267.617188 26.511719 L 267.617188 25.652344 L 268.828125 25.652344 L 268.828125 26.296875 L 269.570312 26.296875 Z M 267.617188 24.910156 L 267.617188 21.257812 L 268.828125 21.257812 L 268.828125 24.910156 Z M 271.074219 18.582031 L 270.46875 22.234375 L 275.019531 22.234375 C 275.019531 24.03125 274.921875 25.125 274.746094 25.496094 C 274.589844 25.867188 274.0625 26.0625 273.203125 26.0625 C 272.988281 26.0625 272.65625 26.023438 272.148438 25.984375 L 272.382812 26.765625 C 272.734375 26.804688 273.066406 26.804688 273.398438 26.804688 C 274.375 26.804688 275.019531 26.589844 275.332031 26.179688 C 275.625 25.769531 275.78125 24.207031 275.78125 21.472656 L 274.589844 21.472656 L 275.214844 17.039062 L 270.371094 17.039062 L 270.371094 17.800781 L 274.335938 17.800781 L 273.769531 21.472656 L 271.386719 21.472656 L 271.875 18.640625 Z M 270.136719 23.660156 L 270.136719 24.421875 L 274.238281 24.421875 L 274.238281 23.660156 Z M 270.136719 23.660156 "/>
<path style=" stroke:none;fill-rule:nonzero;fill:rgb(0%,0%,0%);fill-opacity:1;" d="M 278.144531 16.980469 L 278.144531 19.714844 L 281.5625 19.714844 L 281.5625 16.980469 Z M 280.820312 19.03125 L 278.867188 19.03125 L 278.867188 17.683594 L 280.820312 17.683594 Z M 282.8125 16.980469 L 282.8125 19.714844 L 286.308594 19.714844 L 286.308594 16.980469 Z M 285.585938 19.03125 L 283.554688 19.03125 L 283.554688 17.683594 L 285.585938 17.683594 Z M 277.226562 20.847656 L 277.226562 21.570312 L 280.332031 21.570312 C 279.550781 22.234375 278.4375 22.800781 276.992188 23.210938 L 277.363281 23.875 C 277.695312 23.777344 277.988281 23.679688 278.300781 23.5625 L 278.300781 26.882812 L 279.003906 26.882812 L 279.003906 26.394531 L 280.917969 26.394531 L 280.917969 26.882812 L 281.640625 26.882812 L 281.640625 23.347656 L 278.828125 23.347656 C 279.882812 22.878906 280.722656 22.292969 281.347656 21.570312 L 283.261719 21.570312 C 283.828125 22.253906 284.648438 22.839844 285.722656 23.347656 L 282.734375 23.347656 L 282.734375 26.882812 L 283.457031 26.882812 L 283.457031 26.394531 L 285.546875 26.394531 L 285.546875 26.882812 L 286.269531 26.882812 L 286.269531 23.582031 C 286.523438 23.660156 286.777344 23.777344 287.050781 23.855469 L 287.382812 23.171875 C 285.9375 22.78125 284.84375 22.234375 284.101562 21.570312 L 287.148438 21.570312 L 287.148438 20.847656 L 285.605469 20.847656 C 285.410156 20.496094 285.214844 20.164062 284.980469 19.851562 L 284.296875 20.085938 C 284.472656 20.300781 284.648438 20.554688 284.804688 20.847656 L 281.894531 20.847656 C 282.050781 20.574219 282.207031 20.300781 282.304688 20.007812 L 281.542969 19.929688 C 281.40625 20.242188 281.230469 20.554688 281.015625 20.847656 Z M 279.003906 25.710938 L 279.003906 24.011719 L 280.917969 24.011719 L 280.917969 25.710938 Z M 283.457031 25.710938 L 283.457031 24.011719 L 285.546875 24.011719 L 285.546875 25.710938 Z M 283.457031 25.710938 "/>
<path style="fill:none;stroke-width:1;stroke-linecap:round;stroke-linejoin:round;stroke:rgb(0%,0%,0%);stroke-opacity:1;stroke-miterlimit:10;" d="M 175.15 75.1 L 186.8 75.1 " transform="matrix(1.25,0,0,1.25,-77.5,-72.5)"/>
<path style="fill:none;stroke-width:1;stroke-linecap:butt;stroke-linejoin:miter;stroke:rgb(0%,0%,0%);stroke-opacity:1;stroke-miterlimit:10;" d="M 190.8 75.1 L 186.8 75.1 M 186.8 73.6 L 190.8 75.1 L 186.8 76.6 " transform="matrix(1.25,0,0,1.25,-77.5,-72.5)"/>
<path style="fill:none;stroke-width:1;stroke-linecap:round;stroke-linejoin:round;stroke:rgb(0%,0%,0%);stroke-opacity:1;stroke-miterlimit:10;" d="M 106.2 75.1 L 117.85 75.1 " transform="matrix(1.25,0,0,1.25,-77.5,-72.5)"/>
<path style="fill:none;stroke-width:1;stroke-linecap:butt;stroke-linejoin:miter;stroke:rgb(0%,0%,0%);stroke-opacity:1;stroke-miterlimit:10;" d="M 121.85 75.1 L 117.85 75.1 M 117.85 73.6 L 121.85 75.1 L 117.85 76.6 " transform="matrix(1.25,0,0,1.25,-77.5,-72.5)"/>
<path style="fill:none;stroke-width:1;stroke-linecap:round;stroke-linejoin:round;stroke:rgb(0%,0%,0%);stroke-opacity:1;stroke-miterlimit:10;" d="M 304.45 75.1 L 316.1 75.1 " transform="matrix(1.25,0,0,1.25,-77.5,-72.5)"/>
<path style="fill:none;stroke-width:1;stroke-linecap:butt;stroke-linejoin:miter;stroke:rgb(0%,0%,0%);stroke-opacity:1;stroke-miterlimit:10;" d="M 320.1 75.1 L 316.1 75.1 M 316.1 73.6 L 320.1 75.1 L 316.1 76.6 " transform="matrix(1.25,0,0,1.25,-77.5,-72.5)"/>
<path style=" stroke:none;fill-rule:nonzero;fill:rgb(100%,100%,100%);fill-opacity:1;" d="M 1.75 34.5 L 55.25 34.5 L 55.25 8.25 L 1.75 8.25 Z M 1.75 34.5 "/>
<path style="fill:none;stroke-width:1;stroke-linecap:round;stroke-linejoin:round;stroke:rgb(0%,0%,0%);stroke-opacity:1;stroke-miterlimit:10;" d="M 63.4 64.6 L 106.2 64.6 L 106.2 85.6 L 63.4 85.6 Z M 63.4 64.6 " transform="matrix(1.25,0,0,1.25,-77.5,-72.5)"/>
<path style=" stroke:none;fill-rule:nonzero;fill:rgb(0%,0%,0%);fill-opacity:1;" d="M 19.828125 19.695312 L 19.828125 21.355469 L 18.714844 21.355469 C 18.988281 20.632812 19.261719 19.8125 19.496094 18.894531 L 21.664062 18.894531 L 21.664062 18.132812 L 19.691406 18.132812 C 19.789062 17.683594 19.886719 17.195312 20.003906 16.6875 L 19.261719 16.53125 C 19.144531 17.078125 19.046875 17.625 18.929688 18.132812 L 17.816406 18.132812 L 17.816406 18.894531 L 18.753906 18.894531 C 18.5 19.890625 18.226562 20.75 17.894531 21.414062 L 18.070312 22.097656 L 19.828125 22.097656 L 19.828125 23.777344 C 19.164062 23.894531 18.480469 24.011719 17.738281 24.089844 L 17.835938 24.890625 C 18.519531 24.773438 19.183594 24.675781 19.828125 24.539062 L 19.828125 26.882812 L 20.570312 26.882812 L 20.570312 24.382812 L 21.644531 24.109375 L 21.644531 23.347656 C 21.3125 23.425781 20.960938 23.523438 20.570312 23.621094 L 20.570312 22.097656 L 21.605469 22.097656 L 21.605469 21.355469 L 20.570312 21.355469 L 20.570312 19.695312 Z M 23.148438 19.109375 L 23.148438 19.773438 L 26.371094 19.773438 L 26.371094 19.109375 L 23.148438 19.109375 C 23.714844 18.5625 24.261719 17.957031 24.789062 17.3125 C 25.648438 18.40625 26.605469 19.34375 27.660156 20.105469 L 28.089844 19.480469 C 27.074219 18.757812 26.078125 17.800781 25.082031 16.589844 L 24.515625 16.589844 C 23.597656 17.703125 22.5625 18.699219 21.410156 19.539062 L 21.859375 20.222656 C 22.289062 19.871094 22.71875 19.5 23.148438 19.109375 Z M 23.929688 26.804688 C 24.476562 26.804688 24.769531 26.511719 24.769531 25.925781 L 24.769531 20.671875 L 22.113281 20.671875 L 22.113281 26.882812 L 22.816406 26.882812 L 22.816406 24.773438 L 24.085938 24.773438 L 24.085938 25.789062 C 24.085938 26.023438 23.949219 26.160156 23.714844 26.160156 L 23.207031 26.140625 L 23.382812 26.804688 Z M 22.816406 24.148438 L 22.816406 23.074219 L 24.085938 23.074219 L 24.085938 24.148438 Z M 22.816406 22.449219 L 22.816406 21.335938 L 24.085938 21.335938 L 24.085938 22.449219 Z M 25.433594 20.984375 L 25.433594 25.027344 L 26.078125 25.027344 L 26.078125 20.984375 Z M 26.664062 26.824219 C 27.210938 26.824219 27.484375 26.492188 27.484375 25.847656 L 27.484375 20.476562 L 26.78125 20.476562 L 26.78125 25.671875 C 26.78125 25.984375 26.664062 26.160156 26.410156 26.160156 C 26.136719 26.160156 25.84375 26.140625 25.550781 26.101562 L 25.707031 26.824219 Z M 26.664062 26.824219 "/>
<path style=" stroke:none;fill-rule:nonzero;fill:rgb(0%,0%,0%);fill-opacity:1;" d="M 33.636719 19.167969 C 32.914062 22.15625 31.351562 24.460938 28.929688 26.023438 L 29.417969 26.726562 C 31.78125 25.183594 33.34375 22.976562 34.085938 20.105469 C 34.144531 20.242188 34.183594 20.398438 34.261719 20.59375 C 35.414062 23.5625 36.898438 25.613281 38.734375 26.707031 L 39.242188 26.0625 C 37.445312 24.949219 36.039062 23.035156 34.984375 20.359375 C 34.300781 18.523438 33.441406 17.253906 32.445312 16.550781 L 31.78125 16.980469 C 32.484375 17.507812 33.109375 18.230469 33.636719 19.167969 Z M 33.636719 19.167969 "/>
<path style=" stroke:none;fill-rule:nonzero;fill:rgb(100%,100%,100%);fill-opacity:1;" d="M 163.375 34.5 L 216.875 34.5 L 216.875 8.25 L 163.375 8.25 Z M 163.375 34.5 "/>
<path style="fill:none;stroke-width:1;stroke-linecap:round;stroke-linejoin:round;stroke:rgb(0%,0%,0%);stroke-opacity:1;stroke-miterlimit:10;" d="M 192.7 64.6 L 235.5 64.6 L 235.5 85.6 L 192.7 85.6 Z M 192.7 64.6 " transform="matrix(1.25,0,0,1.25,-77.5,-72.5)"/>
<path style=" stroke:none;fill-rule:nonzero;fill:rgb(0%,0%,0%);fill-opacity:1;" d="M 181.902344 21.960938 C 181.140625 22.78125 180.28125 23.503906 179.34375 24.109375 L 179.597656 24.96875 C 180.457031 24.324219 181.21875 23.640625 181.902344 22.917969 L 181.902344 26.84375 L 182.703125 26.84375 L 182.703125 16.628906 L 181.902344 16.628906 Z M 180.261719 17.742188 L 179.5 17.996094 C 179.929688 18.835938 180.320312 19.832031 180.671875 20.964844 L 181.375 20.632812 C 181.0625 19.617188 180.691406 18.640625 180.261719 17.742188 Z M 187.859375 16.785156 L 187.214844 17.175781 C 187.800781 17.839844 188.289062 18.445312 188.621094 19.011719 L 189.246094 18.5625 C 188.914062 18.054688 188.464844 17.449219 187.859375 16.785156 Z M 186.609375 16.589844 L 185.808594 16.589844 C 185.808594 17.273438 185.789062 18.289062 185.75 19.578125 L 183.445312 19.578125 L 183.445312 20.359375 L 185.710938 20.359375 C 185.476562 22.585938 184.617188 24.558594 183.113281 26.238281 L 183.640625 26.84375 C 184.929688 25.476562 185.808594 23.777344 186.296875 21.726562 C 186.785156 23.777344 187.742188 25.476562 189.148438 26.824219 L 189.714844 26.21875 C 188.152344 24.832031 187.136719 22.878906 186.667969 20.359375 L 189.324219 20.359375 L 189.324219 19.578125 L 186.570312 19.578125 C 186.589844 18.40625 186.609375 17.429688 186.609375 16.589844 Z M 186.609375 16.589844 "/>
<path style=" stroke:none;fill-rule:nonzero;fill:rgb(0%,0%,0%);fill-opacity:1;" d="M 195.339844 16.453125 C 195.300781 16.902344 195.203125 17.332031 195.085938 17.742188 L 191.121094 17.742188 L 191.121094 18.523438 L 194.8125 18.523438 C 194.597656 18.953125 194.363281 19.34375 194.03125 19.695312 C 193.328125 20.4375 192.175781 21.023438 190.574219 21.414062 L 190.886719 22.15625 C 192.234375 21.804688 193.289062 21.355469 194.03125 20.808594 C 194.578125 21.21875 195.125 21.707031 195.652344 22.253906 L 196.21875 21.6875 C 195.613281 21.140625 195.066406 20.691406 194.578125 20.339844 C 194.617188 20.300781 194.65625 20.261719 194.695312 20.222656 C 195.105469 19.734375 195.4375 19.167969 195.691406 18.523438 L 195.867188 18.523438 C 196.433594 20.046875 197.9375 21.257812 200.4375 22.136719 L 200.867188 21.433594 C 198.621094 20.730469 197.234375 19.773438 196.6875 18.523438 L 200.28125 18.523438 L 200.28125 17.742188 L 195.945312 17.742188 C 196.023438 17.351562 196.101562 16.960938 196.160156 16.53125 Z M 191.726562 23.113281 C 191.511719 24.109375 191.179688 25.046875 190.691406 25.867188 L 191.394531 26.316406 C 191.882812 25.457031 192.253906 24.441406 192.527344 23.269531 Z M 196.003906 22.703125 L 195.28125 22.917969 C 195.652344 23.503906 195.984375 24.167969 196.296875 24.910156 L 197.039062 24.597656 C 196.746094 23.914062 196.394531 23.289062 196.003906 22.703125 Z M 199.363281 22.9375 L 198.582031 23.191406 C 199.109375 23.992188 199.597656 24.910156 200.027344 25.964844 L 200.769531 25.632812 C 200.378906 24.675781 199.910156 23.777344 199.363281 22.9375 Z M 197.292969 26.648438 C 197.722656 26.648438 198.035156 26.53125 198.230469 26.355469 C 198.464844 26.121094 198.621094 25.515625 198.699219 24.5 L 197.9375 24.246094 C 197.878906 25.027344 197.800781 25.496094 197.664062 25.652344 C 197.566406 25.789062 197.390625 25.847656 197.15625 25.847656 L 194.695312 25.847656 C 194.363281 25.847656 194.207031 25.691406 194.207031 25.339844 L 194.207031 23.074219 L 193.367188 23.074219 L 193.367188 25.515625 C 193.367188 26.257812 193.71875 26.648438 194.441406 26.648438 Z M 197.292969 26.648438 "/>
<path style=" stroke:none;fill-rule:nonzero;fill:rgb(100%,100%,100%);fill-opacity:1;" d="M 325 34.5 L 378.5 34.5 L 378.5 8.25 L 325 8.25 Z M 325 34.5 "/>
<path style="fill:none;stroke-width:1;stroke-linecap:round;stroke-linejoin:round;stroke:rgb(0%,0%,0%);stroke-opacity:1;stroke-miterlimit:10;" d="M 322 64.6 L 364.8 64.6 L 364.8 85.6 L 322 85.6 Z M 322 64.6 " transform="matrix(1.25,0,0,1.25,-77.5,-72.5)"/>
<path style=" stroke:none;fill-rule:nonzero;fill:rgb(0%,0%,0%);fill-opacity:1;" d="M 343.078125 19.695312 L 343.078125 21.355469 L 341.964844 21.355469 C 342.238281 20.632812 342.511719 19.8125 342.746094 18.894531 L 344.914062 18.894531 L 344.914062 18.132812 L 342.941406 18.132812 C 343.039062 17.683594 343.136719 17.195312 343.253906 16.6875 L 342.511719 16.53125 C 342.394531 17.078125 342.296875 17.625 342.179688 18.132812 L 341.066406 18.132812 L 341.066406 18.894531 L 342.003906 18.894531 C 341.75 19.890625 341.476562 20.75 341.144531 21.414062 L 341.320312 22.097656 L 343.078125 22.097656 L 343.078125 23.777344 C 342.414062 23.894531 341.730469 24.011719 340.988281 24.089844 L 341.085938 24.890625 C 341.769531 24.773438 342.433594 24.675781 343.078125 24.539062 L 343.078125 26.882812 L 343.820312 26.882812 L 343.820312 24.382812 L 344.894531 24.109375 L 344.894531 23.347656 C 344.5625 23.425781 344.210938 23.523438 343.820312 23.621094 L 343.820312 22.097656 L 344.855469 22.097656 L 344.855469 21.355469 L 343.820312 21.355469 L 343.820312 19.695312 Z M 346.398438 19.109375 L 346.398438 19.773438 L 349.621094 19.773438 L 349.621094 19.109375 L 346.398438 19.109375 C 346.964844 18.5625 347.511719 17.957031 348.039062 17.3125 C 348.898438 18.40625 349.855469 19.34375 350.910156 20.105469 L 351.339844 19.480469 C 350.324219 18.757812 349.328125 17.800781 348.332031 16.589844 L 347.765625 16.589844 C 346.847656 17.703125 345.8125 18.699219 344.660156 19.539062 L 345.109375 20.222656 C 345.539062 19.871094 345.96875 19.5 346.398438 19.109375 Z M 347.179688 26.804688 C 347.726562 26.804688 348.019531 26.511719 348.019531 25.925781 L 348.019531 20.671875 L 345.363281 20.671875 L 345.363281 26.882812 L 346.066406 26.882812 L 346.066406 24.773438 L 347.335938 24.773438 L 347.335938 25.789062 C 347.335938 26.023438 347.199219 26.160156 346.964844 26.160156 L 346.457031 26.140625 L 346.632812 26.804688 Z M 346.066406 24.148438 L 346.066406 23.074219 L 347.335938 23.074219 L 347.335938 24.148438 Z M 346.066406 22.449219 L 346.066406 21.335938 L 347.335938 21.335938 L 347.335938 22.449219 Z M 348.683594 20.984375 L 348.683594 25.027344 L 349.328125 25.027344 L 349.328125 20.984375 Z M 349.914062 26.824219 C 350.460938 26.824219 350.734375 26.492188 350.734375 25.847656 L 350.734375 20.476562 L 350.03125 20.476562 L 350.03125 25.671875 C 350.03125 25.984375 349.914062 26.160156 349.660156 26.160156 C 349.386719 26.160156 349.09375 26.140625 348.800781 26.101562 L 348.957031 26.824219 Z M 349.914062 26.824219 "/>
<path style=" stroke:none;fill-rule:nonzero;fill:rgb(0%,0%,0%);fill-opacity:1;" d="M 360.421875 20.476562 L 357.785156 20.476562 L 357.785156 16.550781 L 356.964844 16.550781 L 356.964844 20.476562 L 354.328125 20.476562 L 354.328125 17.410156 L 353.507812 17.410156 L 353.507812 21.257812 L 356.964844 21.257812 L 356.964844 25.398438 L 353.78125 25.398438 L 353.78125 22.3125 L 352.960938 22.3125 L 352.960938 26.804688 L 353.78125 26.804688 L 353.78125 26.160156 L 360.96875 26.160156 L 360.96875 26.804688 L 361.789062 26.804688 L 361.789062 22.3125 L 360.96875 22.3125 L 360.96875 25.398438 L 357.785156 25.398438 L 357.785156 21.257812 L 361.242188 21.257812 L 361.242188 17.410156 L 360.421875 17.410156 Z M 360.421875 20.476562 "/>
<path style="fill:none;stroke-width:1;stroke-linecap:round;stroke-linejoin:round;stroke:rgb(0%,0%,0%);stroke-opacity:1;stroke-miterlimit:10;" d="M 235.5 75.1 L 247.15 75.1 " transform="matrix(1.25,0,0,1.25,-77.5,-72.5)"/>
<path style="fill:none;stroke-width:1;stroke-linecap:butt;stroke-linejoin:miter;stroke:rgb(0%,0%,0%);stroke-opacity:1;stroke-miterlimit:10;" d="M 251.15 75.1 L 247.15 75.1 M 247.15 73.6 L 251.15 75.1 L 247.15 76.6 " transform="matrix(1.25,0,0,1.25,-77.5,-72.5)"/>
<path style=" stroke:none;fill-rule:nonzero;fill:rgb(100%,100%,100%);fill-opacity:1;" d="M 244.1875 88.75 L 297.6875 88.75 L 297.6875 62.5 L 244.1875 62.5 Z M 244.1875 88.75 "/>
<path style="fill:none;stroke-width:1;stroke-linecap:round;stroke-linejoin:round;stroke:rgb(0%,0%,0%);stroke-opacity:1;stroke-miterlimit:10;" d="M 257.35 108 L 300.15 108 L 300.15 129 L 257.35 129 Z M 257.35 108 " transform="matrix(1.25,0,0,1.25,-77.5,-72.5)"/>
<path style=" stroke:none;fill-rule:nonzero;fill:rgb(0%,0%,0%);fill-opacity:1;" d="M 262.265625 73.945312 L 262.265625 75.605469 L 261.152344 75.605469 C 261.425781 74.882812 261.699219 74.0625 261.933594 73.144531 L 264.101562 73.144531 L 264.101562 72.382812 L 262.128906 72.382812 C 262.226562 71.933594 262.324219 71.445312 262.441406 70.9375 L 261.699219 70.78125 C 261.582031 71.328125 261.484375 71.875 261.367188 72.382812 L 260.253906 72.382812 L 260.253906 73.144531 L 261.191406 73.144531 C 260.9375 74.140625 260.664062 75 260.332031 75.664062 L 260.507812 76.347656 L 262.265625 76.347656 L 262.265625 78.027344 C 261.601562 78.144531 260.917969 78.261719 260.175781 78.339844 L 260.273438 79.140625 C 260.957031 79.023438 261.621094 78.925781 262.265625 78.789062 L 262.265625 81.132812 L 263.007812 81.132812 L 263.007812 78.632812 L 264.082031 78.359375 L 264.082031 77.597656 C 263.75 77.675781 263.398438 77.773438 263.007812 77.871094 L 263.007812 76.347656 L 264.042969 76.347656 L 264.042969 75.605469 L 263.007812 75.605469 L 263.007812 73.945312 Z M 265.585938 73.359375 L 265.585938 74.023438 L 268.808594 74.023438 L 268.808594 73.359375 L 265.585938 73.359375 C 266.152344 72.8125 266.699219 72.207031 267.226562 71.5625 C 268.085938 72.65625 269.042969 73.59375 270.097656 74.355469 L 270.527344 73.730469 C 269.511719 73.007812 268.515625 72.050781 267.519531 70.839844 L 266.953125 70.839844 C 266.035156 71.953125 265 72.949219 263.847656 73.789062 L 264.296875 74.472656 C 264.726562 74.121094 265.15625 73.75 265.585938 73.359375 Z M 266.367188 81.054688 C 266.914062 81.054688 267.207031 80.761719 267.207031 80.175781 L 267.207031 74.921875 L 264.550781 74.921875 L 264.550781 81.132812 L 265.253906 81.132812 L 265.253906 79.023438 L 266.523438 79.023438 L 266.523438 80.039062 C 266.523438 80.273438 266.386719 80.410156 266.152344 80.410156 L 265.644531 80.390625 L 265.820312 81.054688 Z M 265.253906 78.398438 L 265.253906 77.324219 L 266.523438 77.324219 L 266.523438 78.398438 Z M 265.253906 76.699219 L 265.253906 75.585938 L 266.523438 75.585938 L 266.523438 76.699219 Z M 267.871094 75.234375 L 267.871094 79.277344 L 268.515625 79.277344 L 268.515625 75.234375 Z M 269.101562 81.074219 C 269.648438 81.074219 269.921875 80.742188 269.921875 80.097656 L 269.921875 74.726562 L 269.21875 74.726562 L 269.21875 79.921875 C 269.21875 80.234375 269.101562 80.410156 268.847656 80.410156 C 268.574219 80.410156 268.28125 80.390625 267.988281 80.351562 L 268.144531 81.074219 Z M 269.101562 81.074219 "/>
<path style=" stroke:none;fill-rule:nonzero;fill:rgb(0%,0%,0%);fill-opacity:1;" d="M 276.074219 73.417969 C 275.351562 76.40625 273.789062 78.710938 271.367188 80.273438 L 271.855469 80.976562 C 274.21875 79.433594 275.78125 77.226562 276.523438 74.355469 C 276.582031 74.492188 276.621094 74.648438 276.699219 74.84375 C 277.851562 77.8125 279.335938 79.863281 281.171875 80.957031 L 281.679688 80.3125 C 279.882812 79.199219 278.476562 77.285156 277.421875 74.609375 C 276.738281 72.773438 275.878906 71.503906 274.882812 70.800781 L 274.21875 71.230469 C 274.921875 71.757812 275.546875 72.480469 276.074219 73.417969 Z M 276.074219 73.417969 "/>
<path style="fill:none;stroke-width:1;stroke-linecap:round;stroke-linejoin:round;stroke:rgb(0%,0%,0%);stroke-opacity:1;stroke-miterlimit:10;" d="M 278.75 108 L 278.75 97.1 " transform="matrix(1.25,0,0,1.25,-77.5,-72.5)"/>
<path style="fill:none;stroke-width:1;stroke-linecap:butt;stroke-linejoin:miter;stroke:rgb(0%,0%,0%);stroke-opacity:1;stroke-miterlimit:10;" d="M 278.75 93.1 L 278.75 97.1 M 277.25 97.1 L 278.75 93.1 L 280.25 97.1 " transform="matrix(1.25,0,0,1.25,-77.5,-72.5)"/>
</g>
</svg>
