<?xml version="1.0" encoding="UTF-8"?>
<svg xmlns="http://www.w3.org/2000/svg" xmlns:xlink="http://www.w3.org/1999/xlink" width="506pt" height="220pt" viewBox="0 0 506 220" version="1.1">
<g id="surface1">
<path style="fill:none;stroke-width:1;stroke-linecap:round;stroke-linejoin:round;stroke:rgb(0%,0%,0%);stroke-opacity:1;stroke-miterlimit:10;" d="M 302 300 L 370 300 C 373.3125 300 376 302.6875 376 306 L 376 350 C 376 353.3125 373.3125 356 370 356 L 302 356 C 298.6875 356 296 353.3125 296 350 L 296 306 C 296 302.6875 298.6875 300 302 300 Z M 302 300 " transform="matrix(1.25,0,0,1.25,-140,-325)"/>
<path style=" stroke:none;fill-rule:nonzero;fill:rgb(40%,74.901961%,100%);fill-opacity:1;" d="M 267.753906 95 L 302.753906 95 L 302.753906 75 L 267.753906 75 Z M 267.753906 95 "/>
<path style="fill:none;stroke-width:1;stroke-linecap:round;stroke-linejoin:round;stroke:rgb(0%,0%,0%);stroke-opacity:1;stroke-miterlimit:10;" d="M 326.203125 320 L 354.203125 320 L 354.203125 336 L 326.203125 336 Z M 326.203125 320 " transform="matrix(1.25,0,0,1.25,-140,-325)"/>
<path style=" stroke:none;fill-rule:nonzero;fill:rgb(0%,0%,0%);fill-opacity:1;" d="M 288.199219 85.03125 C 288.199219 85.683594 288.070312 86.289062 287.828125 86.847656 C 287.554688 87.460938 287.152344 87.921875 286.636719 88.234375 C 286.214844 88.496094 285.765625 88.644531 285.289062 88.683594 L 284.859375 90.792969 L 283.863281 90.792969 L 284.332031 88.605469 C 284.160156 88.554688 283.988281 88.488281 283.824219 88.410156 C 283.050781 88.007812 282.671875 87.324219 282.671875 86.359375 C 282.671875 85.214844 283.007812 84.269531 283.6875 83.527344 C 284.179688 82.980469 284.804688 82.675781 285.5625 82.609375 L 286.011719 80.519531 L 287.007812 80.519531 L 286.558594 82.6875 C 286.949219 82.78125 287.28125 82.96875 287.554688 83.253906 C 287.984375 83.699219 288.199219 84.289062 288.199219 85.03125 Z M 287.222656 85.03125 C 287.222656 84.5 287.085938 84.089844 286.8125 83.800781 C 286.695312 83.671875 286.546875 83.566406 286.382812 83.488281 L 285.464844 87.882812 C 285.761719 87.804688 286.035156 87.648438 286.285156 87.414062 C 286.621094 87.078125 286.875 86.632812 287.046875 86.085938 C 287.164062 85.710938 287.222656 85.359375 287.222656 85.03125 Z M 285.40625 83.410156 C 284.976562 83.515625 284.59375 83.796875 284.273438 84.25 C 283.867188 84.796875 283.667969 85.46875 283.667969 86.261719 C 283.667969 86.796875 283.792969 87.207031 284.058594 87.492188 C 284.183594 87.636719 284.332031 87.742188 284.488281 87.804688 Z M 285.40625 83.410156 "/>
<path style="fill:none;stroke-width:1;stroke-linecap:round;stroke-linejoin:round;stroke:rgb(0%,0%,0%);stroke-opacity:1;stroke-miterlimit:10;" d="M 272 328 L 320.3 328 " transform="matrix(1.25,0,0,1.25,-140,-325)"/>
<path style="fill:none;stroke-width:1;stroke-linecap:butt;stroke-linejoin:miter;stroke:rgb(0%,0%,0%);stroke-opacity:1;stroke-miterlimit:10;" d="M 324.3 328 L 320.3 328 M 320.3 326.5 L 324.3 328 L 320.3 329.5 " transform="matrix(1.25,0,0,1.25,-140,-325)"/>
<path style="fill:none;stroke-width:1;stroke-linecap:round;stroke-linejoin:round;stroke:rgb(0%,0%,0%);stroke-opacity:1;stroke-miterlimit:10;" d="M 308 368 L 308 334 C 308 330.6875 310.6875 328 314 328 L 321.25625 328 " transform="matrix(1.25,0,0,1.25,-140,-325)"/>
<path style="fill:none;stroke-width:1;stroke-linecap:round;stroke-linejoin:round;stroke:rgb(0%,0%,0%);stroke-opacity:1;stroke-miterlimit:10;" d="M 354.203125 328 L 425.840625 328 " transform="matrix(1.25,0,0,1.25,-140,-325)"/>
<path style="fill:none;stroke-width:1;stroke-linecap:butt;stroke-linejoin:miter;stroke:rgb(0%,0%,0%);stroke-opacity:1;stroke-miterlimit:10;" d="M 429.840625 328 L 425.840625 328 M 425.840625 326.5 L 429.840625 328 L 425.840625 329.5 " transform="matrix(1.25,0,0,1.25,-140,-325)"/>
<path style="fill:none;stroke-width:1;stroke-linecap:round;stroke-linejoin:round;stroke:rgb(0%,0%,0%);stroke-opacity:1;stroke-miterlimit:10;" d="M 356.9125 328 L 358 328 C 361.3125 328 364 325.3125 364 322 L 364 285.9 " transform="matrix(1.25,0,0,1.25,-140,-325)"/>
<path style="fill:none;stroke-width:1;stroke-linecap:butt;stroke-linejoin:miter;stroke:rgb(0%,0%,0%);stroke-opacity:1;stroke-miterlimit:10;" d="M 364 281.9 L 364 285.9 M 362.5 285.9 L 364 281.9 L 365.5 285.9 " transform="matrix(1.25,0,0,1.25,-140,-325)"/>
<path style=" stroke:none;fill-rule:nonzero;fill:rgb(0%,0%,0%);fill-opacity:1;" d="M 249.015625 150.625 L 249.015625 150.351562 C 248.625 150.332031 248.449219 150.195312 247.921875 149.375 L 245.871094 146.191406 L 246.769531 144.941406 C 247.746094 143.574219 248.039062 143.378906 248.878906 143.300781 L 248.878906 143.027344 L 246.066406 143.027344 L 246.066406 143.300781 L 246.300781 143.320312 C 246.730469 143.359375 246.886719 143.457031 246.886719 143.710938 C 246.886719 143.964844 246.75 144.179688 246.222656 144.902344 L 245.597656 145.78125 L 244.503906 144.082031 C 244.367188 143.867188 244.347656 143.808594 244.347656 143.671875 C 244.347656 143.4375 244.464844 143.339844 244.875 143.320312 L 245.226562 143.300781 L 245.226562 143.027344 L 241.339844 143.027344 L 241.339844 143.300781 C 241.75 143.339844 241.886719 143.457031 242.238281 143.945312 L 244.464844 147.226562 L 242.492188 149.707031 C 242.160156 150.136719 241.886719 150.273438 241.320312 150.351562 L 241.320312 150.625 L 244.132812 150.625 L 244.132812 150.351562 C 243.449219 150.273438 243.234375 150.15625 243.234375 149.863281 C 243.234375 149.628906 243.449219 149.277344 244.289062 148.144531 L 244.71875 147.578125 L 245.851562 149.394531 C 245.988281 149.609375 246.085938 149.863281 246.085938 150 C 246.085938 150.195312 245.890625 150.292969 245.5 150.3125 L 245.1875 150.351562 L 245.1875 150.625 Z M 249.015625 150.625 "/>
<path style=" stroke:none;fill-rule:nonzero;fill:rgb(0%,0%,0%);fill-opacity:1;" d="M 251.496094 151.171875 L 250.890625 151.171875 L 251.105469 150.390625 C 251.105469 150.371094 251.105469 150.332031 251.105469 150.332031 C 251.105469 150.292969 251.085938 150.273438 251.046875 150.273438 C 251.007812 150.273438 250.96875 150.292969 250.929688 150.351562 C 250.65625 150.761719 250.167969 151.113281 249.933594 151.171875 C 249.757812 151.210938 249.699219 151.269531 249.699219 151.367188 C 249.699219 151.367188 249.699219 151.386719 249.699219 151.40625 L 250.265625 151.40625 L 249.679688 153.632812 C 249.621094 153.867188 249.5625 154.101562 249.5625 154.179688 C 249.5625 154.375 249.699219 154.453125 249.894531 154.453125 C 250.285156 154.453125 250.519531 154.238281 250.96875 153.554688 L 250.871094 153.496094 C 250.5 153.964844 250.382812 154.082031 250.265625 154.082031 C 250.207031 154.082031 250.148438 154.0625 250.148438 153.964844 C 250.148438 153.945312 250.167969 153.886719 250.167969 153.867188 L 250.8125 151.40625 L 251.457031 151.40625 Z M 251.496094 151.171875 "/>
<path style=" stroke:none;fill-rule:nonzero;fill:rgb(0%,0%,0%);fill-opacity:1;" d="M 30.585938 86.191406 L 30.585938 82.363281 L 28.808594 82.363281 C 29.160156 81.972656 29.492188 81.484375 29.84375 80.9375 L 29.84375 80.332031 L 27.226562 80.332031 C 27.34375 80.117188 27.460938 79.863281 27.539062 79.609375 L 26.738281 79.511719 C 26.347656 80.546875 25.605469 81.40625 24.511719 82.128906 L 24.980469 82.753906 C 25.117188 82.65625 25.253906 82.558594 25.410156 82.441406 L 25.410156 83.085938 L 29.804688 83.085938 L 29.804688 83.945312 L 25.253906 83.945312 L 25.253906 84.648438 L 29.804688 84.648438 L 29.804688 85.488281 L 25 85.488281 L 25 86.191406 Z M 26.796875 81.035156 L 28.945312 81.035156 C 28.613281 81.542969 28.28125 81.992188 27.949219 82.363281 L 25.507812 82.363281 C 25.996094 81.972656 26.425781 81.542969 26.796875 81.035156 Z M 21.5625 80.019531 L 21.5625 89.882812 L 22.363281 89.882812 L 22.363281 80.78125 L 23.984375 80.78125 C 23.710938 81.738281 23.339844 82.792969 22.871094 83.964844 C 23.476562 84.921875 23.769531 85.800781 23.769531 86.5625 C 23.769531 86.796875 23.710938 86.972656 23.632812 87.070312 C 23.535156 87.167969 23.339844 87.226562 23.066406 87.246094 C 22.949219 87.246094 22.792969 87.226562 22.636719 87.207031 L 22.890625 88.027344 C 23.535156 88.027344 24.003906 87.890625 24.277344 87.617188 C 24.453125 87.402344 24.550781 87.050781 24.550781 86.5625 C 24.511719 85.761719 24.21875 84.84375 23.671875 83.847656 C 24.101562 82.734375 24.472656 81.679688 24.785156 80.664062 L 24.785156 80.019531 Z M 30.429688 86.660156 L 29.726562 86.894531 C 30.117188 87.578125 30.488281 88.359375 30.820312 89.238281 L 31.484375 88.925781 C 31.171875 88.125 30.820312 87.382812 30.429688 86.660156 Z M 25.097656 86.875 C 24.921875 87.675781 24.648438 88.417969 24.277344 89.082031 L 24.941406 89.511719 C 25.3125 88.808594 25.605469 87.988281 25.820312 87.03125 Z M 28.828125 89.785156 C 29.160156 89.785156 29.414062 89.707031 29.570312 89.570312 C 29.765625 89.394531 29.902344 88.925781 29.960938 88.164062 L 29.257812 87.929688 C 29.21875 88.476562 29.160156 88.808594 29.082031 88.925781 C 29.003906 89.003906 28.867188 89.0625 28.691406 89.0625 L 27.480469 89.0625 C 27.207031 89.0625 27.070312 88.886719 27.070312 88.574219 L 27.070312 86.738281 L 26.308594 86.738281 L 26.308594 88.75 C 26.308594 89.433594 26.621094 89.785156 27.246094 89.785156 Z M 28.085938 86.484375 L 27.519531 86.855469 C 27.929688 87.34375 28.261719 87.773438 28.496094 88.183594 L 29.101562 87.753906 C 28.867188 87.402344 28.515625 86.972656 28.085938 86.484375 Z M 28.085938 86.484375 "/>
<path style=" stroke:none;fill-rule:nonzero;fill:rgb(0%,0%,0%);fill-opacity:1;" d="M 34.902344 84.960938 C 34.140625 85.78125 33.28125 86.503906 32.34375 87.109375 L 32.597656 87.96875 C 33.457031 87.324219 34.21875 86.640625 34.902344 85.917969 L 34.902344 89.84375 L 35.703125 89.84375 L 35.703125 79.628906 L 34.902344 79.628906 Z M 33.261719 80.742188 L 32.5 80.996094 C 32.929688 81.835938 33.320312 82.832031 33.671875 83.964844 L 34.375 83.632812 C 34.0625 82.617188 33.691406 81.640625 33.261719 80.742188 Z M 40.859375 79.785156 L 40.214844 80.175781 C 40.800781 80.839844 41.289062 81.445312 41.621094 82.011719 L 42.246094 81.5625 C 41.914062 81.054688 41.464844 80.449219 40.859375 79.785156 Z M 39.609375 79.589844 L 38.808594 79.589844 C 38.808594 80.273438 38.789062 81.289062 38.75 82.578125 L 36.445312 82.578125 L 36.445312 83.359375 L 38.710938 83.359375 C 38.476562 85.585938 37.617188 87.558594 36.113281 89.238281 L 36.640625 89.84375 C 37.929688 88.476562 38.808594 86.777344 39.296875 84.726562 C 39.785156 86.777344 40.742188 88.476562 42.148438 89.824219 L 42.714844 89.21875 C 41.152344 87.832031 40.136719 85.878906 39.667969 83.359375 L 42.324219 83.359375 L 42.324219 82.578125 L 39.570312 82.578125 C 39.589844 81.40625 39.609375 80.429688 39.609375 79.589844 Z M 39.609375 79.589844 "/>
<path style=" stroke:none;fill-rule:nonzero;fill:rgb(0%,0%,0%);fill-opacity:1;" d="M 48.339844 79.453125 C 48.300781 79.902344 48.203125 80.332031 48.085938 80.742188 L 44.121094 80.742188 L 44.121094 81.523438 L 47.8125 81.523438 C 47.597656 81.953125 47.363281 82.34375 47.03125 82.695312 C 46.328125 83.4375 45.175781 84.023438 43.574219 84.414062 L 43.886719 85.15625 C 45.234375 84.804688 46.289062 84.355469 47.03125 83.808594 C 47.578125 84.21875 48.125 84.707031 48.652344 85.253906 L 49.21875 84.6875 C 48.613281 84.140625 48.066406 83.691406 47.578125 83.339844 C 47.617188 83.300781 47.65625 83.261719 47.695312 83.222656 C 48.105469 82.734375 48.4375 82.167969 48.691406 81.523438 L 48.867188 81.523438 C 49.433594 83.046875 50.9375 84.257812 53.4375 85.136719 L 53.867188 84.433594 C 51.621094 83.730469 50.234375 82.773438 49.6875 81.523438 L 53.28125 81.523438 L 53.28125 80.742188 L 48.945312 80.742188 C 49.023438 80.351562 49.101562 79.960938 49.160156 79.53125 Z M 44.726562 86.113281 C 44.511719 87.109375 44.179688 88.046875 43.691406 88.867188 L 44.394531 89.316406 C 44.882812 88.457031 45.253906 87.441406 45.527344 86.269531 Z M 49.003906 85.703125 L 48.28125 85.917969 C 48.652344 86.503906 48.984375 87.167969 49.296875 87.910156 L 50.039062 87.597656 C 49.746094 86.914062 49.394531 86.289062 49.003906 85.703125 Z M 52.363281 85.9375 L 51.582031 86.191406 C 52.109375 86.992188 52.597656 87.910156 53.027344 88.964844 L 53.769531 88.632812 C 53.378906 87.675781 52.910156 86.777344 52.363281 85.9375 Z M 50.292969 89.648438 C 50.722656 89.648438 51.035156 89.53125 51.230469 89.355469 C 51.464844 89.121094 51.621094 88.515625 51.699219 87.5 L 50.9375 87.246094 C 50.878906 88.027344 50.800781 88.496094 50.664062 88.652344 C 50.566406 88.789062 50.390625 88.847656 50.15625 88.847656 L 47.695312 88.847656 C 47.363281 88.847656 47.207031 88.691406 47.207031 88.339844 L 47.207031 86.074219 L 46.367188 86.074219 L 46.367188 88.515625 C 46.367188 89.257812 46.71875 89.648438 47.441406 89.648438 Z M 50.292969 89.648438 "/>
<path style=" stroke:none;fill-rule:nonzero;fill:rgb(0%,0%,0%);fill-opacity:1;" d="M 344.992188 75.625 L 344.992188 75.351562 C 344.191406 75.234375 343.996094 75.117188 343.996094 74.53125 L 343.996094 69.140625 C 343.996094 68.535156 344.230469 68.359375 344.992188 68.300781 L 344.992188 68.027344 L 341.183594 68.027344 L 341.183594 68.300781 C 341.964844 68.359375 342.179688 68.496094 342.179688 69.140625 L 342.179688 71.425781 L 339.464844 71.425781 L 339.464844 69.140625 C 339.464844 68.496094 339.679688 68.359375 340.480469 68.300781 L 340.480469 68.027344 L 336.691406 68.027344 L 336.691406 68.300781 C 337.453125 68.359375 337.648438 68.515625 337.648438 69.140625 L 337.648438 74.53125 C 337.648438 75.117188 337.472656 75.234375 336.691406 75.351562 L 336.691406 75.625 L 340.480469 75.625 L 340.480469 75.351562 C 339.660156 75.253906 339.464844 75.117188 339.464844 74.53125 L 339.464844 71.953125 L 342.179688 71.953125 L 342.179688 74.53125 C 342.179688 75.097656 342.003906 75.253906 341.183594 75.351562 L 341.183594 75.625 Z M 344.992188 75.625 "/>
<path style=" stroke:none;fill-rule:nonzero;fill:rgb(0%,0%,0%);fill-opacity:1;" d="M 347.433594 76.171875 L 346.828125 76.171875 L 347.042969 75.390625 C 347.042969 75.371094 347.042969 75.332031 347.042969 75.332031 C 347.042969 75.292969 347.023438 75.273438 346.984375 75.273438 C 346.945312 75.273438 346.90625 75.292969 346.867188 75.351562 C 346.59375 75.761719 346.105469 76.113281 345.871094 76.171875 C 345.695312 76.210938 345.636719 76.269531 345.636719 76.367188 C 345.636719 76.367188 345.636719 76.386719 345.636719 76.40625 L 346.203125 76.40625 L 345.617188 78.632812 C 345.558594 78.867188 345.5 79.101562 345.5 79.179688 C 345.5 79.375 345.636719 79.453125 345.832031 79.453125 C 346.222656 79.453125 346.457031 79.238281 346.90625 78.554688 L 346.808594 78.496094 C 346.4375 78.964844 346.320312 79.082031 346.203125 79.082031 C 346.144531 79.082031 346.085938 79.0625 346.085938 78.964844 C 346.085938 78.945312 346.105469 78.886719 346.105469 78.867188 L 346.75 76.40625 L 347.394531 76.40625 Z M 347.433594 76.171875 "/>
<path style=" stroke:none;fill-rule:nonzero;fill:rgb(40%,74.901961%,100%);fill-opacity:1;" d="M 60 207.5 L 95 207.5 L 95 187.5 L 60 187.5 Z M 60 207.5 "/>
<path style="fill:none;stroke-width:1;stroke-linecap:round;stroke-linejoin:round;stroke:rgb(0%,0%,0%);stroke-opacity:1;stroke-miterlimit:10;" d="M 160 410 L 188 410 L 188 426 L 160 426 Z M 160 410 " transform="matrix(1.25,0,0,1.25,-140,-325)"/>
<path style=" stroke:none;fill-rule:nonzero;fill:rgb(0%,0%,0%);fill-opacity:1;" d="M 80.445312 197.53125 C 80.445312 198.183594 80.320312 198.789062 80.074219 199.347656 C 79.800781 199.960938 79.402344 200.421875 78.882812 200.734375 C 78.464844 200.996094 78.015625 201.144531 77.535156 201.183594 L 77.105469 203.292969 L 76.109375 203.292969 L 76.578125 201.105469 C 76.40625 201.054688 76.238281 200.988281 76.070312 200.910156 C 75.300781 200.507812 74.917969 199.824219 74.917969 198.859375 C 74.917969 197.714844 75.253906 196.769531 75.933594 196.027344 C 76.425781 195.480469 77.050781 195.175781 77.808594 195.109375 L 78.257812 193.019531 L 79.253906 193.019531 L 78.804688 195.1875 C 79.195312 195.28125 79.527344 195.46875 79.800781 195.753906 C 80.230469 196.199219 80.445312 196.789062 80.445312 197.53125 Z M 79.46875 197.53125 C 79.46875 197 79.332031 196.589844 79.058594 196.300781 C 78.941406 196.171875 78.796875 196.066406 78.628906 195.988281 L 77.710938 200.382812 C 78.007812 200.304688 78.28125 200.148438 78.53125 199.914062 C 78.867188 199.578125 79.121094 199.132812 79.292969 198.585938 C 79.410156 198.210938 79.46875 197.859375 79.46875 197.53125 Z M 77.652344 195.910156 C 77.222656 196.015625 76.84375 196.296875 76.519531 196.75 C 76.113281 197.296875 75.914062 197.96875 75.914062 198.761719 C 75.914062 199.296875 76.042969 199.707031 76.304688 199.992188 C 76.433594 200.136719 76.578125 200.242188 76.734375 200.304688 Z M 77.652344 195.910156 "/>
<path style=" stroke:none;fill-rule:nonzero;fill:rgb(0%,0%,0%);fill-opacity:1;" d="M 116.875 185.800781 L 116.875 186.582031 L 118.554688 186.582031 L 118.554688 187.773438 L 119.296875 187.773438 L 119.296875 186.582031 L 121.445312 186.582031 L 121.445312 187.8125 L 122.226562 187.8125 L 122.226562 186.582031 L 124.394531 186.582031 L 124.394531 187.773438 L 125.15625 187.773438 L 125.15625 186.582031 L 126.875 186.582031 L 126.875 185.800781 L 125.15625 185.800781 L 125.15625 184.648438 L 124.394531 184.648438 L 124.394531 185.800781 L 122.226562 185.800781 L 122.226562 184.609375 L 121.445312 184.609375 L 121.445312 185.800781 L 119.296875 185.800781 L 119.296875 184.648438 L 118.554688 184.648438 L 118.554688 185.800781 Z M 126.503906 188.457031 L 117.246094 188.457031 L 117.246094 190.664062 L 118.027344 190.664062 L 118.027344 189.21875 L 121.445312 189.21875 L 121.445312 190.449219 L 118.632812 190.449219 L 118.632812 194.121094 L 119.414062 194.121094 L 119.414062 191.210938 L 121.445312 191.210938 L 121.445312 194.882812 L 122.265625 194.882812 L 122.265625 191.210938 L 124.375 191.210938 L 124.375 192.949219 C 124.375 193.222656 124.257812 193.359375 124.003906 193.359375 L 123.027344 193.320312 L 123.242188 194.101562 L 124.257812 194.101562 C 124.863281 194.101562 125.175781 193.769531 125.175781 193.105469 L 125.175781 190.449219 L 122.265625 190.449219 L 122.265625 189.21875 L 125.703125 189.21875 L 125.703125 190.625 L 126.503906 190.625 Z M 126.503906 188.457031 "/>
<path style=" stroke:none;fill-rule:nonzero;fill:rgb(0%,0%,0%);fill-opacity:1;" d="M 130.703125 185.546875 L 130.703125 189.0625 L 131.679688 189.0625 L 132.011719 190.019531 L 130.273438 190.019531 L 130.273438 190.703125 L 131.386719 190.703125 C 131.269531 191.5625 131.113281 192.246094 130.917969 192.753906 C 130.703125 193.300781 130.371094 193.789062 129.921875 194.238281 L 130.410156 194.882812 C 130.9375 194.355469 131.328125 193.769531 131.601562 193.105469 C 131.699219 192.851562 131.777344 192.578125 131.855469 192.246094 L 133.242188 192.246094 C 133.222656 193.027344 133.183594 193.515625 133.125 193.730469 C 133.066406 193.945312 132.871094 194.042969 132.578125 194.0625 L 131.894531 194.0625 L 132.089844 194.765625 L 132.792969 194.765625 C 133.242188 194.746094 133.574219 194.589844 133.75 194.257812 C 133.925781 193.945312 134.023438 193.046875 134.023438 191.582031 L 131.992188 191.582031 C 132.03125 191.308594 132.070312 191.035156 132.128906 190.703125 L 134.375 190.703125 L 134.375 190.019531 L 132.773438 190.019531 L 132.441406 189.0625 L 133.886719 189.0625 L 134.335938 189.609375 C 134.472656 189.414062 134.628906 189.179688 134.785156 188.925781 C 135.039062 190.097656 135.390625 191.132812 135.820312 192.011719 C 135.390625 192.871094 134.824219 193.574219 134.121094 194.140625 L 134.550781 194.84375 C 135.234375 194.296875 135.800781 193.613281 136.25 192.8125 C 136.71875 193.632812 137.265625 194.277344 137.890625 194.765625 L 138.359375 194.082031 C 137.675781 193.613281 137.109375 192.910156 136.621094 192.03125 C 137.1875 190.761719 137.480469 189.199219 137.539062 187.363281 L 138.183594 187.363281 L 138.183594 186.601562 L 135.742188 186.601562 C 135.898438 186.015625 136.035156 185.371094 136.132812 184.6875 L 135.390625 184.550781 C 135.136719 186.25 134.707031 187.636719 134.0625 188.691406 L 134.0625 185.546875 L 132.578125 185.546875 C 132.695312 185.253906 132.792969 184.960938 132.851562 184.648438 L 132.050781 184.53125 C 131.992188 184.882812 131.914062 185.214844 131.796875 185.546875 Z M 135.234375 188.027344 C 135.332031 187.8125 135.410156 187.578125 135.507812 187.363281 L 136.796875 187.363281 C 136.777344 188.808594 136.5625 190.078125 136.191406 191.152344 C 135.800781 190.253906 135.488281 189.21875 135.234375 188.027344 Z M 133.359375 188.457031 L 131.40625 188.457031 L 131.40625 187.636719 L 133.359375 187.636719 Z M 131.40625 187.03125 L 131.40625 186.152344 L 133.359375 186.152344 L 133.359375 187.03125 Z M 128.59375 184.765625 L 128.066406 185.273438 C 128.808594 185.820312 129.375 186.347656 129.804688 186.835938 L 130.332031 186.328125 C 129.84375 185.800781 129.277344 185.292969 128.59375 184.765625 Z M 128.4375 187.5 L 127.890625 188.027344 C 128.574219 188.59375 129.101562 189.121094 129.511719 189.648438 L 130.039062 189.101562 C 129.609375 188.554688 129.0625 188.027344 128.4375 187.5 Z M 129.453125 190.839844 C 129.042969 192.070312 128.59375 193.28125 128.046875 194.472656 L 128.769531 194.765625 C 129.257812 193.632812 129.726562 192.402344 130.136719 191.09375 Z M 129.453125 190.839844 "/>
<path style=" stroke:none;fill-rule:nonzero;fill:rgb(0%,0%,0%);fill-opacity:1;" d="M 142.207031 187.832031 L 142.207031 188.613281 L 145.429688 188.613281 L 145.429688 190.351562 L 142.96875 190.351562 L 142.96875 194.882812 L 143.769531 194.882812 L 143.769531 194.257812 L 147.988281 194.257812 L 147.988281 194.863281 L 148.789062 194.863281 L 148.789062 190.351562 L 146.25 190.351562 L 146.25 188.613281 L 149.492188 188.613281 L 149.492188 187.832031 L 146.25 187.832031 L 146.25 185.957031 C 147.285156 185.820312 148.183594 185.605469 148.964844 185.332031 L 148.574219 184.628906 C 146.953125 185.175781 144.902344 185.449219 142.460938 185.449219 L 142.695312 186.191406 C 143.671875 186.191406 144.570312 186.152344 145.429688 186.074219 L 145.429688 187.832031 Z M 143.769531 193.496094 L 143.769531 191.113281 L 147.988281 191.113281 L 147.988281 193.496094 Z M 140.175781 184.707031 L 139.628906 185.253906 C 140.429688 185.78125 141.074219 186.289062 141.542969 186.757812 L 142.089844 186.210938 C 141.582031 185.703125 140.9375 185.214844 140.175781 184.707031 Z M 139.921875 187.402344 L 139.355469 187.949219 C 140.175781 188.535156 140.820312 189.101562 141.289062 189.628906 L 141.855469 189.0625 C 141.328125 188.515625 140.683594 187.949219 139.921875 187.402344 Z M 141.25 190.390625 C 140.78125 191.757812 140.195312 193.085938 139.550781 194.394531 L 140.351562 194.746094 C 140.9375 193.476562 141.484375 192.109375 141.972656 190.683594 Z M 141.25 190.390625 "/>
<path style=" stroke:none;fill-rule:nonzero;fill:rgb(0%,0%,0%);fill-opacity:1;" d="M 152.382812 192.382812 C 153.457031 191.699219 154.472656 190.898438 155.429688 189.980469 L 155.429688 191.71875 C 155.429688 192.089844 155.273438 192.265625 154.960938 192.265625 C 154.628906 192.265625 154.316406 192.246094 154.023438 192.246094 L 154.238281 192.988281 L 155.253906 192.988281 C 155.859375 192.988281 156.171875 192.65625 156.171875 192.011719 L 156.171875 190.117188 C 156.855469 190.644531 157.695312 191.367188 158.671875 192.324219 L 159.140625 191.621094 C 158.125 190.742188 157.148438 189.980469 156.171875 189.296875 L 156.171875 187.578125 C 157.285156 186.972656 158.28125 186.367188 159.179688 185.742188 L 159.179688 184.980469 L 152.207031 184.980469 L 152.207031 185.742188 L 157.96875 185.742188 C 157.402344 186.113281 156.5625 186.582031 155.429688 187.128906 L 155.429688 189.0625 C 154.355469 190.078125 153.261719 190.917969 152.089844 191.582031 Z M 159.375 187.03125 L 159.375 193.515625 L 151.875 193.515625 L 151.875 187.03125 L 151.09375 187.03125 L 151.09375 194.882812 L 151.875 194.882812 L 151.875 194.257812 L 159.375 194.257812 L 159.375 194.902344 L 160.15625 194.902344 L 160.15625 187.03125 Z M 153.085938 187.382812 L 152.5 187.753906 C 153.144531 188.378906 153.671875 188.925781 154.0625 189.453125 L 154.6875 189.023438 C 154.316406 188.554688 153.789062 188.007812 153.085938 187.382812 Z M 158.203125 187.304688 C 157.792969 187.988281 157.265625 188.59375 156.679688 189.082031 L 157.265625 189.492188 C 157.871094 188.964844 158.417969 188.339844 158.867188 187.617188 Z M 158.203125 187.304688 "/>
<path style=" stroke:none;fill-rule:nonzero;fill:rgb(0%,0%,0%);fill-opacity:1;" d="M 168.652344 187.050781 L 170.3125 187.050781 C 170.273438 188.574219 170.039062 189.902344 169.589844 191.035156 C 169.140625 190.097656 168.789062 188.964844 168.515625 187.636719 Z M 169.21875 191.855469 C 168.710938 192.8125 168.027344 193.574219 167.148438 194.179688 L 167.558594 194.863281 C 168.398438 194.257812 169.101562 193.496094 169.648438 192.597656 C 170.195312 193.554688 170.878906 194.316406 171.660156 194.882812 L 172.109375 194.21875 C 171.289062 193.652344 170.605469 192.890625 170.019531 191.875 C 170.664062 190.546875 170.996094 188.925781 171.054688 187.050781 L 171.796875 187.050781 L 171.796875 186.289062 L 168.828125 186.289062 C 168.90625 185.78125 169.003906 185.253906 169.0625 184.667969 L 168.28125 184.53125 C 168.046875 186.679688 167.597656 188.378906 166.933594 189.628906 L 167.441406 190.253906 C 167.675781 189.84375 167.910156 189.394531 168.105469 188.867188 C 168.417969 190 168.789062 190.976562 169.21875 191.855469 Z M 163.886719 189.785156 C 163.808594 190.019531 163.730469 190.253906 163.632812 190.507812 L 161.972656 190.507812 L 161.972656 191.210938 L 163.300781 191.210938 C 163.085938 191.660156 162.832031 192.109375 162.539062 192.617188 C 163.085938 192.8125 163.59375 193.027344 164.101562 193.242188 C 163.4375 193.613281 162.636719 193.925781 161.71875 194.160156 L 162.109375 194.84375 C 163.222656 194.53125 164.160156 194.101562 164.902344 193.59375 C 165.566406 193.886719 166.152344 194.179688 166.640625 194.472656 L 167.070312 193.847656 C 166.582031 193.574219 166.074219 193.339844 165.527344 193.085938 C 166.113281 192.539062 166.523438 191.914062 166.777344 191.171875 L 166.777344 190.507812 L 164.414062 190.507812 C 164.492188 190.292969 164.570312 190.097656 164.648438 189.882812 Z M 164.785156 192.773438 C 164.375 192.597656 163.945312 192.441406 163.496094 192.285156 C 163.730469 191.953125 163.925781 191.582031 164.101562 191.210938 L 166.035156 191.210938 C 165.78125 191.796875 165.351562 192.324219 164.785156 192.773438 Z M 162.871094 184.765625 L 162.226562 184.980469 C 162.5 185.410156 162.753906 185.898438 162.988281 186.445312 L 163.574219 186.171875 C 163.359375 185.683594 163.144531 185.214844 162.871094 184.765625 Z M 166.289062 184.746094 C 166.09375 185.214844 165.800781 185.683594 165.429688 186.171875 L 166.015625 186.464844 C 166.367188 185.996094 166.640625 185.507812 166.875 185 Z M 162.011719 186.71875 L 162.011719 187.421875 L 163.59375 187.421875 C 163.261719 188.046875 162.65625 188.613281 161.796875 189.121094 L 162.1875 189.765625 C 163.144531 189.121094 163.828125 188.359375 164.199219 187.460938 L 164.199219 189.589844 L 164.960938 189.589844 L 164.960938 188.144531 C 165.351562 188.398438 165.839844 188.769531 166.40625 189.21875 L 166.816406 188.59375 C 166.191406 188.203125 165.566406 187.851562 164.960938 187.558594 L 164.960938 187.421875 L 166.992188 187.421875 L 166.992188 186.71875 L 164.960938 186.71875 L 164.960938 184.570312 L 164.199219 184.570312 L 164.199219 186.71875 Z M 162.011719 186.71875 "/>
<path style=" stroke:none;fill-rule:nonzero;fill:rgb(0%,0%,0%);fill-opacity:1;" d="M 177.050781 186.503906 L 175.234375 186.503906 C 175.449219 185.9375 175.625 185.332031 175.761719 184.667969 L 174.960938 184.550781 C 174.84375 185.214844 174.6875 185.878906 174.472656 186.503906 L 173.417969 186.503906 L 173.417969 194.511719 L 174.21875 194.511719 L 174.21875 193.535156 L 176.25 193.535156 L 176.25 194.179688 L 177.050781 194.179688 Z M 174.21875 192.773438 L 174.21875 190.3125 L 176.25 190.3125 L 176.25 192.773438 Z M 174.21875 189.589844 L 174.21875 187.265625 L 176.25 187.265625 L 176.25 189.589844 Z M 179.003906 189.121094 L 178.359375 189.511719 C 179.121094 190.449219 179.746094 191.269531 180.214844 192.011719 L 180.839844 191.5625 C 180.429688 190.878906 179.804688 190.039062 179.003906 189.121094 Z M 182.851562 186.523438 L 179.277344 186.523438 C 179.472656 185.9375 179.628906 185.292969 179.765625 184.628906 L 178.964844 184.53125 C 178.671875 186.132812 178.144531 187.480469 177.363281 188.59375 L 177.851562 189.21875 C 178.28125 188.652344 178.652344 188.007812 178.964844 187.304688 L 182.070312 187.304688 C 182.03125 190.546875 181.992188 192.480469 181.933594 193.125 C 181.835938 193.691406 181.542969 193.984375 180.996094 193.984375 C 180.664062 193.984375 180.253906 193.984375 179.785156 193.945312 L 179.960938 194.6875 C 180.507812 194.726562 180.898438 194.746094 181.113281 194.746094 C 182.070312 194.746094 182.578125 194.296875 182.695312 193.4375 C 182.8125 192.578125 182.851562 190.253906 182.851562 186.523438 Z M 182.851562 186.523438 "/>
<path style=" stroke:none;fill-rule:nonzero;fill:rgb(0%,0%,0%);fill-opacity:1;" d="M 132.832031 200.839844 C 131.523438 202.265625 129.882812 203.457031 127.910156 204.414062 L 128.300781 205.117188 C 130.292969 204.121094 131.894531 202.929688 133.125 201.582031 C 134.453125 203.007812 136.035156 204.160156 137.910156 205.058594 L 138.320312 204.335938 C 136.464844 203.476562 134.84375 202.324219 133.417969 200.839844 Z M 129.980469 204.394531 L 129.980469 205.175781 L 132.714844 205.175781 L 132.714844 207.128906 L 129.453125 207.128906 L 129.453125 207.910156 L 132.714844 207.910156 L 132.714844 209.980469 L 128.4375 209.980469 L 128.4375 210.78125 L 137.8125 210.78125 L 137.8125 209.980469 L 133.535156 209.980469 L 133.535156 207.910156 L 136.796875 207.910156 L 136.796875 207.128906 L 133.535156 207.128906 L 133.535156 205.175781 L 136.269531 205.175781 L 136.269531 204.394531 Z M 129.980469 204.394531 "/>
<path style=" stroke:none;fill-rule:nonzero;fill:rgb(0%,0%,0%);fill-opacity:1;" d="M 140.195312 200.996094 L 139.648438 201.523438 C 140.429688 202.167969 141.074219 202.753906 141.523438 203.300781 L 142.109375 202.734375 C 141.582031 202.148438 140.9375 201.582031 140.195312 200.996094 Z M 146.71875 210.917969 L 149.296875 210.917969 L 149.492188 210.117188 C 149.199219 210.136719 148.769531 210.136719 148.242188 210.15625 C 147.675781 210.175781 147.148438 210.175781 146.621094 210.175781 C 145.742188 210.175781 145.019531 210.175781 144.433594 210.15625 C 143.769531 210.136719 143.28125 210.039062 142.929688 209.882812 C 142.617188 209.746094 142.34375 209.511719 142.070312 209.179688 C 141.972656 209.082031 141.894531 208.984375 141.796875 208.925781 L 141.796875 204.707031 L 139.433594 204.707031 L 139.433594 205.449219 L 141.054688 205.449219 L 141.054688 208.867188 C 140.585938 209.082031 140.058594 209.648438 139.453125 210.605469 L 140.058594 211.152344 C 140.683594 210.117188 141.132812 209.589844 141.386719 209.589844 C 141.523438 209.589844 141.679688 209.6875 141.816406 209.882812 C 142.167969 210.273438 142.558594 210.566406 143.007812 210.703125 C 143.457031 210.820312 144.023438 210.898438 144.746094 210.898438 C 145.449219 210.917969 146.113281 210.917969 146.71875 210.917969 Z M 142.578125 201.972656 L 142.578125 202.714844 L 144.0625 202.714844 C 143.691406 203.515625 143.28125 204.199219 142.832031 204.726562 L 143.007812 205.46875 L 145.605469 205.46875 L 145.605469 206.816406 L 142.480469 206.816406 L 142.480469 207.578125 L 145.605469 207.578125 L 145.605469 209.667969 L 146.386719 209.667969 L 146.386719 207.578125 L 149.316406 207.578125 L 149.316406 206.816406 L 146.386719 206.816406 L 146.386719 205.46875 L 148.828125 205.46875 L 148.828125 204.726562 L 146.386719 204.726562 L 146.386719 203.398438 L 145.605469 203.398438 L 145.605469 204.726562 L 143.789062 204.726562 C 144.199219 204.140625 144.570312 203.476562 144.921875 202.714844 L 149.179688 202.714844 L 149.179688 201.972656 L 145.234375 201.972656 C 145.371094 201.621094 145.488281 201.289062 145.605469 200.917969 L 144.84375 200.722656 C 144.707031 201.152344 144.550781 201.582031 144.394531 201.972656 Z M 142.578125 201.972656 "/>
<path style=" stroke:none;fill-rule:nonzero;fill:rgb(0%,0%,0%);fill-opacity:1;" d="M 155.957031 202.714844 L 155.292969 203.027344 C 155.527344 203.4375 155.742188 203.886719 155.976562 204.375 L 154.257812 204.375 L 154.257812 205.15625 L 160.527344 205.15625 L 160.527344 204.375 L 158.710938 204.375 C 158.964844 203.925781 159.199219 203.417969 159.414062 202.851562 L 158.652344 202.578125 C 158.417969 203.222656 158.164062 203.808594 157.851562 204.375 L 156.757812 204.375 C 156.503906 203.769531 156.25 203.222656 155.957031 202.714844 Z M 157.441406 200.742188 L 156.601562 200.878906 C 156.71875 201.152344 156.855469 201.464844 156.992188 201.816406 L 154.511719 201.816406 L 154.511719 202.558594 L 160.332031 202.558594 L 160.332031 201.816406 L 157.8125 201.816406 C 157.675781 201.425781 157.558594 201.054688 157.441406 200.742188 Z M 151.816406 211.015625 C 152.480469 211.015625 152.832031 210.703125 152.832031 210.039062 L 152.832031 206.71875 C 153.144531 206.5625 153.457031 206.40625 153.769531 206.25 L 153.769531 205.429688 C 153.457031 205.585938 153.144531 205.742188 152.832031 205.898438 L 152.832031 203.75 L 153.75 203.75 L 153.75 202.96875 L 152.832031 202.96875 L 152.832031 200.839844 L 151.992188 200.839844 L 151.992188 202.96875 L 150.625 202.96875 L 150.625 203.75 L 151.992188 203.75 L 151.992188 206.25 C 151.464844 206.464844 150.9375 206.621094 150.410156 206.757812 L 150.625 207.578125 C 151.074219 207.421875 151.542969 207.246094 151.992188 207.070312 L 151.992188 209.84375 C 151.992188 210.136719 151.835938 210.273438 151.542969 210.273438 C 151.269531 210.273438 150.976562 210.253906 150.683594 210.234375 L 150.839844 211.015625 Z M 156.445312 205.46875 C 156.328125 205.78125 156.191406 206.09375 156.035156 206.425781 L 154.101562 206.425781 L 154.101562 207.226562 L 155.605469 207.226562 C 155.371094 207.65625 155.117188 208.085938 154.804688 208.554688 C 155.585938 208.867188 156.328125 209.160156 157.011719 209.492188 C 156.308594 209.882812 155.292969 210.195312 153.984375 210.429688 L 154.316406 211.171875 C 155.9375 210.859375 157.109375 210.410156 157.851562 209.882812 C 158.75 210.3125 159.53125 210.722656 160.195312 211.132812 L 160.644531 210.488281 C 159.941406 210.078125 159.199219 209.6875 158.417969 209.335938 C 158.945312 208.769531 159.296875 208.046875 159.472656 207.226562 L 160.703125 207.226562 L 160.703125 206.425781 L 156.855469 206.425781 C 156.992188 206.152344 157.109375 205.859375 157.226562 205.546875 Z M 158.710938 207.226562 C 158.535156 207.949219 158.183594 208.535156 157.675781 209.003906 C 157.070312 208.730469 156.445312 208.476562 155.800781 208.222656 C 156.015625 207.910156 156.230469 207.578125 156.425781 207.226562 Z M 158.710938 207.226562 "/>
<path style=" stroke:none;fill-rule:nonzero;fill:rgb(0%,0%,0%);fill-opacity:1;" d="M 164.902344 205.117188 L 164.902344 205.839844 L 170.996094 205.839844 L 170.996094 205.117188 Z M 164.101562 206.953125 L 164.101562 207.695312 L 166.5625 207.695312 C 165.78125 208.964844 165.117188 209.746094 164.628906 210.039062 C 164.570312 210.058594 164.53125 210.097656 164.453125 210.117188 L 164.628906 210.800781 C 166.757812 210.664062 168.710938 210.46875 170.488281 210.234375 C 170.722656 210.507812 170.917969 210.800781 171.113281 211.09375 L 171.757812 210.644531 C 171.269531 209.921875 170.546875 209.0625 169.628906 208.085938 L 169.023438 208.457031 C 169.355469 208.847656 169.6875 209.21875 170 209.589844 C 168.554688 209.804688 167.089844 209.960938 165.605469 210.058594 C 166.132812 209.589844 166.738281 208.789062 167.421875 207.695312 L 171.738281 207.695312 L 171.738281 206.953125 Z M 170.371094 202.011719 L 170.371094 203.320312 L 163.75 203.320312 L 163.75 202.011719 Z M 163.75 204.042969 L 171.152344 204.042969 L 171.152344 201.25 L 162.96875 201.25 L 162.96875 204.980469 C 162.949219 207.246094 162.558594 209.082031 161.777344 210.507812 L 162.363281 211.054688 C 163.28125 209.355469 163.75 207.324219 163.75 204.980469 Z M 163.75 204.042969 "/>
<path style="fill:none;stroke-width:1;stroke-linecap:round;stroke-linejoin:round;stroke:rgb(0%,0%,0%);stroke-opacity:1;stroke-miterlimit:10;" d="M 404 412.275 L 426.1 412.275 " transform="matrix(1.25,0,0,1.25,-140,-325)"/>
<path style="fill:none;stroke-width:1;stroke-linecap:butt;stroke-linejoin:miter;stroke:rgb(0%,0%,0%);stroke-opacity:1;stroke-miterlimit:10;" d="M 430.1 412.275 L 426.1 412.275 M 426.1 410.775 L 430.1 412.275 L 426.1 413.775 " transform="matrix(1.25,0,0,1.25,-140,-325)"/>
<path style="fill:none;stroke-width:1;stroke-linecap:round;stroke-linejoin:round;stroke:rgb(0%,0%,0%);stroke-opacity:1;stroke-miterlimit:10;" d="M 413 424.275 L 413 418.275 C 413 414.9625 415.6875 412.275 419 412.275 L 429.7875 412.275 " transform="matrix(1.25,0,0,1.25,-140,-325)"/>
<path style=" stroke:none;fill-rule:nonzero;fill:rgb(0%,0%,0%);fill-opacity:1;" d="M 422.695312 194.746094 L 422.148438 195.273438 C 422.929688 195.917969 423.574219 196.503906 424.023438 197.050781 L 424.609375 196.484375 C 424.082031 195.898438 423.4375 195.332031 422.695312 194.746094 Z M 429.21875 204.667969 L 431.796875 204.667969 L 431.992188 203.867188 C 431.699219 203.886719 431.269531 203.886719 430.742188 203.90625 C 430.175781 203.925781 429.648438 203.925781 429.121094 203.925781 C 428.242188 203.925781 427.519531 203.925781 426.933594 203.90625 C 426.269531 203.886719 425.78125 203.789062 425.429688 203.632812 C 425.117188 203.496094 424.84375 203.261719 424.570312 202.929688 C 424.472656 202.832031 424.394531 202.734375 424.296875 202.675781 L 424.296875 198.457031 L 421.933594 198.457031 L 421.933594 199.199219 L 423.554688 199.199219 L 423.554688 202.617188 C 423.085938 202.832031 422.558594 203.398438 421.953125 204.355469 L 422.558594 204.902344 C 423.183594 203.867188 423.632812 203.339844 423.886719 203.339844 C 424.023438 203.339844 424.179688 203.4375 424.316406 203.632812 C 424.667969 204.023438 425.058594 204.316406 425.507812 204.453125 C 425.957031 204.570312 426.523438 204.648438 427.246094 204.648438 C 427.949219 204.667969 428.613281 204.667969 429.21875 204.667969 Z M 425.078125 195.722656 L 425.078125 196.464844 L 426.5625 196.464844 C 426.191406 197.265625 425.78125 197.949219 425.332031 198.476562 L 425.507812 199.21875 L 428.105469 199.21875 L 428.105469 200.566406 L 424.980469 200.566406 L 424.980469 201.328125 L 428.105469 201.328125 L 428.105469 203.417969 L 428.886719 203.417969 L 428.886719 201.328125 L 431.816406 201.328125 L 431.816406 200.566406 L 428.886719 200.566406 L 428.886719 199.21875 L 431.328125 199.21875 L 431.328125 198.476562 L 428.886719 198.476562 L 428.886719 197.148438 L 428.105469 197.148438 L 428.105469 198.476562 L 426.289062 198.476562 C 426.699219 197.890625 427.070312 197.226562 427.421875 196.464844 L 431.679688 196.464844 L 431.679688 195.722656 L 427.734375 195.722656 C 427.871094 195.371094 427.988281 195.039062 428.105469 194.667969 L 427.34375 194.472656 C 427.207031 194.902344 427.050781 195.332031 426.894531 195.722656 Z M 425.078125 195.722656 "/>
<path style=" stroke:none;fill-rule:nonzero;fill:rgb(0%,0%,0%);fill-opacity:1;" d="M 437.128906 202.617188 C 435.996094 203.046875 434.667969 203.378906 433.125 203.632812 L 433.222656 204.414062 C 434.6875 204.140625 435.996094 203.808594 437.128906 203.398438 Z M 435.058594 194.53125 C 434.609375 195.859375 434.0625 197.050781 433.4375 198.085938 C 433.339844 198.222656 433.222656 198.320312 433.105469 198.378906 L 433.300781 199.121094 C 433.945312 199.042969 434.589844 198.945312 435.234375 198.847656 C 434.609375 199.902344 434.082031 200.644531 433.652344 201.074219 C 433.554688 201.171875 433.417969 201.25 433.28125 201.328125 L 433.496094 202.050781 C 434.609375 201.914062 435.78125 201.621094 436.992188 201.210938 L 436.992188 200.488281 C 436.171875 200.761719 435.332031 200.996094 434.472656 201.171875 C 435.15625 200.351562 436.015625 199.003906 437.03125 197.109375 L 436.328125 196.835938 C 436.09375 197.265625 435.878906 197.695312 435.664062 198.085938 C 435.117188 198.183594 434.589844 198.261719 434.0625 198.320312 C 434.648438 197.441406 435.234375 196.289062 435.800781 194.824219 Z M 436.992188 195.957031 L 436.992188 196.738281 L 439.6875 196.738281 L 439.6875 198.398438 L 437.363281 198.398438 L 437.363281 199.199219 L 442.851562 199.199219 L 442.851562 198.398438 L 440.507812 198.398438 L 440.507812 196.738281 L 443.183594 196.738281 L 443.183594 195.957031 L 440.507812 195.957031 L 440.507812 194.589844 L 439.6875 194.589844 L 439.6875 195.957031 Z M 442.539062 200.3125 L 437.734375 200.3125 L 437.734375 204.84375 L 438.535156 204.84375 L 438.535156 204.296875 L 441.738281 204.296875 L 441.738281 204.84375 L 442.539062 204.84375 Z M 438.535156 203.535156 L 438.535156 201.074219 L 441.738281 201.074219 L 441.738281 203.535156 Z M 438.535156 203.535156 "/>
<path style="fill:none;stroke-width:1;stroke-linecap:round;stroke-linejoin:round;stroke:rgb(0%,0%,0%);stroke-opacity:1;stroke-miterlimit:10;" d="M 308 424 L 330.1 424 " transform="matrix(1.25,0,0,1.25,-140,-325)"/>
<path style="fill:none;stroke-width:1;stroke-linecap:butt;stroke-linejoin:miter;stroke:rgb(0%,0%,0%);stroke-opacity:1;stroke-miterlimit:10;" d="M 334.1 424 L 330.1 424 M 330.1 422.5 L 334.1 424 L 330.1 425.5 " transform="matrix(1.25,0,0,1.25,-140,-325)"/>
<path style="fill:none;stroke-width:1;stroke-linecap:round;stroke-linejoin:round;stroke:rgb(0%,0%,0%);stroke-opacity:1;stroke-miterlimit:10;" d="M 308 424 L 314 424 C 317.3125 424 320 421.3125 320 418 L 320 413.9 " transform="matrix(1.25,0,0,1.25,-140,-325)"/>
<path style="fill:none;stroke-width:1;stroke-linecap:butt;stroke-linejoin:miter;stroke:rgb(0%,0%,0%);stroke-opacity:1;stroke-miterlimit:10;" d="M 320 409.9 L 320 413.9 M 318.5 413.9 L 320 409.9 L 321.5 413.9 " transform="matrix(1.25,0,0,1.25,-140,-325)"/>
<path style=" stroke:none;fill-rule:nonzero;fill:rgb(0%,0%,0%);fill-opacity:1;" d="M 294.375 196.09375 L 301.328125 196.09375 L 301.328125 195.390625 L 294.746094 195.390625 C 294.863281 195.136719 294.960938 194.863281 295.058594 194.589844 L 294.257812 194.453125 C 293.828125 195.722656 293.046875 196.777344 291.894531 197.65625 L 292.382812 198.28125 C 292.871094 197.910156 293.300781 197.5 293.671875 197.070312 L 293.671875 200.429688 L 295.117188 200.429688 C 294.511719 201.25 293.574219 201.914062 292.265625 202.421875 L 292.695312 203.105469 C 293.28125 202.832031 293.808594 202.539062 294.257812 202.226562 C 294.863281 202.753906 295.566406 203.203125 296.328125 203.574219 C 295.15625 203.90625 293.769531 204.101562 292.148438 204.179688 L 292.460938 204.882812 C 294.355469 204.765625 295.957031 204.472656 297.285156 203.984375 C 298.554688 204.472656 300.039062 204.765625 301.679688 204.84375 L 301.875 204.101562 C 300.546875 204.0625 299.335938 203.867188 298.242188 203.554688 C 299.179688 203.085938 299.921875 202.5 300.46875 201.777344 L 300.46875 201.191406 L 295.429688 201.191406 C 295.644531 200.957031 295.820312 200.703125 295.996094 200.429688 L 300.449219 200.429688 L 300.449219 196.875 L 293.828125 196.875 C 294.023438 196.621094 294.199219 196.367188 294.375 196.09375 Z M 297.285156 203.242188 C 296.386719 202.890625 295.566406 202.421875 294.84375 201.855469 L 299.472656 201.855469 C 298.925781 202.402344 298.183594 202.871094 297.285156 203.242188 Z M 299.667969 199.785156 L 294.472656 199.785156 L 294.472656 198.945312 L 299.667969 198.945312 Z M 294.472656 198.339844 L 294.472656 197.519531 L 299.667969 197.519531 L 299.667969 198.339844 Z M 294.472656 198.339844 "/>
<path style=" stroke:none;fill-rule:nonzero;fill:rgb(0%,0%,0%);fill-opacity:1;" d="M 304.257812 196.738281 L 305.820312 196.738281 L 305.820312 198.183594 L 303.105469 198.183594 L 303.105469 198.945312 L 305.820312 198.945312 L 305.820312 200.136719 L 303.613281 200.136719 L 303.613281 204.179688 L 304.394531 204.179688 L 304.394531 200.878906 L 305.820312 200.878906 L 305.820312 204.882812 L 306.640625 204.882812 L 306.640625 200.878906 L 308.066406 200.878906 L 308.066406 202.929688 C 308.066406 203.222656 307.890625 203.359375 307.578125 203.359375 L 307.03125 203.339844 L 307.226562 204.101562 L 307.8125 204.101562 C 308.496094 204.101562 308.828125 203.769531 308.828125 203.105469 L 308.828125 200.136719 L 306.640625 200.136719 L 306.640625 198.945312 L 309.0625 198.945312 L 309.0625 198.183594 L 306.640625 198.183594 L 306.640625 196.738281 L 308.75 196.738281 L 308.75 195.996094 L 306.640625 195.996094 L 306.640625 194.589844 L 305.820312 194.589844 L 305.820312 195.996094 L 304.53125 195.996094 C 304.609375 195.683594 304.6875 195.351562 304.746094 195 L 303.964844 194.882812 C 303.808594 195.9375 303.457031 196.777344 302.890625 197.382812 L 303.554688 197.851562 C 303.808594 197.558594 304.042969 197.1875 304.257812 196.738281 Z M 309.726562 195.605469 L 309.726562 202.558594 L 310.527344 202.558594 L 310.527344 195.605469 Z M 311.796875 204.765625 C 312.480469 204.765625 312.832031 204.414062 312.832031 203.710938 L 312.832031 194.589844 L 312.03125 194.589844 L 312.03125 203.515625 C 312.03125 203.867188 311.855469 204.0625 311.503906 204.0625 C 311.015625 204.0625 310.507812 204.023438 309.960938 204.003906 L 310.136719 204.765625 Z M 311.796875 204.765625 "/>
<path style="fill:none;stroke-width:1;stroke-linecap:round;stroke-linejoin:round;stroke:rgb(0%,0%,0%);stroke-opacity:1;stroke-miterlimit:10;" d="M 191.95 300 L 259.95 300 C 263.2625 300 265.95 302.6875 265.95 306 L 265.95 350 C 265.95 353.3125 263.2625 356 259.95 356 L 191.95 356 C 188.6375 356 185.95 353.3125 185.95 350 L 185.95 306 C 185.95 302.6875 188.6375 300 191.95 300 Z M 191.95 300 " transform="matrix(1.25,0,0,1.25,-140,-325)"/>
<path style=" stroke:none;fill-rule:nonzero;fill:rgb(40%,74.901961%,100%);fill-opacity:1;" d="M 130.1875 95 L 165.1875 95 L 165.1875 75 L 130.1875 75 Z M 130.1875 95 "/>
<path style="fill:none;stroke-width:1;stroke-linecap:round;stroke-linejoin:round;stroke:rgb(0%,0%,0%);stroke-opacity:1;stroke-miterlimit:10;" d="M 216.15 320 L 244.15 320 L 244.15 336 L 216.15 336 Z M 216.15 320 " transform="matrix(1.25,0,0,1.25,-140,-325)"/>
<path style=" stroke:none;fill-rule:nonzero;fill:rgb(0%,0%,0%);fill-opacity:1;" d="M 150.632812 85.03125 C 150.632812 85.683594 150.507812 86.289062 150.261719 86.847656 C 149.988281 87.460938 149.589844 87.921875 149.070312 88.234375 C 148.652344 88.496094 148.203125 88.644531 147.722656 88.683594 L 147.292969 90.792969 L 146.296875 90.792969 L 146.765625 88.605469 C 146.59375 88.554688 146.425781 88.488281 146.257812 88.410156 C 145.488281 88.007812 145.105469 87.324219 145.105469 86.359375 C 145.105469 85.214844 145.441406 84.269531 146.121094 83.527344 C 146.613281 82.980469 147.238281 82.675781 147.996094 82.609375 L 148.445312 80.519531 L 149.441406 80.519531 L 148.992188 82.6875 C 149.382812 82.78125 149.714844 82.96875 149.988281 83.253906 C 150.417969 83.699219 150.632812 84.289062 150.632812 85.03125 Z M 149.65625 85.03125 C 149.65625 84.5 149.519531 84.089844 149.246094 83.800781 C 149.128906 83.671875 148.984375 83.566406 148.816406 83.488281 L 147.898438 87.882812 C 148.195312 87.804688 148.46875 87.648438 148.71875 87.414062 C 149.054688 87.078125 149.308594 86.632812 149.480469 86.085938 C 149.597656 85.710938 149.65625 85.359375 149.65625 85.03125 Z M 147.839844 83.410156 C 147.410156 83.515625 147.03125 83.796875 146.707031 84.25 C 146.300781 84.796875 146.101562 85.46875 146.101562 86.261719 C 146.101562 86.796875 146.230469 87.207031 146.492188 87.492188 C 146.621094 87.636719 146.765625 87.742188 146.921875 87.804688 Z M 147.839844 83.410156 "/>
<path style="fill:none;stroke-width:1;stroke-linecap:round;stroke-linejoin:round;stroke:rgb(0%,0%,0%);stroke-opacity:1;stroke-miterlimit:10;" d="M 172 327.671875 L 210.25 327.8875 " transform="matrix(1.25,0,0,1.25,-140,-325)"/>
<path style="fill:none;stroke-width:1;stroke-linecap:butt;stroke-linejoin:miter;stroke:rgb(0%,0%,0%);stroke-opacity:1;stroke-miterlimit:10;" d="M 214.25 327.909375 L 210.25 327.8875 M 210.25625 326.3875 L 214.25 327.909375 L 210.24375 329.3875 " transform="matrix(1.25,0,0,1.25,-140,-325)"/>
<path style="fill:none;stroke-width:1;stroke-linecap:round;stroke-linejoin:round;stroke:rgb(0%,0%,0%);stroke-opacity:1;stroke-miterlimit:10;" d="M 197.95 369.0875 L 197.95 333.8625 C 197.95 330.6 200.55 327.940625 203.809375 327.8625 L 204.26875 327.85 " transform="matrix(1.25,0,0,1.25,-140,-325)"/>
<path style="fill:none;stroke-width:1;stroke-linecap:round;stroke-linejoin:round;stroke:rgb(0%,0%,0%);stroke-opacity:1;stroke-miterlimit:10;" d="M 244.15 328 L 320.3 328 " transform="matrix(1.25,0,0,1.25,-140,-325)"/>
<path style="fill:none;stroke-width:1;stroke-linecap:butt;stroke-linejoin:miter;stroke:rgb(0%,0%,0%);stroke-opacity:1;stroke-miterlimit:10;" d="M 324.3 328 L 320.3 328 M 320.3 326.5 L 324.3 328 L 320.3 329.5 " transform="matrix(1.25,0,0,1.25,-140,-325)"/>
<path style="fill:none;stroke-width:1;stroke-linecap:round;stroke-linejoin:round;stroke:rgb(0%,0%,0%);stroke-opacity:1;stroke-miterlimit:10;" d="M 247.01875 328 L 247.95 328 C 251.2625 328 253.95 325.3125 253.95 322 L 253.95 285.9 " transform="matrix(1.25,0,0,1.25,-140,-325)"/>
<path style="fill:none;stroke-width:1;stroke-linecap:butt;stroke-linejoin:miter;stroke:rgb(0%,0%,0%);stroke-opacity:1;stroke-miterlimit:10;" d="M 253.95 281.9 L 253.95 285.9 M 252.45 285.9 L 253.95 281.9 L 255.45 285.9 " transform="matrix(1.25,0,0,1.25,-140,-325)"/>
<path style="fill:none;stroke-width:1;stroke-linecap:round;stroke-linejoin:round;stroke:rgb(0%,0%,0%);stroke-opacity:1;stroke-miterlimit:10;" d="M 407.5375 300 L 475.5375 300 C 478.85 300 481.5375 302.6875 481.5375 306 L 481.5375 350 C 481.5375 353.3125 478.85 356 475.5375 356 L 407.5375 356 C 404.225 356 401.5375 353.3125 401.5375 350 L 401.5375 306 C 401.5375 302.6875 404.225 300 407.5375 300 Z M 407.5375 300 " transform="matrix(1.25,0,0,1.25,-140,-325)"/>
<path style=" stroke:none;fill-rule:nonzero;fill:rgb(40%,74.901961%,100%);fill-opacity:1;" d="M 399.671875 95 L 434.671875 95 L 434.671875 75 L 399.671875 75 Z M 399.671875 95 "/>
<path style="fill:none;stroke-width:1;stroke-linecap:round;stroke-linejoin:round;stroke:rgb(0%,0%,0%);stroke-opacity:1;stroke-miterlimit:10;" d="M 431.7375 320 L 459.7375 320 L 459.7375 336 L 431.7375 336 Z M 431.7375 320 " transform="matrix(1.25,0,0,1.25,-140,-325)"/>
<path style=" stroke:none;fill-rule:nonzero;fill:rgb(0%,0%,0%);fill-opacity:1;" d="M 420.121094 85.03125 C 420.121094 85.683594 419.992188 86.289062 419.75 86.847656 C 419.476562 87.460938 419.074219 87.921875 418.558594 88.234375 C 418.136719 88.496094 417.6875 88.644531 417.210938 88.683594 L 416.78125 90.792969 L 415.785156 90.792969 L 416.253906 88.605469 C 416.082031 88.554688 415.910156 88.488281 415.746094 88.410156 C 414.972656 88.007812 414.59375 87.324219 414.59375 86.359375 C 414.59375 85.214844 414.929688 84.269531 415.609375 83.527344 C 416.101562 82.980469 416.726562 82.675781 417.484375 82.609375 L 417.933594 80.519531 L 418.929688 80.519531 L 418.480469 82.6875 C 418.871094 82.78125 419.203125 82.96875 419.476562 83.253906 C 419.90625 83.699219 420.121094 84.289062 420.121094 85.03125 Z M 419.144531 85.03125 C 419.144531 84.5 419.007812 84.089844 418.734375 83.800781 C 418.617188 83.671875 418.46875 83.566406 418.304688 83.488281 L 417.386719 87.882812 C 417.683594 87.804688 417.957031 87.648438 418.207031 87.414062 C 418.542969 87.078125 418.796875 86.632812 418.96875 86.085938 C 419.085938 85.710938 419.144531 85.359375 419.144531 85.03125 Z M 417.328125 83.410156 C 416.898438 83.515625 416.515625 83.796875 416.195312 84.25 C 415.789062 84.796875 415.589844 85.46875 415.589844 86.261719 C 415.589844 86.796875 415.714844 87.207031 415.980469 87.492188 C 416.105469 87.636719 416.253906 87.742188 416.410156 87.804688 Z M 417.328125 83.410156 "/>
<path style="fill:none;stroke-width:1;stroke-linecap:round;stroke-linejoin:round;stroke:rgb(0%,0%,0%);stroke-opacity:1;stroke-miterlimit:10;" d="M 377.5375 328 L 425.840625 328 " transform="matrix(1.25,0,0,1.25,-140,-325)"/>
<path style="fill:none;stroke-width:1;stroke-linecap:butt;stroke-linejoin:miter;stroke:rgb(0%,0%,0%);stroke-opacity:1;stroke-miterlimit:10;" d="M 429.840625 328 L 425.840625 328 M 425.840625 326.5 L 429.840625 328 L 425.840625 329.5 " transform="matrix(1.25,0,0,1.25,-140,-325)"/>
<path style="fill:none;stroke-width:1;stroke-linecap:round;stroke-linejoin:round;stroke:rgb(0%,0%,0%);stroke-opacity:1;stroke-miterlimit:10;" d="M 413.13125 366.5 L 413.5 331.61875 C 413.51875 329.6125 415.153125 328 417.15625 328 " transform="matrix(1.25,0,0,1.25,-140,-325)"/>
<path style="fill:none;stroke-width:1;stroke-linecap:round;stroke-linejoin:round;stroke:rgb(0%,0%,0%);stroke-opacity:1;stroke-miterlimit:10;" d="M 459.7375 328 L 510.1 328 " transform="matrix(1.25,0,0,1.25,-140,-325)"/>
<path style="fill:none;stroke-width:1;stroke-linecap:butt;stroke-linejoin:miter;stroke:rgb(0%,0%,0%);stroke-opacity:1;stroke-miterlimit:10;" d="M 514.1 328 L 510.1 328 M 510.1 326.5 L 514.1 328 L 510.1 329.5 " transform="matrix(1.25,0,0,1.25,-140,-325)"/>
<path style="fill:none;stroke-width:1;stroke-linecap:round;stroke-linejoin:round;stroke:rgb(0%,0%,0%);stroke-opacity:1;stroke-miterlimit:10;" d="M 461.70625 328 L 463.5375 328 C 466.85 328 469.5375 325.3125 469.5375 322 L 469.5375 285.9 " transform="matrix(1.25,0,0,1.25,-140,-325)"/>
<path style="fill:none;stroke-width:1;stroke-linecap:butt;stroke-linejoin:miter;stroke:rgb(0%,0%,0%);stroke-opacity:1;stroke-miterlimit:10;" d="M 469.5375 281.9 L 469.5375 285.9 M 468.0375 285.9 L 469.5375 281.9 L 471.0375 285.9 " transform="matrix(1.25,0,0,1.25,-140,-325)"/>
<path style=" stroke:none;fill-rule:nonzero;fill:rgb(0%,0%,0%);fill-opacity:1;" d="M 211.003906 75.625 L 211.003906 75.351562 C 210.203125 75.234375 210.007812 75.117188 210.007812 74.53125 L 210.007812 69.140625 C 210.007812 68.535156 210.242188 68.359375 211.003906 68.300781 L 211.003906 68.027344 L 207.195312 68.027344 L 207.195312 68.300781 C 207.976562 68.359375 208.191406 68.496094 208.191406 69.140625 L 208.191406 71.425781 L 205.476562 71.425781 L 205.476562 69.140625 C 205.476562 68.496094 205.691406 68.359375 206.492188 68.300781 L 206.492188 68.027344 L 202.703125 68.027344 L 202.703125 68.300781 C 203.464844 68.359375 203.660156 68.515625 203.660156 69.140625 L 203.660156 74.53125 C 203.660156 75.117188 203.484375 75.234375 202.703125 75.351562 L 202.703125 75.625 L 206.492188 75.625 L 206.492188 75.351562 C 205.671875 75.253906 205.476562 75.117188 205.476562 74.53125 L 205.476562 71.953125 L 208.191406 71.953125 L 208.191406 74.53125 C 208.191406 75.097656 208.015625 75.253906 207.195312 75.351562 L 207.195312 75.625 Z M 211.003906 75.625 "/>
<path style=" stroke:none;fill-rule:nonzero;fill:rgb(0%,0%,0%);fill-opacity:1;" d="M 213.449219 76.171875 L 212.84375 76.171875 L 213.058594 75.390625 C 213.058594 75.371094 213.058594 75.332031 213.058594 75.332031 C 213.058594 75.292969 213.039062 75.273438 213 75.273438 C 212.960938 75.273438 212.921875 75.292969 212.882812 75.351562 C 212.609375 75.761719 212.121094 76.113281 211.886719 76.171875 C 211.710938 76.210938 211.652344 76.269531 211.652344 76.367188 C 211.652344 76.367188 211.652344 76.386719 211.652344 76.40625 L 212.21875 76.40625 L 211.632812 78.632812 C 211.574219 78.867188 211.515625 79.101562 211.515625 79.179688 C 211.515625 79.375 211.652344 79.453125 211.847656 79.453125 C 212.238281 79.453125 212.472656 79.238281 212.921875 78.554688 L 212.824219 78.496094 C 212.453125 78.964844 212.335938 79.082031 212.21875 79.082031 C 212.160156 79.082031 212.101562 79.0625 212.101562 78.964844 C 212.101562 78.945312 212.121094 78.886719 212.121094 78.867188 L 212.765625 76.40625 L 213.410156 76.40625 Z M 213.449219 76.171875 "/>
<path style=" stroke:none;fill-rule:nonzero;fill:rgb(0%,0%,0%);fill-opacity:1;" d="M 217.957031 77.734375 L 217.957031 77.226562 L 213.796875 77.226562 L 213.796875 77.734375 Z M 217.957031 77.734375 "/>
<path style=" stroke:none;fill-rule:nonzero;fill:rgb(0%,0%,0%);fill-opacity:1;" d="M 221.394531 79.375 L 221.394531 79.257812 C 220.828125 79.257812 220.691406 79.121094 220.691406 78.808594 L 220.691406 74.335938 L 220.613281 74.296875 L 219.285156 74.980469 L 219.285156 75.097656 L 219.480469 75.019531 C 219.617188 74.960938 219.734375 74.921875 219.8125 74.921875 C 219.96875 74.921875 220.046875 75.039062 220.046875 75.292969 L 220.046875 78.671875 C 220.046875 79.082031 219.890625 79.238281 219.324219 79.257812 L 219.324219 79.375 Z M 221.394531 79.375 "/>
<path style=" stroke:none;fill-rule:nonzero;fill:rgb(0%,0%,0%);fill-opacity:1;" d="M 28.828125 147.695312 L 28.828125 149.355469 L 27.714844 149.355469 C 27.988281 148.632812 28.261719 147.8125 28.496094 146.894531 L 30.664062 146.894531 L 30.664062 146.132812 L 28.691406 146.132812 C 28.789062 145.683594 28.886719 145.195312 29.003906 144.6875 L 28.261719 144.53125 C 28.144531 145.078125 28.046875 145.625 27.929688 146.132812 L 26.816406 146.132812 L 26.816406 146.894531 L 27.753906 146.894531 C 27.5 147.890625 27.226562 148.75 26.894531 149.414062 L 27.070312 150.097656 L 28.828125 150.097656 L 28.828125 151.777344 C 28.164062 151.894531 27.480469 152.011719 26.738281 152.089844 L 26.835938 152.890625 C 27.519531 152.773438 28.183594 152.675781 28.828125 152.539062 L 28.828125 154.882812 L 29.570312 154.882812 L 29.570312 152.382812 L 30.644531 152.109375 L 30.644531 151.347656 C 30.3125 151.425781 29.960938 151.523438 29.570312 151.621094 L 29.570312 150.097656 L 30.605469 150.097656 L 30.605469 149.355469 L 29.570312 149.355469 L 29.570312 147.695312 Z M 32.148438 147.109375 L 32.148438 147.773438 L 35.371094 147.773438 L 35.371094 147.109375 L 32.148438 147.109375 C 32.714844 146.5625 33.261719 145.957031 33.789062 145.3125 C 34.648438 146.40625 35.605469 147.34375 36.660156 148.105469 L 37.089844 147.480469 C 36.074219 146.757812 35.078125 145.800781 34.082031 144.589844 L 33.515625 144.589844 C 32.597656 145.703125 31.5625 146.699219 30.410156 147.539062 L 30.859375 148.222656 C 31.289062 147.871094 31.71875 147.5 32.148438 147.109375 Z M 32.929688 154.804688 C 33.476562 154.804688 33.769531 154.511719 33.769531 153.925781 L 33.769531 148.671875 L 31.113281 148.671875 L 31.113281 154.882812 L 31.816406 154.882812 L 31.816406 152.773438 L 33.085938 152.773438 L 33.085938 153.789062 C 33.085938 154.023438 32.949219 154.160156 32.714844 154.160156 L 32.207031 154.140625 L 32.382812 154.804688 Z M 31.816406 152.148438 L 31.816406 151.074219 L 33.085938 151.074219 L 33.085938 152.148438 Z M 31.816406 150.449219 L 31.816406 149.335938 L 33.085938 149.335938 L 33.085938 150.449219 Z M 34.433594 148.984375 L 34.433594 153.027344 L 35.078125 153.027344 L 35.078125 148.984375 Z M 35.664062 154.824219 C 36.210938 154.824219 36.484375 154.492188 36.484375 153.847656 L 36.484375 148.476562 L 35.78125 148.476562 L 35.78125 153.671875 C 35.78125 153.984375 35.664062 154.160156 35.410156 154.160156 C 35.136719 154.160156 34.84375 154.140625 34.550781 154.101562 L 34.707031 154.824219 Z M 35.664062 154.824219 "/>
<path style=" stroke:none;fill-rule:nonzero;fill:rgb(0%,0%,0%);fill-opacity:1;" d="M 42.636719 147.167969 C 41.914062 150.15625 40.351562 152.460938 37.929688 154.023438 L 38.417969 154.726562 C 40.78125 153.183594 42.34375 150.976562 43.085938 148.105469 C 43.144531 148.242188 43.183594 148.398438 43.261719 148.59375 C 44.414062 151.5625 45.898438 153.613281 47.734375 154.707031 L 48.242188 154.0625 C 46.445312 152.949219 45.039062 151.035156 43.984375 148.359375 C 43.300781 146.523438 42.441406 145.253906 41.445312 144.550781 L 40.78125 144.980469 C 41.484375 145.507812 42.109375 146.230469 42.636719 147.167969 Z M 42.636719 147.167969 "/>
<path style=" stroke:none;fill-rule:nonzero;fill:rgb(0%,0%,0%);fill-opacity:1;" d="M 108.949219 150.625 L 108.949219 150.351562 C 108.558594 150.332031 108.382812 150.195312 107.855469 149.375 L 105.804688 146.191406 L 106.703125 144.941406 C 107.679688 143.574219 107.972656 143.378906 108.8125 143.300781 L 108.8125 143.027344 L 106 143.027344 L 106 143.300781 L 106.234375 143.320312 C 106.664062 143.359375 106.820312 143.457031 106.820312 143.710938 C 106.820312 143.964844 106.683594 144.179688 106.15625 144.902344 L 105.53125 145.78125 L 104.4375 144.082031 C 104.300781 143.867188 104.28125 143.808594 104.28125 143.671875 C 104.28125 143.4375 104.398438 143.339844 104.808594 143.320312 L 105.160156 143.300781 L 105.160156 143.027344 L 101.273438 143.027344 L 101.273438 143.300781 C 101.683594 143.339844 101.820312 143.457031 102.171875 143.945312 L 104.398438 147.226562 L 102.425781 149.707031 C 102.09375 150.136719 101.820312 150.273438 101.253906 150.351562 L 101.253906 150.625 L 104.066406 150.625 L 104.066406 150.351562 C 103.382812 150.273438 103.167969 150.15625 103.167969 149.863281 C 103.167969 149.628906 103.382812 149.277344 104.222656 148.144531 L 104.652344 147.578125 L 105.785156 149.394531 C 105.921875 149.609375 106.019531 149.863281 106.019531 150 C 106.019531 150.195312 105.824219 150.292969 105.433594 150.3125 L 105.121094 150.351562 L 105.121094 150.625 Z M 108.949219 150.625 "/>
<path style=" stroke:none;fill-rule:nonzero;fill:rgb(0%,0%,0%);fill-opacity:1;" d="M 111.425781 151.171875 L 110.820312 151.171875 L 111.035156 150.390625 C 111.035156 150.371094 111.035156 150.332031 111.035156 150.332031 C 111.035156 150.292969 111.015625 150.273438 110.976562 150.273438 C 110.9375 150.273438 110.898438 150.292969 110.859375 150.351562 C 110.585938 150.761719 110.097656 151.113281 109.863281 151.171875 C 109.6875 151.210938 109.628906 151.269531 109.628906 151.367188 C 109.628906 151.367188 109.628906 151.386719 109.628906 151.40625 L 110.195312 151.40625 L 109.609375 153.632812 C 109.550781 153.867188 109.492188 154.101562 109.492188 154.179688 C 109.492188 154.375 109.628906 154.453125 109.824219 154.453125 C 110.214844 154.453125 110.449219 154.238281 110.898438 153.554688 L 110.800781 153.496094 C 110.429688 153.964844 110.3125 154.082031 110.195312 154.082031 C 110.136719 154.082031 110.078125 154.0625 110.078125 153.964844 C 110.078125 153.945312 110.097656 153.886719 110.097656 153.867188 L 110.742188 151.40625 L 111.386719 151.40625 Z M 111.425781 151.171875 "/>
<path style=" stroke:none;fill-rule:nonzero;fill:rgb(0%,0%,0%);fill-opacity:1;" d="M 115.933594 152.734375 L 115.933594 152.226562 L 111.773438 152.226562 L 111.773438 152.734375 Z M 115.933594 152.734375 "/>
<path style=" stroke:none;fill-rule:nonzero;fill:rgb(0%,0%,0%);fill-opacity:1;" d="M 119.371094 154.375 L 119.371094 154.257812 C 118.804688 154.257812 118.667969 154.121094 118.667969 153.808594 L 118.667969 149.335938 L 118.589844 149.296875 L 117.261719 149.980469 L 117.261719 150.097656 L 117.457031 150.019531 C 117.59375 149.960938 117.710938 149.921875 117.789062 149.921875 C 117.945312 149.921875 118.023438 150.039062 118.023438 150.292969 L 118.023438 153.671875 C 118.023438 154.082031 117.867188 154.238281 117.300781 154.257812 L 117.300781 154.375 Z M 119.371094 154.375 "/>
<path style=" stroke:none;fill-rule:nonzero;fill:rgb(0%,0%,0%);fill-opacity:1;" d="M 374.574219 150.625 L 374.574219 150.351562 C 374.183594 150.332031 374.007812 150.195312 373.480469 149.375 L 371.429688 146.191406 L 372.328125 144.941406 C 373.304688 143.574219 373.597656 143.378906 374.4375 143.300781 L 374.4375 143.027344 L 371.625 143.027344 L 371.625 143.300781 L 371.859375 143.320312 C 372.289062 143.359375 372.445312 143.457031 372.445312 143.710938 C 372.445312 143.964844 372.308594 144.179688 371.78125 144.902344 L 371.15625 145.78125 L 370.0625 144.082031 C 369.925781 143.867188 369.90625 143.808594 369.90625 143.671875 C 369.90625 143.4375 370.023438 143.339844 370.433594 143.320312 L 370.785156 143.300781 L 370.785156 143.027344 L 366.898438 143.027344 L 366.898438 143.300781 C 367.308594 143.339844 367.445312 143.457031 367.796875 143.945312 L 370.023438 147.226562 L 368.050781 149.707031 C 367.71875 150.136719 367.445312 150.273438 366.878906 150.351562 L 366.878906 150.625 L 369.691406 150.625 L 369.691406 150.351562 C 369.007812 150.273438 368.792969 150.15625 368.792969 149.863281 C 368.792969 149.628906 369.007812 149.277344 369.847656 148.144531 L 370.277344 147.578125 L 371.410156 149.394531 C 371.546875 149.609375 371.644531 149.863281 371.644531 150 C 371.644531 150.195312 371.449219 150.292969 371.058594 150.3125 L 370.746094 150.351562 L 370.746094 150.625 Z M 374.574219 150.625 "/>
<path style=" stroke:none;fill-rule:nonzero;fill:rgb(0%,0%,0%);fill-opacity:1;" d="M 377.050781 151.171875 L 376.445312 151.171875 L 376.660156 150.390625 C 376.660156 150.371094 376.660156 150.332031 376.660156 150.332031 C 376.660156 150.292969 376.640625 150.273438 376.601562 150.273438 C 376.5625 150.273438 376.523438 150.292969 376.484375 150.351562 C 376.210938 150.761719 375.722656 151.113281 375.488281 151.171875 C 375.3125 151.210938 375.253906 151.269531 375.253906 151.367188 C 375.253906 151.367188 375.253906 151.386719 375.253906 151.40625 L 375.820312 151.40625 L 375.234375 153.632812 C 375.175781 153.867188 375.117188 154.101562 375.117188 154.179688 C 375.117188 154.375 375.253906 154.453125 375.449219 154.453125 C 375.839844 154.453125 376.074219 154.238281 376.523438 153.554688 L 376.425781 153.496094 C 376.054688 153.964844 375.9375 154.082031 375.820312 154.082031 C 375.761719 154.082031 375.703125 154.0625 375.703125 153.964844 C 375.703125 153.945312 375.722656 153.886719 375.722656 153.867188 L 376.367188 151.40625 L 377.011719 151.40625 Z M 377.050781 151.171875 "/>
<path style=" stroke:none;fill-rule:nonzero;fill:rgb(0%,0%,0%);fill-opacity:1;" d="M 381.675781 152.734375 L 381.675781 152.226562 L 379.722656 152.226562 L 379.722656 150.273438 L 379.234375 150.273438 L 379.234375 152.226562 L 377.261719 152.226562 L 377.261719 152.734375 L 379.234375 152.734375 L 379.234375 154.6875 L 379.722656 154.6875 L 379.722656 152.734375 Z M 381.675781 152.734375 "/>
<path style=" stroke:none;fill-rule:nonzero;fill:rgb(0%,0%,0%);fill-opacity:1;" d="M 384.996094 154.375 L 384.996094 154.257812 C 384.429688 154.257812 384.292969 154.121094 384.292969 153.808594 L 384.292969 149.335938 L 384.214844 149.296875 L 382.886719 149.980469 L 382.886719 150.097656 L 383.082031 150.019531 C 383.21875 149.960938 383.335938 149.921875 383.414062 149.921875 C 383.570312 149.921875 383.648438 150.039062 383.648438 150.292969 L 383.648438 153.671875 C 383.648438 154.082031 383.492188 154.238281 382.925781 154.257812 L 382.925781 154.375 Z M 384.996094 154.375 "/>
<path style=" stroke:none;fill-rule:nonzero;fill:rgb(40%,74.901961%,100%);fill-opacity:1;" d="M 297.4375 25 L 332.4375 25 L 332.4375 5 L 297.4375 5 Z M 297.4375 25 "/>
<path style="fill:none;stroke-width:1;stroke-linecap:round;stroke-linejoin:round;stroke:rgb(0%,0%,0%);stroke-opacity:1;stroke-miterlimit:10;" d="M 349.95 264 L 377.95 264 L 377.95 280 L 349.95 280 Z M 349.95 264 " transform="matrix(1.25,0,0,1.25,-140,-325)"/>
<path style=" stroke:none;fill-rule:nonzero;fill:rgb(40%,74.901961%,100%);fill-opacity:1;" d="M 160 25 L 195 25 L 195 5 L 160 5 Z M 160 25 "/>
<path style="fill:none;stroke-width:1;stroke-linecap:round;stroke-linejoin:round;stroke:rgb(0%,0%,0%);stroke-opacity:1;stroke-miterlimit:10;" d="M 240 264 L 268 264 L 268 280 L 240 280 Z M 240 264 " transform="matrix(1.25,0,0,1.25,-140,-325)"/>
<path style=" stroke:none;fill-rule:nonzero;fill:rgb(40%,74.901961%,100%);fill-opacity:1;" d="M 430 25 L 465 25 L 465 5 L 430 5 Z M 430 25 "/>
<path style="fill:none;stroke-width:1;stroke-linecap:round;stroke-linejoin:round;stroke:rgb(0%,0%,0%);stroke-opacity:1;stroke-miterlimit:10;" d="M 456 264 L 484 264 L 484 280 L 456 280 Z M 456 264 " transform="matrix(1.25,0,0,1.25,-140,-325)"/>
<path style=" stroke:none;fill-rule:nonzero;fill:rgb(0%,0%,0%);fill-opacity:1;" d="M 23.203125 12.695312 L 23.203125 14.355469 L 22.089844 14.355469 C 22.363281 13.632812 22.636719 12.8125 22.871094 11.894531 L 25.039062 11.894531 L 25.039062 11.132812 L 23.066406 11.132812 C 23.164062 10.683594 23.261719 10.195312 23.378906 9.6875 L 22.636719 9.53125 C 22.519531 10.078125 22.421875 10.625 22.304688 11.132812 L 21.191406 11.132812 L 21.191406 11.894531 L 22.128906 11.894531 C 21.875 12.890625 21.601562 13.75 21.269531 14.414062 L 21.445312 15.097656 L 23.203125 15.097656 L 23.203125 16.777344 C 22.539062 16.894531 21.855469 17.011719 21.113281 17.089844 L 21.210938 17.890625 C 21.894531 17.773438 22.558594 17.675781 23.203125 17.539062 L 23.203125 19.882812 L 23.945312 19.882812 L 23.945312 17.382812 L 25.019531 17.109375 L 25.019531 16.347656 C 24.6875 16.425781 24.335938 16.523438 23.945312 16.621094 L 23.945312 15.097656 L 24.980469 15.097656 L 24.980469 14.355469 L 23.945312 14.355469 L 23.945312 12.695312 Z M 26.523438 12.109375 L 26.523438 12.773438 L 29.746094 12.773438 L 29.746094 12.109375 L 26.523438 12.109375 C 27.089844 11.5625 27.636719 10.957031 28.164062 10.3125 C 29.023438 11.40625 29.980469 12.34375 31.035156 13.105469 L 31.464844 12.480469 C 30.449219 11.757812 29.453125 10.800781 28.457031 9.589844 L 27.890625 9.589844 C 26.972656 10.703125 25.9375 11.699219 24.785156 12.539062 L 25.234375 13.222656 C 25.664062 12.871094 26.09375 12.5 26.523438 12.109375 Z M 27.304688 19.804688 C 27.851562 19.804688 28.144531 19.511719 28.144531 18.925781 L 28.144531 13.671875 L 25.488281 13.671875 L 25.488281 19.882812 L 26.191406 19.882812 L 26.191406 17.773438 L 27.460938 17.773438 L 27.460938 18.789062 C 27.460938 19.023438 27.324219 19.160156 27.089844 19.160156 L 26.582031 19.140625 L 26.757812 19.804688 Z M 26.191406 17.148438 L 26.191406 16.074219 L 27.460938 16.074219 L 27.460938 17.148438 Z M 26.191406 15.449219 L 26.191406 14.335938 L 27.460938 14.335938 L 27.460938 15.449219 Z M 28.808594 13.984375 L 28.808594 18.027344 L 29.453125 18.027344 L 29.453125 13.984375 Z M 30.039062 19.824219 C 30.585938 19.824219 30.859375 19.492188 30.859375 18.847656 L 30.859375 13.476562 L 30.15625 13.476562 L 30.15625 18.671875 C 30.15625 18.984375 30.039062 19.160156 29.785156 19.160156 C 29.511719 19.160156 29.21875 19.140625 28.925781 19.101562 L 29.082031 19.824219 Z M 30.039062 19.824219 "/>
<path style=" stroke:none;fill-rule:nonzero;fill:rgb(0%,0%,0%);fill-opacity:1;" d="M 40.546875 13.476562 L 37.910156 13.476562 L 37.910156 9.550781 L 37.089844 9.550781 L 37.089844 13.476562 L 34.453125 13.476562 L 34.453125 10.410156 L 33.632812 10.410156 L 33.632812 14.257812 L 37.089844 14.257812 L 37.089844 18.398438 L 33.90625 18.398438 L 33.90625 15.3125 L 33.085938 15.3125 L 33.085938 19.804688 L 33.90625 19.804688 L 33.90625 19.160156 L 41.09375 19.160156 L 41.09375 19.804688 L 41.914062 19.804688 L 41.914062 15.3125 L 41.09375 15.3125 L 41.09375 18.398438 L 37.910156 18.398438 L 37.910156 14.257812 L 41.367188 14.257812 L 41.367188 10.410156 L 40.546875 10.410156 Z M 40.546875 13.476562 "/>
<path style=" stroke:none;fill-rule:nonzero;fill:rgb(0%,0%,0%);fill-opacity:1;" d="M 46.777344 13.867188 L 46.777344 14.589844 L 52.871094 14.589844 L 52.871094 13.867188 Z M 45.976562 15.703125 L 45.976562 16.445312 L 48.4375 16.445312 C 47.65625 17.714844 46.992188 18.496094 46.503906 18.789062 C 46.445312 18.808594 46.40625 18.847656 46.328125 18.867188 L 46.503906 19.550781 C 48.632812 19.414062 50.585938 19.21875 52.363281 18.984375 C 52.597656 19.257812 52.792969 19.550781 52.988281 19.84375 L 53.632812 19.394531 C 53.144531 18.671875 52.421875 17.8125 51.503906 16.835938 L 50.898438 17.207031 C 51.230469 17.597656 51.5625 17.96875 51.875 18.339844 C 50.429688 18.554688 48.964844 18.710938 47.480469 18.808594 C 48.007812 18.339844 48.613281 17.539062 49.296875 16.445312 L 53.613281 16.445312 L 53.613281 15.703125 Z M 52.246094 10.761719 L 52.246094 12.070312 L 45.625 12.070312 L 45.625 10.761719 Z M 45.625 12.792969 L 53.027344 12.792969 L 53.027344 10 L 44.84375 10 L 44.84375 13.730469 C 44.824219 15.996094 44.433594 17.832031 43.652344 19.257812 L 44.238281 19.804688 C 45.15625 18.105469 45.625 16.074219 45.625 13.730469 Z M 45.625 12.792969 "/>
<path style=" stroke:none;fill-rule:nonzero;fill:rgb(0%,0%,0%);fill-opacity:1;" d="M 475.546875 75.625 L 475.546875 75.351562 C 474.746094 75.234375 474.550781 75.117188 474.550781 74.53125 L 474.550781 69.140625 C 474.550781 68.535156 474.785156 68.359375 475.546875 68.300781 L 475.546875 68.027344 L 471.738281 68.027344 L 471.738281 68.300781 C 472.519531 68.359375 472.734375 68.496094 472.734375 69.140625 L 472.734375 71.425781 L 470.019531 71.425781 L 470.019531 69.140625 C 470.019531 68.496094 470.234375 68.359375 471.035156 68.300781 L 471.035156 68.027344 L 467.246094 68.027344 L 467.246094 68.300781 C 468.007812 68.359375 468.203125 68.515625 468.203125 69.140625 L 468.203125 74.53125 C 468.203125 75.117188 468.027344 75.234375 467.246094 75.351562 L 467.246094 75.625 L 471.035156 75.625 L 471.035156 75.351562 C 470.214844 75.253906 470.019531 75.117188 470.019531 74.53125 L 470.019531 71.953125 L 472.734375 71.953125 L 472.734375 74.53125 C 472.734375 75.097656 472.558594 75.253906 471.738281 75.351562 L 471.738281 75.625 Z M 475.546875 75.625 "/>
<path style=" stroke:none;fill-rule:nonzero;fill:rgb(0%,0%,0%);fill-opacity:1;" d="M 477.992188 76.171875 L 477.386719 76.171875 L 477.601562 75.390625 C 477.601562 75.371094 477.601562 75.332031 477.601562 75.332031 C 477.601562 75.292969 477.582031 75.273438 477.542969 75.273438 C 477.503906 75.273438 477.464844 75.292969 477.425781 75.351562 C 477.152344 75.761719 476.664062 76.113281 476.429688 76.171875 C 476.253906 76.210938 476.195312 76.269531 476.195312 76.367188 C 476.195312 76.367188 476.195312 76.386719 476.195312 76.40625 L 476.761719 76.40625 L 476.175781 78.632812 C 476.117188 78.867188 476.058594 79.101562 476.058594 79.179688 C 476.058594 79.375 476.195312 79.453125 476.390625 79.453125 C 476.78125 79.453125 477.015625 79.238281 477.464844 78.554688 L 477.367188 78.496094 C 476.996094 78.964844 476.878906 79.082031 476.761719 79.082031 C 476.703125 79.082031 476.644531 79.0625 476.644531 78.964844 C 476.644531 78.945312 476.664062 78.886719 476.664062 78.867188 L 477.308594 76.40625 L 477.953125 76.40625 Z M 477.992188 76.171875 "/>
<path style=" stroke:none;fill-rule:nonzero;fill:rgb(0%,0%,0%);fill-opacity:1;" d="M 482.617188 77.734375 L 482.617188 77.226562 L 480.664062 77.226562 L 480.664062 75.273438 L 480.175781 75.273438 L 480.175781 77.226562 L 478.203125 77.226562 L 478.203125 77.734375 L 480.175781 77.734375 L 480.175781 79.6875 L 480.664062 79.6875 L 480.664062 77.734375 Z M 482.617188 77.734375 "/>
<path style=" stroke:none;fill-rule:nonzero;fill:rgb(0%,0%,0%);fill-opacity:1;" d="M 485.9375 79.375 L 485.9375 79.257812 C 485.371094 79.257812 485.234375 79.121094 485.234375 78.808594 L 485.234375 74.335938 L 485.15625 74.296875 L 483.828125 74.980469 L 483.828125 75.097656 L 484.023438 75.019531 C 484.160156 74.960938 484.277344 74.921875 484.355469 74.921875 C 484.511719 74.921875 484.589844 75.039062 484.589844 75.292969 L 484.589844 78.671875 C 484.589844 79.082031 484.433594 79.238281 483.867188 79.257812 L 483.867188 79.375 Z M 485.9375 79.375 "/>
</g>
</svg>
